SplineFontDB: 3.2
FontName: SolisFalcoIcons-outlined
FullName: Solis Falco Icons
FamilyName: Solis Falco Icons
Weight: Outlined
Copyright: Copyright (c) 2021, Marcos Rodriguez
Version: 0.2
ItalicAngle: 0
UnderlinePosition: -100
UnderlineWidth: 50
Ascent: 800
Descent: 200
InvalidEm: 0
sfntRevision: 0x00003333
woffMajor: 0
woffMinor: 2
LayerCount: 2
Layer: 0 0 "Back" 1
Layer: 1 0 "Fore" 0
XUID: [1021 12 1917103916 12375586]
StyleMap: 0x0000
FSType: 0
OS2Version: 4
OS2_WeightWidthSlopeOnly: 0
OS2_UseTypoMetrics: 1
CreationTime: 1613572335
ModificationTime: 1639154791
PfmFamily: 17
TTFWeight: 400
TTFWidth: 5
LineGap: 90
VLineGap: 0
Panose: 2 0 5 3 0 0 0 0 0 0
OS2TypoAscent: 800
OS2TypoAOffset: 0
OS2TypoDescent: -200
OS2TypoDOffset: 0
OS2TypoLinegap: 90
OS2WinAscent: 805
OS2WinAOffset: 0
OS2WinDescent: 201
OS2WinDOffset: 0
HheadAscent: 805
HheadAOffset: 0
HheadDescent: -201
HheadDOffset: 0
OS2SubXSize: 650
OS2SubYSize: 700
OS2SubXOff: 0
OS2SubYOff: 140
OS2SupXSize: 650
OS2SupYSize: 700
OS2SupXOff: 0
OS2SupYOff: 480
OS2StrikeYSize: 49
OS2StrikeYPos: 258
OS2Vendor: 'PfEd'
OS2CodePages: 00000001.00000000
OS2UnicodeRanges: 00000001.10000000.00000000.00000000
Lookup: 4 0 1 "Liga" { "Liga-1"  } ['liga' ('DFLT' <'dflt' > 'latn' <'dflt' > ) ]
MarkAttachClasses: 1
DEI: 91125
LangName: 1033 "" "" "" "FontForge 2.0 : Solis Falco Icons : 11-8-2021"
Encoding: UnicodeBmp
UnicodeInterp: none
NameList: AGL For New Fonts
DisplaySize: -48
AntiAlias: 1
FitToEm: 0
WinInfo: 57325 25 8
BeginPrivate: 5
BlueShift 2 18
StdHW 4 [80]
StdVW 4 [80]
StemSnapH 35 [54 72 76 80 85 94 150 160 192 223]
StemSnapV 25 [76 80 86 98 150 160 192]
EndPrivate
BeginChars: 65537 189

StartChar: .notdef
Encoding: 65536 -1 0
Width: 500
Flags: MW
HStem: 0 50<100 400 100 450> 483 50<100 400 100 100>
VStem: 50 50<50 50 50 483> 400 50<50 483 483 483>
LayerCount: 2
Fore
SplineSet
50 0 m 1
 50 533 l 1
 450 533 l 1
 450 0 l 1
 50 0 l 1
100 50 m 1
 400 50 l 1
 400 483 l 1
 100 483 l 1
 100 50 l 1
EndSplineSet
Validated: 1
EndChar

StartChar: zero
Encoding: 48 48 1
Width: 1000
GlyphClass: 2
Flags: W
LayerCount: 2
Fore
SplineSet
0 0 m 1024
EndSplineSet
Validated: 1
EndChar

StartChar: one
Encoding: 49 49 2
Width: 1000
GlyphClass: 2
Flags: W
LayerCount: 2
Fore
SplineSet
0 0 m 1024
EndSplineSet
Validated: 1
EndChar

StartChar: two
Encoding: 50 50 3
Width: 1000
GlyphClass: 2
Flags: W
LayerCount: 2
Fore
SplineSet
0 0 m 1024
EndSplineSet
Validated: 1
EndChar

StartChar: three
Encoding: 51 51 4
Width: 1000
GlyphClass: 2
Flags: W
LayerCount: 2
Fore
SplineSet
0 0 m 1024
EndSplineSet
Validated: 1
EndChar

StartChar: four
Encoding: 52 52 5
Width: 1000
GlyphClass: 2
Flags: W
LayerCount: 2
Fore
SplineSet
0 0 m 1024
EndSplineSet
Validated: 1
EndChar

StartChar: five
Encoding: 53 53 6
Width: 1000
GlyphClass: 2
Flags: W
LayerCount: 2
Fore
SplineSet
0 0 m 1024
EndSplineSet
Validated: 1
EndChar

StartChar: six
Encoding: 54 54 7
Width: 1000
GlyphClass: 2
Flags: W
LayerCount: 2
Fore
SplineSet
0 0 m 1024
EndSplineSet
Validated: 1
EndChar

StartChar: seven
Encoding: 55 55 8
Width: 1000
GlyphClass: 2
Flags: W
LayerCount: 2
Fore
SplineSet
0 0 m 1024
EndSplineSet
Validated: 1
EndChar

StartChar: eight
Encoding: 56 56 9
Width: 1000
GlyphClass: 2
Flags: W
LayerCount: 2
Fore
SplineSet
0 0 m 1024
EndSplineSet
Validated: 1
EndChar

StartChar: nine
Encoding: 57 57 10
Width: 1000
GlyphClass: 2
Flags: W
LayerCount: 2
Fore
SplineSet
0 0 m 1024
EndSplineSet
Validated: 1
EndChar

StartChar: A
Encoding: 65 65 11
Width: 1000
GlyphClass: 2
Flags: W
LayerCount: 2
Fore
SplineSet
0 0 m 1024
EndSplineSet
Validated: 1
EndChar

StartChar: B
Encoding: 66 66 12
Width: 1000
GlyphClass: 2
Flags: W
LayerCount: 2
Fore
SplineSet
0 0 m 1024
EndSplineSet
Validated: 1
EndChar

StartChar: C
Encoding: 67 67 13
Width: 1000
GlyphClass: 2
Flags: W
LayerCount: 2
Fore
SplineSet
0 0 m 1024
EndSplineSet
Validated: 1
EndChar

StartChar: D
Encoding: 68 68 14
Width: 1000
GlyphClass: 2
Flags: W
LayerCount: 2
Fore
SplineSet
0 0 m 1024
EndSplineSet
Validated: 1
EndChar

StartChar: E
Encoding: 69 69 15
Width: 1000
GlyphClass: 2
Flags: W
LayerCount: 2
Fore
SplineSet
0 0 m 1024
EndSplineSet
Validated: 1
EndChar

StartChar: F
Encoding: 70 70 16
Width: 1000
GlyphClass: 2
Flags: W
LayerCount: 2
Fore
SplineSet
0 0 m 1024
EndSplineSet
Validated: 1
EndChar

StartChar: G
Encoding: 71 71 17
Width: 1000
GlyphClass: 2
Flags: W
LayerCount: 2
Fore
SplineSet
0 0 m 1024
EndSplineSet
Validated: 1
EndChar

StartChar: H
Encoding: 72 72 18
Width: 1000
GlyphClass: 2
Flags: W
LayerCount: 2
Fore
SplineSet
0 0 m 1024
EndSplineSet
Validated: 1
EndChar

StartChar: I
Encoding: 73 73 19
Width: 1000
GlyphClass: 2
Flags: W
LayerCount: 2
Fore
SplineSet
0 0 m 1024
EndSplineSet
Validated: 1
EndChar

StartChar: J
Encoding: 74 74 20
Width: 1000
GlyphClass: 2
Flags: W
LayerCount: 2
Fore
SplineSet
0 0 m 1024
EndSplineSet
Validated: 1
EndChar

StartChar: K
Encoding: 75 75 21
Width: 1000
GlyphClass: 2
Flags: W
LayerCount: 2
Fore
SplineSet
0 0 m 1024
EndSplineSet
Validated: 1
EndChar

StartChar: L
Encoding: 76 76 22
Width: 1000
GlyphClass: 2
Flags: W
LayerCount: 2
Fore
SplineSet
0 0 m 1024
EndSplineSet
Validated: 1
EndChar

StartChar: M
Encoding: 77 77 23
Width: 1000
GlyphClass: 2
Flags: W
LayerCount: 2
Fore
SplineSet
0 0 m 1024
EndSplineSet
Validated: 1
EndChar

StartChar: N
Encoding: 78 78 24
Width: 1000
GlyphClass: 2
Flags: W
LayerCount: 2
Fore
SplineSet
0 0 m 1024
EndSplineSet
Validated: 1
EndChar

StartChar: O
Encoding: 79 79 25
Width: 1000
GlyphClass: 2
Flags: W
LayerCount: 2
Fore
SplineSet
0 0 m 1024
EndSplineSet
Validated: 1
EndChar

StartChar: P
Encoding: 80 80 26
Width: 1000
GlyphClass: 2
Flags: W
LayerCount: 2
Fore
SplineSet
0 0 m 1024
EndSplineSet
Validated: 1
EndChar

StartChar: Q
Encoding: 81 81 27
Width: 1000
GlyphClass: 2
Flags: W
LayerCount: 2
Fore
SplineSet
0 0 m 1024
EndSplineSet
Validated: 1
EndChar

StartChar: R
Encoding: 82 82 28
Width: 1000
GlyphClass: 2
Flags: W
LayerCount: 2
Fore
SplineSet
0 0 m 1024
EndSplineSet
Validated: 1
EndChar

StartChar: S
Encoding: 83 83 29
Width: 1000
GlyphClass: 2
Flags: W
LayerCount: 2
Fore
SplineSet
0 0 m 1024
EndSplineSet
Validated: 1
EndChar

StartChar: T
Encoding: 84 84 30
Width: 1000
GlyphClass: 2
Flags: W
LayerCount: 2
Fore
SplineSet
0 0 m 1024
EndSplineSet
Validated: 1
EndChar

StartChar: U
Encoding: 85 85 31
Width: 1000
GlyphClass: 2
Flags: W
LayerCount: 2
Fore
SplineSet
0 0 m 1024
EndSplineSet
Validated: 1
EndChar

StartChar: V
Encoding: 86 86 32
Width: 1000
GlyphClass: 2
Flags: W
LayerCount: 2
Fore
SplineSet
0 0 m 1024
EndSplineSet
Validated: 1
EndChar

StartChar: W
Encoding: 87 87 33
Width: 1000
GlyphClass: 2
Flags: W
LayerCount: 2
Fore
SplineSet
0 0 m 1024
EndSplineSet
Validated: 1
EndChar

StartChar: X
Encoding: 88 88 34
Width: 1000
GlyphClass: 2
Flags: W
LayerCount: 2
Fore
SplineSet
0 0 m 1024
EndSplineSet
Validated: 1
EndChar

StartChar: Y
Encoding: 89 89 35
Width: 1000
GlyphClass: 2
Flags: W
LayerCount: 2
Fore
SplineSet
0 0 m 1024
EndSplineSet
Validated: 1
EndChar

StartChar: Z
Encoding: 90 90 36
Width: 1000
GlyphClass: 2
Flags: W
LayerCount: 2
Fore
SplineSet
0 0 m 1024
EndSplineSet
Validated: 1
EndChar

StartChar: underscore
Encoding: 95 95 37
Width: 1000
GlyphClass: 2
Flags: W
LayerCount: 2
Fore
SplineSet
0 0 m 1024
EndSplineSet
Validated: 1
EndChar

StartChar: a
Encoding: 97 97 38
Width: 1000
GlyphClass: 2
Flags: W
LayerCount: 2
Fore
SplineSet
0 0 m 1024
EndSplineSet
Validated: 1
EndChar

StartChar: b
Encoding: 98 98 39
Width: 1000
GlyphClass: 2
Flags: W
LayerCount: 2
Fore
SplineSet
0 0 m 1024
EndSplineSet
Validated: 1
EndChar

StartChar: c
Encoding: 99 99 40
Width: 1000
GlyphClass: 2
Flags: W
LayerCount: 2
Fore
SplineSet
0 0 m 1024
EndSplineSet
Validated: 1
EndChar

StartChar: d
Encoding: 100 100 41
Width: 1000
GlyphClass: 2
Flags: W
LayerCount: 2
Fore
SplineSet
0 0 m 1024
EndSplineSet
Validated: 1
EndChar

StartChar: e
Encoding: 101 101 42
Width: 1000
GlyphClass: 2
Flags: W
LayerCount: 2
Fore
SplineSet
0 0 m 1024
EndSplineSet
Validated: 1
EndChar

StartChar: f
Encoding: 102 102 43
Width: 1000
GlyphClass: 2
Flags: W
LayerCount: 2
Fore
SplineSet
0 0 m 1024
EndSplineSet
Validated: 1
EndChar

StartChar: g
Encoding: 103 103 44
Width: 1000
GlyphClass: 2
Flags: W
LayerCount: 2
Fore
SplineSet
0 0 m 1024
EndSplineSet
Validated: 1
EndChar

StartChar: h
Encoding: 104 104 45
Width: 1000
GlyphClass: 2
Flags: W
LayerCount: 2
Fore
SplineSet
0 0 m 1024
EndSplineSet
Validated: 1
EndChar

StartChar: i
Encoding: 105 105 46
Width: 1000
GlyphClass: 2
Flags: W
LayerCount: 2
Fore
SplineSet
0 0 m 1024
EndSplineSet
Validated: 1
EndChar

StartChar: j
Encoding: 106 106 47
Width: 1000
GlyphClass: 2
Flags: W
LayerCount: 2
Fore
SplineSet
0 0 m 1024
EndSplineSet
Validated: 1
EndChar

StartChar: k
Encoding: 107 107 48
Width: 1000
GlyphClass: 2
Flags: W
LayerCount: 2
Fore
SplineSet
0 0 m 1024
EndSplineSet
Validated: 1
EndChar

StartChar: l
Encoding: 108 108 49
Width: 1000
GlyphClass: 2
Flags: W
LayerCount: 2
Fore
SplineSet
0 0 m 1024
EndSplineSet
Validated: 1
EndChar

StartChar: m
Encoding: 109 109 50
Width: 1000
GlyphClass: 2
Flags: W
LayerCount: 2
Fore
SplineSet
0 0 m 1024
EndSplineSet
Validated: 1
EndChar

StartChar: n
Encoding: 110 110 51
Width: 1000
GlyphClass: 2
Flags: W
LayerCount: 2
Fore
SplineSet
0 0 m 1024
EndSplineSet
Validated: 1
EndChar

StartChar: o
Encoding: 111 111 52
Width: 1000
GlyphClass: 2
Flags: W
LayerCount: 2
Fore
SplineSet
0 0 m 1024
EndSplineSet
Validated: 1
EndChar

StartChar: p
Encoding: 112 112 53
Width: 1000
GlyphClass: 2
Flags: W
LayerCount: 2
Fore
SplineSet
0 0 m 1024
EndSplineSet
Validated: 1
EndChar

StartChar: q
Encoding: 113 113 54
Width: 1000
GlyphClass: 2
Flags: W
LayerCount: 2
Fore
SplineSet
0 0 m 1024
EndSplineSet
Validated: 1
EndChar

StartChar: r
Encoding: 114 114 55
Width: 1000
GlyphClass: 2
Flags: W
LayerCount: 2
Fore
SplineSet
0 0 m 1024
EndSplineSet
Validated: 1
EndChar

StartChar: s
Encoding: 115 115 56
Width: 1000
GlyphClass: 2
Flags: W
LayerCount: 2
Fore
SplineSet
0 0 m 1024
EndSplineSet
Validated: 1
EndChar

StartChar: t
Encoding: 116 116 57
Width: 1000
GlyphClass: 2
Flags: W
LayerCount: 2
Fore
SplineSet
0 0 m 1024
EndSplineSet
Validated: 1
EndChar

StartChar: u
Encoding: 117 117 58
Width: 1000
GlyphClass: 2
Flags: W
LayerCount: 2
Fore
SplineSet
0 0 m 1024
EndSplineSet
Validated: 1
EndChar

StartChar: v
Encoding: 118 118 59
Width: 1000
GlyphClass: 2
Flags: W
LayerCount: 2
Fore
SplineSet
0 0 m 1024
EndSplineSet
Validated: 1
EndChar

StartChar: w
Encoding: 119 119 60
Width: 1000
GlyphClass: 2
Flags: W
LayerCount: 2
Fore
SplineSet
0 0 m 1024
EndSplineSet
Validated: 1
EndChar

StartChar: x
Encoding: 120 120 61
Width: 1000
GlyphClass: 2
Flags: W
LayerCount: 2
Fore
SplineSet
0 0 m 1024
EndSplineSet
Validated: 1
EndChar

StartChar: y
Encoding: 121 121 62
Width: 1000
GlyphClass: 2
Flags: W
LayerCount: 2
Fore
SplineSet
0 0 m 1024
EndSplineSet
Validated: 1
EndChar

StartChar: z
Encoding: 122 122 63
Width: 1000
GlyphClass: 2
Flags: W
LayerCount: 2
Fore
SplineSet
0 0 m 1024
EndSplineSet
Validated: 1
EndChar

StartChar: account_circle
Encoding: 57344 57344 64
Width: 1000
GlyphClass: 3
Flags: MW
HStem: -200 80<460.85 539.15 460.85 637.85> 0.799805 21G<205.7 205.7 794.3 794.3> 0.799805 21G<205.7 205.7 794.3 794.3> 0.799805 21G<205.7 205.7 794.3 794.3> 0.799805 21G<205.7 205.7 794.3 794.3> 114.9 80<354.9 645.1> 272.3 80<479.45 520.55 479.45 542.6> 501.3 80<479.45 520.55> 720 80<384.2 615.8>
VStem: 0 80<241.5 415.8 241.5 437.85> 205.7 80<0.799805 45.7002 0.799805 0.799805> 345.5 80<406.25 447.35 406.25 469.4> 574.5 80<406.25 447.35> 714.4 79.8994<0.799805 45.7002 0.799805 45.7002 -61 45.7002> 920 80<241.5 415.8>
LayerCount: 2
Fore
SplineSet
1000 300 m 0x87fe
 1000 575.700195312 775.700195312 800 500 800 c 0
 224.299804688 800 0 575.700195312 0 300 c 0
 0 24.2998046875 224.299804688 -200 500 -200 c 0
 775.700195312 -200 1000 24.2998046875 1000 300 c 0x87fe
285.700195312 -61 m 1
 285.700195312 45.7001953125 l 2
 285.700195312 83.900390625 316.700195312 114.900390625 354.900390625 114.900390625 c 2
 645.200195312 114.900390625 l 2
 683.400390625 114.900390625 714.400390625 83.900390625 714.400390625 45.7001953125 c 2
 714.400390625 -61 l 1
 651.5 -98.400390625 578.299804688 -120 500 -120 c 0
 421.700195312 -120 348.5 -98.400390625 285.700195312 -61 c 1
794.299804688 0.7998046875 m 1xc7fe
 794.299804688 45.7001953125 l 2
 794.299804688 128 727.400390625 194.900390625 645.099609375 194.900390625 c 2
 354.900390625 194.900390625 l 2
 272.599609375 194.900390625 205.700195312 128 205.700195312 45.7001953125 c 2
 205.700195312 0.7998046875 l 1
 128.200195312 77 80 183 80 300 c 0
 80 531.599609375 268.400390625 720 500 720 c 0
 731.599609375 720 920 531.599609375 920 300 c 0
 920 183 871.799804688 77 794.299804688 0.7998046875 c 1xc7fe
500 581.299804688 m 0
 414.799804688 581.299804688 345.5 512 345.5 426.799804688 c 0
 345.5 341.599609375 414.799804688 272.299804688 500 272.299804688 c 0
 585.200195312 272.299804688 654.5 341.599609375 654.5 426.799804688 c 0
 654.5 512 585.200195312 581.299804688 500 581.299804688 c 0
500 352.299804688 m 0
 458.900390625 352.299804688 425.5 385.700195312 425.5 426.799804688 c 0
 425.5 467.900390625 458.900390625 501.299804688 500 501.299804688 c 0
 541.099609375 501.299804688 574.5 467.900390625 574.5 426.799804688 c 0
 574.5 385.700195312 541.099609375 352.299804688 500 352.299804688 c 0
EndSplineSet
Validated: 9
Ligature2: "Liga-1" a c c o u n t underscore c i r c l e
EndChar

StartChar: settings_gear
Encoding: 57345 57345 65
Width: 1000
GlyphClass: 3
Flags: MW
HStem: -200 80<429.55 538.5 461.4 538.5 461.4 551.3> 89.9004 80<464.15 535.85 464.15 557.95> 181.3 80.2002<882 920 872.3 933 882 882> 338.7 79.8994<80 118.1 67.2998 127.7 80 80> 430.1 80<464.15 535.85> 720 80<461.5 538.6 461.5 461.5>
VStem: 0 80<261.6 338.7 261.6 351.3 261.6 369.85> 289.9 80<264.15 335.85 264.15 357.95> 381.4 80.0996<-120 -82 -82 -82> 538.5 80.0996<-120 -82.0996 -151.35 -72.4004 -151.35 -57.25> 630.1 80<264.15 335.85> 920 80.2998<261.5 338.6 338.6 338.6>
LayerCount: 2
Fore
SplineSet
551.299804688 -200 m 2
 448.700195312 -200 l 2
 410.400390625 -200 381.400390625 -168.400390625 381.400390625 -126.400390625 c 2
 381.400390625 -82 l 1
 358.099609375 -74.7998046875 335.400390625 -65.2998046875 313.700195312 -53.900390625 c 1
 277.799804688 -89.7998046875 l 2
 251.599609375 -116 208.900390625 -116 182.700195312 -89.7998046875 c 2
 110.099609375 -17.2001953125 l 2
 83.900390625 9 83.900390625 51.7001953125 110.099609375 77.900390625 c 2
 146 113.799804688 l 1
 134.599609375 135.5 125.200195312 158.099609375 117.900390625 181.5 c 1
 67.2998046875 181.5 l 2
 30.2001953125 181.400390625 0 211.599609375 0 248.700195312 c 2
 0 351.299804688 l 2
 0 388.400390625 30.2001953125 418.599609375 67.2998046875 418.599609375 c 2
 118.099609375 418.599609375 l 1
 125.299804688 441.900390625 134.799804688 464.599609375 146.200195312 486.299804688 c 1
 110.299804688 522.200195312 l 2
 84.099609375 548.400390625 84.099609375 591.099609375 110.299804688 617.299804688 c 2
 182.900390625 689.900390625 l 2
 209.099609375 716.099609375 251.799804688 716.099609375 278 689.900390625 c 2
 313.900390625 654 l 1
 335.5 665.400390625 358.200195312 674.799804688 381.599609375 682.099609375 c 1
 381.599609375 732.700195312 l 2
 381.599609375 769.799804688 411.799804688 800 448.900390625 800 c 2
 551.5 800 l 2
 589.799804688 800 618.799804688 768.400390625 618.799804688 726.400390625 c 2
 618.799804688 682 l 1
 642.099609375 674.799804688 664.799804688 665.400390625 686.5 653.900390625 c 1
 722.400390625 689.799804688 l 2
 748.599609375 716 791.299804688 716 817.5 689.799804688 c 2
 890.099609375 617.200195312 l 2
 916.299804688 591 916.299804688 548.299804688 890.099609375 522.099609375 c 2
 854.200195312 486.200195312 l 1
 865.599609375 464.5 875 441.799804688 882.200195312 418.5 c 1
 933 418.5 l 2
 970.099609375 418.5 1000.29980469 388.299804688 1000.29980469 351.200195312 c 2
 1000.29980469 248.599609375 l 2
 1000.29980469 211.5 970.099609375 181.299804688 933 181.299804688 c 2
 882 181.299804688 l 1
 874.799804688 158 865.400390625 135.299804688 854 113.599609375 c 1
 889.900390625 77.7001953125 l 2
 916.099609375 51.5 916.099609375 8.7998046875 889.900390625 -17.400390625 c 2
 817.299804688 -90 l 2
 791.099609375 -116.200195312 748.400390625 -116.200195312 722.200195312 -90 c 2
 686.299804688 -54.099609375 l 1
 664.599609375 -65.5 641.900390625 -74.900390625 618.599609375 -82.099609375 c 1
 618.599609375 -132.900390625 l 2
 618.599609375 -169.799804688 588.400390625 -200 551.299804688 -200 c 2
461.400390625 -120 m 1
 538.5 -120 l 1
 538.5 -72.400390625 l 2
 538.5 -42.099609375 558.400390625 -16.099609375 588 -7.599609375 c 0
 611.299804688 -0.900390625 633.900390625 8.400390625 655.099609375 20.2001953125 c 0
 682 35.2001953125 714.5 30.7998046875 735.900390625 9.400390625 c 2
 769.599609375 -24.2998046875 l 1
 824.200195312 30.2998046875 l 1
 790.5 64 l 2
 769.099609375 85.5 764.700195312 118 779.700195312 144.900390625 c 0
 791.5 166.099609375 800.900390625 188.700195312 807.5 212 c 0
 816 241.599609375 842 261.5 872.299804688 261.5 c 2
 920 261.5 l 1
 920 338.599609375 l 1
 872.400390625 338.599609375 l 2
 842.099609375 338.599609375 816.099609375 358.5 807.599609375 388.099609375 c 0
 800.900390625 411.400390625 791.599609375 434 779.799804688 455.200195312 c 0
 764.799804688 482.099609375 769.200195312 514.599609375 790.599609375 536 c 2
 824.299804688 569.700195312 l 1
 769.700195312 624.299804688 l 1
 736 590.599609375 l 2
 714.599609375 569.200195312 682.099609375 564.799804688 655.200195312 579.799804688 c 0
 633.5 591.799804688 610.5 601.299804688 586.599609375 608 c 0
 558.299804688 615.900390625 538.599609375 641.700195312 538.599609375 670.599609375 c 2
 538.599609375 720 l 1
 461.5 720 l 1
 461.5 672.400390625 l 2
 461.5 642.099609375 441.599609375 616 412 607.599609375 c 0
 388.700195312 600.900390625 366.099609375 591.599609375 344.900390625 579.799804688 c 0
 318 564.799804688 285.5 569.200195312 264 590.599609375 c 2
 230.299804688 624.299804688 l 1
 175.799804688 569.799804688 l 1
 209.5 536.099609375 l 2
 230.900390625 514.700195312 235.299804688 482.200195312 220.299804688 455.299804688 c 0
 208.5 434.099609375 199.099609375 411.5 192.5 388.200195312 c 0
 184 358.599609375 158 338.700195312 127.700195312 338.700195312 c 2
 80 338.700195312 l 1
 80 261.599609375 l 1
 127.599609375 261.599609375 l 2
 157.900390625 261.599609375 184 241.700195312 192.400390625 212.099609375 c 0
 199.099609375 188.799804688 208.400390625 166.200195312 220.200195312 145 c 0
 235.200195312 118.099609375 230.799804688 85.599609375 209.400390625 64.2001953125 c 2
 175.700195312 30.5 l 1
 230.299804688 -24.099609375 l 1
 264 9.599609375 l 2
 285.400390625 31.099609375 317.900390625 35.400390625 344.900390625 20.400390625 c 0
 366.599609375 8.400390625 389.599609375 -1.099609375 413.5 -7.7998046875 c 0
 441.799804688 -15.7001953125 461.5 -41.5 461.5 -70.400390625 c 2
 461.5 -120 l 1
 461.400390625 -120 l 1
500 89.900390625 m 0
 384.099609375 89.900390625 289.900390625 184.200195312 289.900390625 300 c 0
 289.900390625 415.900390625 384.200195312 510.099609375 500 510.099609375 c 0
 615.900390625 510.099609375 710.099609375 415.799804688 710.099609375 300 c 0
 710.099609375 184.099609375 615.900390625 89.900390625 500 89.900390625 c 0
500 430.099609375 m 0
 428.299804688 430.099609375 369.900390625 371.700195312 369.900390625 300 c 0
 369.900390625 228.299804688 428.299804688 169.900390625 500 169.900390625 c 0
 571.700195312 169.900390625 630.099609375 228.299804688 630.099609375 300 c 0
 630.099609375 371.700195312 571.700195312 430.099609375 500 430.099609375 c 0
EndSplineSet
Validated: 37
Ligature2: "Liga-1" s e t t i n g s underscore g e a r
EndChar

StartChar: done_circle
Encoding: 57346 57346 66
Width: 1000
GlyphClass: 3
Flags: MW
HStem: -200 80<384 616 384 638> 720 80<384 616>
VStem: 0 80<184 416 184 438> 920 80<184 416>
LayerCount: 2
Fore
SplineSet
398 87 m 0
 382 87 367 93 356 105 c 2
 220 240 l 1
 277 297 l 1
 398 176 l 1
 723 501 l 1
 780 444 l 1
 440 105 l 2
 429 94 414 87 398 87 c 0
500 -200 m 0
 224 -200 0 24 0 300 c 0
 0 576 224 800 500 800 c 0
 776 800 1000 576 1000 300 c 0
 1000 24 776 -200 500 -200 c 0
500 720 m 0
 268 720 80 532 80 300 c 0
 80 68 268 -120 500 -120 c 0
 732 -120 920 68 920 300 c 0
 920 532 732 720 500 720 c 0
EndSplineSet
Validated: 1
Ligature2: "Liga-1" d o n e underscore c i r c l e
EndChar

StartChar: cancel_circle
Encoding: 57347 57347 67
Width: 1000
GlyphClass: 3
Flags: MW
HStem: -200 80<384 616 384 638> 720 80<384 616>
VStem: 0 80<184 416 184 438> 920 80<184 416>
LayerCount: 2
Fore
SplineSet
500 -200 m 0
 224 -200 0 24 0 300 c 0
 0 576 224 800 500 800 c 0
 776 800 1000 576 1000 300 c 0
 1000 24 776 -200 500 -200 c 0
500 720 m 0
 268 720 80 532 80 300 c 0
 80 68 268 -120 500 -120 c 0
 732 -120 920 68 920 300 c 0
 920 532 732 720 500 720 c 0
749 493 m 1
 693 549 l 1
 500 357 l 1
 307 549 l 1
 251 493 l 1
 443 300 l 1
 251 107 l 1
 307 51 l 1
 500 243 l 1
 693 51 l 1
 749 107 l 1
 557 300 l 1
 749 493 l 1
EndSplineSet
Validated: 9
Ligature2: "Liga-1" c a n c e l underscore c i r c l e
EndChar

StartChar: reload
Encoding: 57348 57348 68
Width: 1000
GlyphClass: 3
Flags: MW
HStem: -200 80<450.5 616 450.5 638> 720 80<384 549.5>
VStem: 0 80<-63 69 -63 110 300 416> 920 80<184 300 531 531 531 663>
LayerCount: 2
Fore
SplineSet
975 797 m 0
 960 803 943 800 932 788 c 2
 824 681 l 1
 734 758 620 800 500 800 c 0
 224 800 0 576 0 300 c 1
 80 300 l 1
 80 532 268 720 500 720 c 0
 599 720 692 686 767 624 c 1
 662 519 l 2
 651 508 647 490 653 475 c 0
 659 460 674 450 690 450 c 2
 960 450 l 2
 982 450 1000 468 1000 490 c 2
 1000 760 l 2
 1000 776 990 791 975 797 c 0
920 531 m 1
 787 531 l 1
 920 663 l 1
 920 531 l 1
500 -200 m 0
 776 -200 1000 24 1000 300 c 1
 920 300 l 1
 920 68 732 -120 500 -120 c 0
 401 -120 308 -86 233 -24 c 1
 338 81 l 2
 349 92 353 110 347 125 c 0
 341 140 326 150 310 150 c 2
 40 150 l 2
 18 150 0 132 0 110 c 2
 0 -160 l 2
 0 -176 10 -191 25 -197 c 0
 30 -199 35 -200 40 -200 c 0
 50 -200 61 -196 68 -188 c 2
 176 -80 l 1
 266 -158 380 -200 500 -200 c 0
80 69 m 1
 213 69 l 1
 80 -63 l 1
 80 69 l 1
EndSplineSet
Validated: 41
Ligature2: "Liga-1" r e l o a d
EndChar

StartChar: reload_alt
Encoding: 57349 57349 69
Width: 999
GlyphClass: 3
Flags: MW
HStem: -199.3 80<383.7 614.9 383.7 636.95> 28.2002 80<474.4 525.6 474.4 534.8> 719.3 80<383.7 614.9>
VStem: 0 80<184.4 415.6 184.4 437.65> 918.6 80<184.4 415.6>
LayerCount: 2
Fore
SplineSet
692.200195312 492.200195312 m 1
 635.599609375 435.599609375 l 1
 671.799804688 399.400390625 691.799804688 351.200195312 691.799804688 300 c 0
 691.799804688 248.799804688 671.799804688 200.599609375 635.599609375 164.400390625 c 0
 599.399414062 128.200195312 551.200195312 108.200195312 500 108.200195312 c 0
 448.799804688 108.200195312 400.599609375 128.200195312 364.399414062 164.400390625 c 0
 328.200195312 200.599609375 308.200195312 248.799804688 308.200195312 300 c 0
 308.200195312 351.200195312 328.200195312 399.400390625 364.399414062 435.599609375 c 0
 391 462.200195312 424.099609375 479.900390625 460 487.5 c 1
 460 435.700195312 l 2
 460 419.5 469.700195312 404.900390625 484.700195312 398.700195312 c 0
 489.700195312 396.599609375 494.799804688 395.700195312 500 395.700195312 c 0
 510.399414062 395.700195312 520.599609375 399.799804688 528.299804688 407.400390625 c 2
 624.299804688 503.400390625 l 2
 639.899414062 519 639.899414062 544.299804688 624.299804688 560 c 2
 528.299804688 656 l 2
 516.899414062 667.400390625 499.700195312 670.900390625 484.700195312 664.700195312 c 0
 469.799804688 658.5 460 643.900390625 460 627.700195312 c 2
 460 568.799804688 l 1
 402.599609375 560.400390625 349.599609375 533.900390625 307.799804688 492.099609375 c 0
 201.799804688 386.099609375 201.799804688 213.700195312 307.799804688 107.700195312 c 0
 360.799804688 54.7001953125 430.399414062 28.2001953125 500 28.2001953125 c 0
 569.599609375 28.2001953125 639.200195312 54.7001953125 692.200195312 107.700195312 c 0
 798.200195312 213.799804688 798.200195312 386.200195312 692.200195312 492.200195312 c 1
499.299804688 -199.299804688 m 0
 224 -199.299804688 0 24.7001953125 0 300 c 0
 0 575.299804688 224 799.299804688 499.299804688 799.299804688 c 0
 774.599609375 799.299804688 998.599609375 575.299804688 998.599609375 300 c 0
 998.599609375 24.7001953125 774.599609375 -199.299804688 499.299804688 -199.299804688 c 0
499.299804688 719.299804688 m 0
 268.099609375 719.299804688 80 531.200195312 80 300 c 0
 80 68.7998046875 268.099609375 -119.299804688 499.299804688 -119.299804688 c 0
 730.5 -119.299804688 918.599609375 68.7998046875 918.599609375 300 c 0
 918.599609375 531.200195312 730.5 719.299804688 499.299804688 719.299804688 c 0
EndSplineSet
Validated: 41
Ligature2: "Liga-1" r e l o a d underscore a l t
EndChar

StartChar: folder
Encoding: 57350 57350 70
Width: 1000
GlyphClass: 3
Flags: MW
HStem: -139.1 80.0996<72.4502 900 100 900> 486 80<456.2 900 478.6 900 478.6 900> 637.2 80<94.5 345.1 100 345>
VStem: 0 80<-39.0996 -39 -39 617.2> 920 80<-39 466>
LayerCount: 2
Fore
SplineSet
900 -139.099609375 m 2
 100 -139.099609375 l 2
 44.900390625 -139.099609375 0 -94.2001953125 0 -39.099609375 c 2
 0 617.200195312 l 2
 0 672.299804688 44.900390625 717.200195312 100 717.200195312 c 2
 345.099609375 717.200195312 l 2
 389.700195312 717.200195312 429.299804688 687.200195312 441.400390625 644.200195312 c 2
 459.299804688 580.599609375 l 2
 461.700195312 572 469.599609375 566 478.599609375 566 c 2
 900 566 l 2
 955.099609375 566 1000 521.099609375 1000 466 c 2
 1000 -39 l 2
 1000 -94.2001953125 955.099609375 -139.099609375 900 -139.099609375 c 2
100 637.200195312 m 2
 89 637.200195312 80 628.200195312 80 617.200195312 c 2
 80 -39 l 2
 80 -50 89 -59 100 -59 c 2
 900 -59 l 2
 911 -59 920 -50 920 -39 c 2
 920 466 l 2
 920 477 911 486 900 486 c 2
 478.5 486 l 2
 433.900390625 486 394.299804688 516 382.200195312 559 c 2
 364.299804688 622.599609375 l 2
 361.900390625 631.200195312 354 637.200195312 345 637.200195312 c 2
 100 637.200195312 l 2
EndSplineSet
Validated: 1
Ligature2: "Liga-1" f o l d e r
EndChar

StartChar: folder_alt
Encoding: 57351 57351 71
Width: 856
GlyphClass: 3
Flags: MW
HStem: -200 80<72.4497 756.199 100 756.199> 720 80<94.5 605 100 605>
VStem: 0 80<-100 700> 625 80<278.5 700> 776.199 80<-100 145.1>
LayerCount: 2
Fore
SplineSet
756.19921875 -200 m 2
 100 -200 l 2
 44.8994140625 -200 0 -155.099609375 0 -100 c 2
 0 700 l 2
 0 755.099609375 44.8994140625 800 100 800 c 2
 605 800 l 2
 660.099609375 800 705 755.099609375 705 700 c 2
 705 278.5 l 2
 705 269.599609375 711 261.700195312 719.599609375 259.299804688 c 2
 783.19921875 241.400390625 l 2
 826.19921875 229.299804688 856.19921875 189.700195312 856.19921875 145.099609375 c 2
 856.19921875 -100 l 2
 856.19921875 -155.099609375 811.399414062 -200 756.19921875 -200 c 2
100 720 m 2
 89 720 80 711 80 700 c 2
 80 -100 l 2
 80 -111 89 -120 100 -120 c 2
 756.19921875 -120 l 2
 767.19921875 -120 776.19921875 -111 776.19921875 -100 c 2
 776.19921875 145.099609375 l 2
 776.19921875 154 770.19921875 161.900390625 761.599609375 164.299804688 c 2
 698 182.200195312 l 2
 655 194.299804688 625 233.900390625 625 278.5 c 2
 625 700 l 2
 625 711 616 720 605 720 c 2
 100 720 l 2
EndSplineSet
Validated: 1
Ligature2: "Liga-1" f o l d e r underscore a l t
EndChar

StartChar: display_disconnect
Encoding: 57352 57352 72
Width: 1000
GlyphClass: 3
Flags: W
LayerCount: 2
Fore
SplineSet
301.400390625 -88.7998046875 m 1
 698.700195312 -88.7998046875 l 1
 698.700195312 -8.7998046875 l 1
 301.400390625 -8.7998046875 l 1
 301.400390625 -88.7998046875 l 1
0 727.099609375 m 1
 50.599609375 680.200195312 l 1
 20.7001953125 666 0 635.599609375 0 600.400390625 c 2
 0 125.900390625 l 2
 0 77.2001953125 39.599609375 37.5 88.400390625 37.5 c 2
 693.299804688 37.5 l 1
 835.700195312 -104.900390625 l 1
 892.299804688 -48.2998046875 l 1
 56.599609375 783.599609375 l 1
 0 727.099609375 l 1
88.400390625 117.5 m 1
 83.7998046875 117.5 80 121.299804688 80 125.900390625 c 2
 80 600.400390625 l 2
 80 605 83.7998046875 608.799804688 88.400390625 608.799804688 c 2
 122 608.799804688 l 1
 613.200195312 117.599609375 l 1
 88.400390625 117.599609375 l 1
 88.400390625 117.5 l 1
911.599609375 688.799804688 m 2
 268.099609375 688.799804688 l 1
 348.099609375 608.799804688 l 1
 911.599609375 608.799804688 l 2
 916.200195312 608.799804688 920 605 920 600.400390625 c 2
 920 125.900390625 l 2
 920 121.299804688 916.200195312 117.5 911.599609375 117.5 c 2
 839.400390625 117.5 l 1
 919 37.900390625 l 1
 964.299804688 41.7001953125 1000 79.7001953125 1000 125.900390625 c 2
 1000 600.400390625 l 2
 1000 649.099609375 960.400390625 688.799804688 911.599609375 688.799804688 c 2
EndSplineSet
Validated: 9
Ligature2: "Liga-1" d i s p l a y underscore d i s c o n n e c t
EndChar

StartChar: lock
Encoding: 57353 57353 73
Width: 673
GlyphClass: 3
Flags: MW
HStem: 720 80<286.45 386.351>
VStem: 75.2002 80<473 538.8 473 538.8> 517.601 80<473 538.7 538.7 538.8 473 473>
LayerCount: 2
Fore
SplineSet
601.900390625 472.900390625 m 2
 597.600585938 472.900390625 l 1
 597.600585938 538.700195312 l 2
 597.600585938 682.799804688 480.5 800 336.400390625 800 c 0
 192.30078125 800 75.2001953125 682.799804688 75.2001953125 538.799804688 c 2
 75.2001953125 473 l 1
 70.900390625 473 l 2
 31.80078125 473 0 441.200195312 0 402.099609375 c 2
 0 -129 l 2
 0 -168.099609375 31.80078125 -199.900390625 70.900390625 -199.900390625 c 2
 602 -199.900390625 l 2
 641.100585938 -199.900390625 672.900390625 -168.099609375 672.900390625 -129 c 2
 672.900390625 402 l 2
 672.900390625 441.099609375 641 472.900390625 601.900390625 472.900390625 c 2
155.200195312 538.799804688 m 2
 155.200195312 638.700195312 236.5 720 336.400390625 720 c 0
 436.30078125 720 517.600585938 638.700195312 517.600585938 538.799804688 c 2
 517.600585938 473 l 1
 155.200195312 473 l 1
 155.200195312 538.799804688 l 2
592.900390625 -120 m 1
 79.900390625 -120 l 1
 79.900390625 392.900390625 l 1
 592.80078125 392.900390625 l 1
 592.80078125 -120 l 1
 592.900390625 -120 l 1
296.400390625 21.099609375 m 1
 376.400390625 21.099609375 l 1
 376.400390625 251.900390625 l 1
 296.400390625 251.900390625 l 1
 296.400390625 21.099609375 l 1
EndSplineSet
Validated: 5
Ligature2: "Liga-1" l o c k
EndChar

StartChar: add_lock
Encoding: 57354 57354 74
Width: 673
GlyphClass: 3
Flags: MW
HStem: 720 80<286 360>
VStem: 75 80<473 539 473 539>
LayerCount: 2
Fore
SplineSet
480 187 m 1
 386 187 l 1
 386 281 l 1
 286 281 l 1
 286 187 l 1
 192 187 l 1
 192 86 l 1
 286 86 l 1
 286 -8 l 1
 386 -8 l 1
 386 86 l 1
 480 86 l 1
 480 187 l 1
602 473 m 2
 155 473 l 1
 155 539 l 2
 155 639 236 720 336 720 c 0
 384 720 430 701 464 667 c 1
 521 724 l 1
 471 773 406 800 336 800 c 0
 192 800 75 683 75 539 c 2
 75 473 l 1
 71 473 l 2
 32 473 0 441 0 402 c 2
 0 -129 l 2
 0 -168 32 -200 71 -200 c 2
 602 -200 l 2
 641 -200 673 -168 673 -129 c 2
 673 402 l 2
 672 441 641 473 602 473 c 2
592 -120 m 1
 80 -120 l 1
 80 393 l 1
 593 393 l 1
 593 -120 l 1
 592 -120 l 1
EndSplineSet
Validated: 9
Ligature2: "Liga-1" a d d underscore l o c k
EndChar

StartChar: disable_lock
Encoding: 57355 57355 75
Width: 673
GlyphClass: 3
Flags: MW
HStem: 720 80<286 360>
VStem: 75 80<473 539 473 539>
LayerCount: 2
Fore
SplineSet
602 473 m 2
 155 473 l 1
 155 539 l 2
 155 639 236 720 336 720 c 0
 384 720 430 701 464 667 c 1
 521 724 l 1
 471 773 406 800 336 800 c 0
 192 800 75 683 75 539 c 2
 75 473 l 1
 71 473 l 2
 32 473 0 441 0 402 c 2
 0 -129 l 2
 0 -168 32 -200 71 -200 c 2
 602 -200 l 2
 641 -200 673 -168 673 -129 c 2
 673 402 l 2
 672 441 641 473 602 473 c 2
592 -120 m 1
 80 -120 l 1
 80 393 l 1
 593 393 l 1
 593 -120 l 1
 592 -120 l 1
192 87 m 1
 481 87 l 1
 481 187 l 1
 192 187 l 1
 192 87 l 1
EndSplineSet
Validated: 9
Ligature2: "Liga-1" d i s a b l e underscore l o c k
EndChar

StartChar: lock_open
Encoding: 57360 57360 76
Width: 673
GlyphClass: 3
Flags: MW
HStem: 720 80<286.45 360.601>
VStem: 75.2002 80<473 538.7 538.7 538.8 473 473>
LayerCount: 2
Fore
SplineSet
296.400390625 21.099609375 m 1
 376.400390625 21.099609375 l 1
 376.400390625 251.900390625 l 1
 296.400390625 251.900390625 l 1
 296.400390625 21.099609375 l 1
601.900390625 472.900390625 m 2
 155.200195312 472.900390625 l 1
 155.200195312 538.700195312 l 2
 155.200195312 638.700195312 236.5 720 336.400390625 720 c 0
 384.80078125 720 430.30078125 701.099609375 464.600585938 666.900390625 c 1
 521.200195312 723.5 l 1
 471.80078125 772.799804688 406.200195312 800 336.400390625 800 c 0
 192.30078125 800 75.2001953125 682.799804688 75.2001953125 538.799804688 c 2
 75.2001953125 473 l 1
 70.900390625 473 l 2
 31.80078125 473 0 441.200195312 0 402.099609375 c 2
 0 -129 l 2
 0 -168.099609375 31.80078125 -199.900390625 70.900390625 -199.900390625 c 2
 602 -199.900390625 l 2
 641.100585938 -199.900390625 672.900390625 -168.099609375 672.900390625 -129 c 2
 672.900390625 402 l 2
 672.900390625 441.099609375 641 472.900390625 601.900390625 472.900390625 c 2
592.900390625 -120 m 1
 79.900390625 -120 l 1
 79.900390625 392.900390625 l 1
 592.80078125 392.900390625 l 1
 592.80078125 -120 l 1
 592.900390625 -120 l 1
EndSplineSet
Validated: 5
Ligature2: "Liga-1" l o c k underscore o p e n
EndChar

StartChar: account_add
Encoding: 57361 57361 77
Width: 1000
GlyphClass: 3
Flags: MW
HStem: -200 80<685.1 774.8 664.25 796.9> -138.6 79.8994<469.3 470.4 469.3 480.9> 155.2 80.0996<333.8 449.2 449.2 449.2> 281 80<670.75 744.75 670.75 774.8> 302.2 79.8994<450.85 487.75 450.85 509.8> 515.9 80.0996<450.85 487.75> 720 80<361.95 576.65>
VStem: 0 80<277.6 438.05 277.6 460.1> 191.9 80<57.9004 93.2998 93.2998 93.4004 57.9004 57.9004> 322.4 80<430.55 467.45 430.55 489.6> 439 80<55.1504 93.3501> 536.2 80<430.55 467.45> 858.6 80<329.6 438.05> 920 80<25.25 114.95 3.1499 135.75>
LayerCount: 2
Fore
SplineSet
469.299804688 302.200195312 m 0x2ff0
 388.299804688 302.200195312 322.400390625 368.099609375 322.400390625 449.099609375 c 0
 322.400390625 530.099609375 388.299804688 596 469.299804688 596 c 0
 550.299804688 596 616.200195312 530 616.200195312 449 c 0
 616.200195312 368.099609375 550.299804688 302.200195312 469.299804688 302.200195312 c 0x2ff0
469.299804688 515.900390625 m 0
 432.400390625 515.900390625 402.400390625 485.900390625 402.400390625 449 c 0
 402.400390625 412.099609375 432.400390625 382.099609375 469.299804688 382.099609375 c 0
 506.200195312 382.099609375 536.200195312 412.099609375 536.200195312 449 c 0
 536.200195312 485.900390625 506.200195312 515.900390625 469.299804688 515.900390625 c 0
933.5 261.5 m 1
 936.900390625 284.299804688 938.599609375 307.5 938.599609375 330.700195312 c 0
 938.599609375 589.5 728.099609375 800 469.299804688 800 c 0
 210.5 800 0 589.5 0 330.700195312 c 0
 0 71.900390625 210.5 -138.599609375 469.299804688 -138.599609375 c 0x67f8
 492.5 -138.599609375 515.599609375 -136.900390625 538.5 -133.5 c 1
 587.400390625 -175 650.599609375 -200 719.599609375 -200 c 0
 874.200195312 -200 1000 -74.2001953125 1000 80.5 c 0xa7f4
 1000 149.400390625 974.900390625 212.599609375 933.5 261.5 c 1
191.900390625 93.400390625 m 2
 191.900390625 57.900390625 l 1
 122.799804688 128.200195312 80 224.5 80 330.700195312 c 0
 80 545.400390625 254.599609375 720 469.299804688 720 c 0
 684 720 858.599609375 545.400390625 858.599609375 330.700195312 c 0
 858.599609375 328.5 858.5 326.200195312 858.400390625 324 c 1
 817.400390625 347.5 770 361 719.5 361 c 0x37f8
 622 361 536.099609375 311 485.799804688 235.299804688 c 1
 333.799804688 235.299804688 l 2
 255.599609375 235.299804688 191.900390625 171.599609375 191.900390625 93.400390625 c 2
271.900390625 -4.7001953125 m 1
 271.900390625 93.2998046875 l 2
 271.900390625 127.400390625 299.700195312 155.200195312 333.799804688 155.200195312 c 2
 449.200195312 155.200195312 l 1
 442.599609375 131.400390625 439 106.299804688 439 80.400390625 c 0
 439 29.900390625 452.5 -17.5 476 -58.5 c 1
 473.799804688 -58.5 471.5 -58.7001953125 469.299804688 -58.7001953125 c 0x67f0
 397.299804688 -58.599609375 329.900390625 -38.900390625 271.900390625 -4.7001953125 c 1
719.5 -120 m 0xb7f4
 609 -120 519 -30.099609375 519 80.5 c 0
 519 191.099609375 608.900390625 281 719.5 281 c 0
 830.099609375 281 920 191 920 80.5 c 0
 920 -30 830.099609375 -120 719.5 -120 c 0xb7f4
855.5 120.5 m 1
 759.5 120.5 l 1
 759.5 216.400390625 l 1
 679.5 216.400390625 l 1
 679.5 120.5 l 1
 583.599609375 120.5 l 1
 583.599609375 40.5 l 1
 679.5 40.5 l 1
 679.5 -55.5 l 1
 759.5 -55.5 l 1
 759.5 40.5 l 1
 855.5 40.5 l 1
 855.5 120.5 l 1
EndSplineSet
Validated: 9
Ligature2: "Liga-1" u s e r underscore a d d
Ligature2: "Liga-1" a d d underscore u s e r
Ligature2: "Liga-1" a c c o u n t underscore a d d
EndChar

StartChar: account_delete
Encoding: 57362 57362 78
Width: 1000
GlyphClass: 3
Flags: MW
HStem: -200 80<685.1 774.8 664.25 796.9> -138.6 79.8994<469.3 470.4 469.3 480.9> 155.2 80.0996<333.8 449.2 449.2 449.2> 281 80<670.75 744.75 670.75 774.8> 302.2 79.8994<450.85 487.75 450.85 509.8> 515.9 80.0996<450.85 487.75> 720 80<361.95 576.65>
VStem: 0 80<277.6 438.05 277.6 460.1> 191.9 80<57.9004 93.2998 93.2998 93.4004 57.9004 57.9004> 322.4 80<430.55 467.45 430.55 489.6> 439 80<55.1504 93.3501> 536.2 80<430.55 467.45> 858.6 80<329.6 438.05> 920 80<25.25 114.95 3.1499 135.75>
LayerCount: 2
Fore
SplineSet
469.299804688 302.200195312 m 0x2ff0
 388.299804688 302.200195312 322.400390625 368.099609375 322.400390625 449.099609375 c 0
 322.400390625 530.099609375 388.299804688 596 469.299804688 596 c 0
 550.299804688 596 616.200195312 530 616.200195312 449 c 0
 616.200195312 368.099609375 550.299804688 302.200195312 469.299804688 302.200195312 c 0x2ff0
469.299804688 515.900390625 m 0
 432.400390625 515.900390625 402.400390625 485.900390625 402.400390625 449 c 0
 402.400390625 412.099609375 432.400390625 382.099609375 469.299804688 382.099609375 c 0
 506.200195312 382.099609375 536.200195312 412.099609375 536.200195312 449 c 0
 536.200195312 485.900390625 506.200195312 515.900390625 469.299804688 515.900390625 c 0
933.5 261.5 m 1
 936.900390625 284.299804688 938.599609375 307.5 938.599609375 330.700195312 c 0
 938.599609375 589.5 728.099609375 800 469.299804688 800 c 0
 210.5 800 0 589.5 0 330.700195312 c 0
 0 71.900390625 210.5 -138.599609375 469.299804688 -138.599609375 c 0x67f8
 492.5 -138.599609375 515.599609375 -136.900390625 538.5 -133.5 c 1
 587.400390625 -175 650.599609375 -200 719.599609375 -200 c 0
 874.200195312 -200 1000 -74.2001953125 1000 80.5 c 0xa7f4
 1000 149.400390625 974.900390625 212.599609375 933.5 261.5 c 1
191.900390625 93.400390625 m 2
 191.900390625 57.900390625 l 1
 122.799804688 128.200195312 80 224.5 80 330.700195312 c 0
 80 545.400390625 254.599609375 720 469.299804688 720 c 0
 684 720 858.599609375 545.400390625 858.599609375 330.700195312 c 0
 858.599609375 328.5 858.5 326.200195312 858.400390625 324 c 1
 817.400390625 347.5 770 361 719.5 361 c 0x37f8
 622 361 536.099609375 311 485.799804688 235.299804688 c 1
 333.799804688 235.299804688 l 2
 255.599609375 235.299804688 191.900390625 171.599609375 191.900390625 93.400390625 c 2
271.900390625 -4.7001953125 m 1
 271.900390625 93.2998046875 l 2
 271.900390625 127.400390625 299.700195312 155.200195312 333.799804688 155.200195312 c 2
 449.200195312 155.200195312 l 1
 442.599609375 131.400390625 439 106.299804688 439 80.400390625 c 0
 439 29.900390625 452.5 -17.5 476 -58.5 c 1
 473.799804688 -58.5 471.5 -58.7001953125 469.299804688 -58.7001953125 c 0x67f0
 397.299804688 -58.599609375 329.900390625 -38.900390625 271.900390625 -4.7001953125 c 1
719.5 -120 m 0xb7f4
 609 -120 519 -30.099609375 519 80.5 c 0
 519 191.099609375 608.900390625 281 719.5 281 c 0
 830.099609375 281 920 191 920 80.5 c 0
 920 -30 830.099609375 -120 719.5 -120 c 0xb7f4
583.599609375 40.5 m 1
 855.5 40.5 l 1
 855.5 120.5 l 1
 583.599609375 120.5 l 1
 583.599609375 40.5 l 1
EndSplineSet
Validated: 9
Ligature2: "Liga-1" u s e r underscore d e l e t e
Ligature2: "Liga-1" d e l e t e underscore u s e r
Ligature2: "Liga-1" a c c o u n t underscore d e l e t e
EndChar

StartChar: connect
Encoding: 57363 57363 79
Width: 1000
GlyphClass: 3
Flags: MW
HStem: -200 80<384 616 384 638> 720 80<384 616>
VStem: 0 80<184 416 184 438> 920 80<184 416>
LayerCount: 2
Fore
SplineSet
500 -200 m 0
 224 -200 0 24 0 300 c 0
 0 576 224 800 500 800 c 0
 776 800 1000 576 1000 300 c 0
 1000 24 776 -200 500 -200 c 0
500 720 m 0
 268 720 80 532 80 300 c 0
 80 68 268 -120 500 -120 c 0
 732 -120 920 68 920 300 c 0
 920 532 732 720 500 720 c 0
698 260 m 1
 398 557 l 1
 531 340 l 1
 302 340 l 1
 602 43 l 1
 469 260 l 1
 698 260 l 1
EndSplineSet
Validated: 9
Ligature2: "Liga-1" c o n n e c t
EndChar

StartChar: connect_cancel
Encoding: 57364 57364 80
Width: 1000
GlyphClass: 3
Flags: MW
HStem: -200 80<384 550.5 384 638> 720 80<449.5 616>
VStem: 0 80<184 350.5 184 438> 920 80<249.5 416>
LayerCount: 2
Fore
SplineSet
602 260 m 1
 698 260 l 1
 633 325 l 1
 398 557 l 1
 531 340 l 1
 398 340 l 1
 302 340 l 1
 367 275 l 1
 602 43 l 1
 469 260 l 1
 602 260 l 1
500 800 m 0
 224 800 0 576 0 300 c 0
 0 24 224 -200 500 -200 c 0
 776 -200 1000 24 1000 300 c 0
 1000 576 776 800 500 800 c 0
80 300 m 0
 80 401 116 495 176 567 c 1
 767 -24 l 1
 695 -84 601 -120 500 -120 c 0
 268 -120 80 68 80 300 c 0
824 33 m 1
 233 624 l 1
 305 684 399 720 500 720 c 0
 732 720 920 532 920 300 c 0
 920 199 884 105 824 33 c 1
EndSplineSet
Validated: 5
Ligature2: "Liga-1" c o n n e c t underscore c a n c e l
EndChar

StartChar: tv
Encoding: 57365 57365 81
Width: 999
GlyphClass: 3
Flags: MW
HStem: 38 80<63.5 911 88 911 911 912> 608 80<88 911 88 911>
VStem: 0 80<126 600> 919 80<126 600 126 602.5>
LayerCount: 2
Fore
SplineSet
912 38 m 2
 88 38 l 2
 39 38 0 78 0 126 c 2
 0 600 l 2
 0 649 40 688 88 688 c 2
 911 688 l 2
 960 688 999 648 999 600 c 2
 999 126 l 2
 1000 77 960 38 912 38 c 2
88 609 m 1
 84 609 80 605 80 600 c 2
 80 126 l 2
 80 121 84 118 88 118 c 2
 911 118 l 2
 916 118 919 122 919 126 c 2
 919 600 l 2
 919 605 915 608 911 608 c 2
 88 608 l 1
 88 609 l 1
301 -89 m 1
 698 -89 l 1
 698 -9 l 1
 301 -9 l 1
 301 -89 l 1
EndSplineSet
Validated: 41
Ligature2: "Liga-1" t v
Ligature2: "Liga-1" d i s p l a y
EndChar

StartChar: api_connect
Encoding: 57366 57366 82
Width: 1000
GlyphClass: 3
Flags: MW
HStem: 586 81<680.5 705.5>
VStem: 133 81<94.5 119.5 94.5 130.5>
LayerCount: 2
Fore
SplineSet
1000 743 m 1
 943 800 l 1
 784 641 l 1
 757 658 726 667 693 667 c 0
 647 667 603 649 570 616 c 2
 476 522 l 2
 460 506 460 481 476 465 c 2
 665 276 l 2
 673 268 683 264 693 264 c 0
 703 264 714 268 721 276 c 2
 815 370 l 2
 873 428 881 517 840 584 c 1
 1000 743 l 1
759 427 m 2
 693 361 l 1
 561 493 l 1
 627 559 l 2
 645 577 668 586 693 586 c 0
 718 586 741 576 759 559 c 0
 796 523 796 464 759 427 c 2
515 144 m 1
 591 220 l 1
 534 277 l 1
 458 201 l 1
 401 258 l 1
 477 334 l 1
 420 391 l 1
 344 315 l 1
 335 324 l 2
 319 340 294 340 278 324 c 2
 184 230 l 2
 151 197 133 154 133 107 c 0
 133 74 142 43 159 16 c 1
 0 -143 l 1
 57 -200 l 1
 216 -41 l 1
 244 -58 275 -67 307 -67 c 0
 351 -67 396 -50 430 -16 c 2
 524 78 l 2
 532 86 536 96 536 106 c 0
 536 116 532 127 524 134 c 2
 515 144 l 1
373 41 m 2
 337 5 277 5 241 41 c 0
 223 59 214 82 214 107 c 0
 214 132 224 155 241 173 c 2
 307 239 l 1
 439 107 l 1
 373 41 l 2
EndSplineSet
Validated: 41
Ligature2: "Liga-1" a p i underscore c o n n e c t
EndChar

StartChar: bookmark
Encoding: 57367 57367 83
Width: 763
GlyphClass: 3
Flags: MW
HStem: 721 79<123 624 139 623>
VStem: 0 80<-67 -65 -65 657 657 658> 682 81<-65 657 -67 658 -67 675.5>
LayerCount: 2
Fore
SplineSet
623 -200 m 0
 581 -200 540 -181 513 -146 c 2
 381 26 l 1
 249 -146 l 2
 222 -181 182 -200 139 -200 c 0
 124 -200 109 -198 94 -193 c 0
 38 -175 1 -125 0 -67 c 2
 0 657 l 2
 0 736 62 800 139 800 c 2
 624 800 l 2
 701 800 763 736 763 657 c 2
 763 -67 l 2
 762 -126 725 -175 669 -193 c 0
 653 -198 638 -200 623 -200 c 0
381 116 m 0
 401 116 420 107 433 91 c 2
 577 -96 l 2
 593 -117 618 -124 643 -116 c 0
 666 -108 681 -88 682 -65 c 2
 682 658 l 2
 682 693 656 721 623 721 c 2
 139 721 l 2
 107 721 80 693 80 658 c 2
 80 -65 l 2
 80 -88 95 -108 119 -116 c 0
 144 -124 170 -116 185 -96 c 2
 329 90 l 2
 342 106 361 116 381 116 c 0
EndSplineSet
Validated: 33
Ligature2: "Liga-1" b o o k m a r k
EndChar

StartChar: star
Encoding: 57368 57368 84
Width: 1000
GlyphClass: 3
Flags: MW
VStem: 723.491 79<141 152>
LayerCount: 2
Fore
SplineSet
758.491210938 -200 m 0
 745.491210938 -200 733.491210938 -197 721.491210938 -191 c 2
 499.491210938 -76 l 1
 277.491210938 -191 l 2
 250.491210938 -205 219.491210938 -203 194.491210938 -185 c 0
 168.491210938 -167 155.491210938 -136 160.491210938 -105 c 2
 196.491210938 152 l 2
 196.491210938 154 196.491210938 155 195.491210938 156 c 2
 22.4912109375 341 l 2
 1.4912109375 364 -5.5087890625 396 4.4912109375 425 c 0
 14.4912109375 454 38.4912109375 475 67.4912109375 480 c 2
 311.491210938 524 l 1
 311.491210938 524 312.491210938 524 312.491210938 525 c 2
 427.491210938 755 l 2
 441.491210938 783 468.491210938 800 499.491210938 800 c 0
 530.491210938 800 557.491210938 783 571.491210938 755 c 2
 686.491210938 525 l 2
 686.491210938 524 687.491210938 524 687.491210938 524 c 1
 932.491210938 480 l 2
 961.491210938 475 985.491210938 454 995.491210938 425 c 0
 1005.49121094 396 998.491210938 363 977.491210938 341 c 2
 803.491210938 155 l 2
 802.491210938 154 802.491210938 153 802.491210938 151 c 2
 838.491210938 -106 l 2
 842.491210938 -137 829.491210938 -168 804.491210938 -186 c 0
 790.491210938 -195 774.491210938 -200 758.491210938 -200 c 0
499.491210938 720 m 1
 498.491210938 719 l 1
 383.491210938 489 l 2
 371.491210938 466 350.491210938 450 325.491210938 445 c 2
 80.4912109375 402 l 1
 80.4912109375 402 79.4912109375 401 79.4912109375 399 c 0
 79.4912109375 397 80.4912109375 396 80.4912109375 396 c 1
 253.491210938 210 l 2
 270.491210938 191 278.491210938 166 275.491210938 141 c 2
 239.491210938 -116 l 2
 239.491210938 -119 241.491210938 -120 241.491210938 -120 c 1
 463.491210938 -5 l 2
 486.491210938 7 513.491210938 7 536.491210938 -5 c 2
 758.491210938 -120 l 1
 758.491210938 -120 760.491210938 -119 759.491210938 -116 c 2
 723.491210938 141 l 2
 719.491210938 166 727.491210938 192 745.491210938 210 c 2
 918.491210938 396 l 1
 918.491210938 396 919.491210938 397 919.491210938 399 c 0
 919.491210938 401 918.491210938 402 918.491210938 402 c 1
 674.491210938 446 l 2
 649.491210938 450 627.491210938 467 616.491210938 490 c 2
 501.491210938 720 l 1
 499.491210938 720 l 1
EndSplineSet
Validated: 33
Ligature2: "Liga-1" s t a r
EndChar

StartChar: sdcard
Encoding: 57369 57369 85
Width: 808
GlyphClass: 3
Flags: MW
HStem: -200 80<100 132 212 252 332 372 452 492 572 605> 720 80<99 100 100 708>
VStem: 0 79<-127.5 700 -100 700> 625 80<-105.5 367 -100 367> 728 80<486 700 491 700 491 700>
LayerCount: 2
Fore
SplineSet
708 800 m 2
 100 800 l 2
 45 800 0 755 0 700 c 2
 0 -100 l 2
 0 -155 45 -200 100 -200 c 2
 605 -200 l 2
 660 -200 705 -155 705 -100 c 2
 705 367 l 2
 705 375 710 382 717 386 c 2
 746 398 l 2
 784 413 808 450 808 491 c 2
 808 700 l 2
 808 755 763 800 708 800 c 2
728 490 m 2
 728 482 723 475 716 471 c 2
 687 460 l 2
 649 445 625 408 625 367 c 2
 625 -100 l 2
 625 -111 616 -120 605 -120 c 2
 572 -120 l 1
 572 39 l 1
 492 39 l 1
 492 -120 l 1
 452 -120 l 1
 452 39 l 1
 372 39 l 1
 372 -120 l 1
 332 -120 l 1
 332 39 l 1
 252 39 l 1
 252 -120 l 1
 212 -120 l 1
 212 39 l 1
 132 39 l 1
 132 -120 l 1
 99 -120 l 2
 88 -120 79 -111 79 -100 c 2
 79 700 l 2
 79 711 88 720 99 720 c 2
 708 720 l 2
 719 720 728 711 728 700 c 2
 728 490 l 2
EndSplineSet
Validated: 9
Ligature2: "Liga-1" s d c a r d
EndChar

StartChar: next
Encoding: 57370 57370 86
Width: 1000
GlyphClass: 3
Flags: MW
HStem: 490 80<384 549.5>
VStem: 0 80<70 186 70 208>
LayerCount: 2
Fore
SplineSet
975 567 m 0
 960 573 943 570 931 558 c 2
 824 451 l 1
 734 528 620 570 500 570 c 0
 224 570 0 346 0 70 c 1
 80 70 l 1
 80 302 268 490 500 490 c 0
 599 490 692 456 767 394 c 1
 662 289 l 2
 651 278 647 260 653 245 c 0
 659 230 674 220 690 220 c 2
 960 220 l 2
 982 220 1000 238 1000 260 c 2
 1000 530 l 2
 1000 546 990 561 975 567 c 0
920 301 m 1
 787 301 l 1
 920 433 l 1
 920 301 l 1
EndSplineSet
Validated: 41
Ligature2: "Liga-1" n e x t
EndChar

StartChar: next_alt
Encoding: 57371 57371 87
Width: 1000
GlyphClass: 3
Flags: MW
HStem: 30 80<384 549.5 384 560>
VStem: 0 80<414 530 414 530>
LayerCount: 2
Fore
SplineSet
960 379 m 2
 691 379 l 2
 675 379 660 369 654 354 c 0
 648 339 651 322 663 310 c 2
 768 205 l 1
 692 144 599 110 500 110 c 0
 268 110 80 298 80 530 c 1
 0 530 l 1
 0 254 224 30 500 30 c 0
 620 30 734 72 824 149 c 1
 932 41 l 2
 939 34 950 30 960 30 c 0
 965 30 970 31 975 33 c 0
 990 39 1000 54 1000 70 c 2
 1000 339 l 2
 1000 362 982 379 960 379 c 2
920 167 m 1
 787 299 l 1
 920 299 l 1
 920 167 l 1
EndSplineSet
Validated: 41
Ligature2: "Liga-1" n e x t underscore a l t
EndChar

StartChar: previous
Encoding: 57372 57372 88
Width: 1000
GlyphClass: 3
Flags: MW
HStem: 490 80<450.5 616>
VStem: 920 80<70 186>
LayerCount: 2
Fore
SplineSet
500 570 m 0
 380 570 266 528 176 451 c 1
 68 558 l 2
 57 570 40 573 25 567 c 0
 10 561 0 546 0 530 c 2
 0 261 l 2
 0 239 18 221 40 221 c 2
 309 221 l 2
 325 221 340 231 346 246 c 0
 352 261 349 278 337 290 c 2
 233 394 l 1
 308 456 401 490 500 490 c 0
 732 490 920 302 920 70 c 1
 1000 70 l 1
 1000 346 776 570 500 570 c 0
80 301 m 1
 80 433 l 1
 213 300 l 1
 80 300 l 1
 80 301 l 1
EndSplineSet
Validated: 41
Ligature2: "Liga-1" p r e v i o u s
EndChar

StartChar: previous_alt
Encoding: 57373 57373 89
Width: 1000
GlyphClass: 3
Flags: MW
HStem: 30 80<450.5 616 450.5 638>
VStem: 920 80<414 530>
LayerCount: 2
Fore
SplineSet
920 530 m 1
 920 298 732 110 500 110 c 0
 401 110 308 144 233 206 c 1
 338 311 l 2
 349 322 353 340 347 355 c 0
 341 370 326 380 310 380 c 2
 40 380 l 2
 18 380 0 362 0 340 c 2
 0 70 l 2
 0 54 10 39 25 33 c 0
 30 31 35 30 40 30 c 0
 50 30 61 34 68 42 c 2
 176 150 l 1
 266 72 380 30 500 30 c 0
 776 30 1000 254 1000 530 c 1
 920 530 l 1
80 167 m 1
 80 299 l 1
 213 299 l 1
 80 167 l 1
EndSplineSet
Validated: 41
Ligature2: "Liga-1" p r e v i o u s underscore a l t
EndChar

StartChar: document
Encoding: 57374 57374 90
Width: 837
GlyphClass: 3
Flags: MW
HStem: -200 80<54 758 80 758 80 763> 720 80<80 758 80 80>
VStem: 0 80<-120 -120 -120 720> 758 79<-120 720 720 720>
LayerCount: 2
Fore
SplineSet
763 -200 m 2
 75 -200 l 2
 33 -200 0 -166 0 -125 c 2
 0 725 l 2
 0 767 34 800 75 800 c 2
 762 800 l 2
 804 800 837 766 837 725 c 2
 837 -124 l 2
 838 -166 804 -200 763 -200 c 2
80 -120 m 1
 758 -120 l 1
 758 720 l 1
 80 720 l 1
 80 -120 l 1
158 556 m 1
 681 556 l 1
 681 636 l 1
 158 636 l 1
 158 556 l 1
158 405 m 1
 452 405 l 1
 452 485 l 1
 158 485 l 1
 158 405 l 1
EndSplineSet
Validated: 41
Ligature2: "Liga-1" d o c u m e n t
EndChar

StartChar: picture
Encoding: 57375 57375 91
Width: 999
GlyphClass: 3
Flags: MW
HStem: -200 80<54.5 920 80 920 80 925> 85 80<190.5 759 241 759 241 798> 559 80<241 759 241 241> 720 80<80 920 80 80>
VStem: 0 80<-120 -120 -120 720> 161 80<165 165 165 559> 759 80<165 559 559 559> 920 79<-120 720 720 720>
LayerCount: 2
Fore
SplineSet
925 -200 m 2
 75 -200 l 2
 34 -200 0 -166 0 -125 c 2
 0 725 l 2
 0 766 34 800 75 800 c 2
 924 800 l 2
 966 800 999 766 999 725 c 2
 999 -124 l 2
 1000 -166 966 -200 925 -200 c 2
80 -120 m 1
 920 -120 l 1
 920 720 l 1
 80 720 l 1
 80 -120 l 1
798 85 m 2
 202 85 l 2
 179 85 161 103 161 126 c 2
 161 598 l 2
 161 621 179 639 202 639 c 2
 798 639 l 2
 821 639 839 621 839 598 c 2
 839 126 l 2
 839 103 820 85 798 85 c 2
241 165 m 1
 759 165 l 1
 759 559 l 1
 241 559 l 1
 241 165 l 1
EndSplineSet
Validated: 33
Ligature2: "Liga-1" p i c t u r e
EndChar

StartChar: music
Encoding: 57376 57376 92
Width: 724
GlyphClass: 3
Flags: MW
HStem: -201 81<192.5 278 192.5 299.5> 190 79<192.5 264.5 170.5 277.5>
VStem: 0 80<-8 77.5 -8 99> 390 80<34 78 211 614 694 800 211 211>
LayerCount: 2
Fore
SplineSet
724 694 m 1
 470 694 l 1
 470 800 l 1
 390 800 l 1
 390 211 l 1
 349 247 294 269 235 269 c 0
 106 269 0 164 0 34 c 0
 0 -95 105 -201 235 -201 c 0
 364 -201 470 -96 470 34 c 2
 470 614 l 1
 724 614 l 1
 724 694 l 1
235 -120 m 0
 150 -120 80 -51 80 35 c 0
 80 120 150 190 235 190 c 0
 320 190 390 121 390 35 c 0
 390 -51 321 -120 235 -120 c 0
EndSplineSet
Validated: 9
Ligature2: "Liga-1" m u s i c
EndChar

StartChar: fast_backward
Encoding: 57377 57377 93
Width: 998
GlyphClass: 3
Flags: W
LayerCount: 2
Fore
SplineSet
962 586 m 0
 938 600 909 600 885 586 c 2
 532 381 l 1
 532 520 l 2
 532 548 518 573 494 586 c 0
 470 600 441 600 417 586 c 2
 38 366 l 2
 14 352 0 328 0 300 c 0
 0 272 14 248 38 234 c 2
 417 14 l 2
 429 7 442 4 455 4 c 0
 468 4 481 7 493 14 c 0
 517 28 531 53 531 80 c 2
 531 219 l 1
 884 14 l 2
 896 7 909 4 922 4 c 0
 935 4 948 7 960 14 c 0
 984 28 998 53 998 80 c 2
 998 520 l 2
 1000 547 986 572 962 586 c 0
452 86 m 1
 83 300 l 1
 452 514 l 1
 452 86 l 1
920 86 m 1
 551 300 l 1
 920 514 l 1
 920 86 l 1
EndSplineSet
Validated: 41
Ligature2: "Liga-1" f a s t underscore b a c k w a r d
EndChar

StartChar: play
Encoding: 57378 57378 94
Width: 883
GlyphClass: 3
Flags: MW
VStem: 0 80<-116 716 -116 725 -116 738.5>
LayerCount: 2
Fore
SplineSet
75 -200 m 0
 62 -200 49 -197 38 -190 c 0
 15 -176 0 -152 0 -125 c 2
 0 725 l 2
 0 752 14 776 38 790 c 0
 61 804 89 803 113 790 c 2
 846 365 l 2
 869 351 883 327 883 300 c 0
 883 273 869 249 846 235 c 2
 112 -190 l 2
 100 -197 87 -200 75 -200 c 0
80 716 m 1
 80 -116 l 1
 797 300 l 1
 80 716 l 1
805 304 m 1024
EndSplineSet
Validated: 33
Ligature2: "Liga-1" p l a y
EndChar

StartChar: pause
Encoding: 57379 57379 95
Width: 936
GlyphClass: 3
Flags: MW
HStem: -200 80<72.5 269 100 269 667 836> 720 80<94.5 269 100 269 667 836>
VStem: 0 80<-100 700> 289 80<-100 700> 567 80<-100 700> 856 80<-100 700>
LayerCount: 2
Fore
SplineSet
269 -200 m 2
 100 -200 l 2
 45 -200 0 -155 0 -100 c 2
 0 700 l 2
 0 755 45 800 100 800 c 2
 269 800 l 2
 324 800 369 755 369 700 c 2
 369 -100 l 2
 369 -155 324 -200 269 -200 c 2
100 720 m 2
 89 720 80 711 80 700 c 2
 80 -100 l 2
 80 -111 89 -120 100 -120 c 2
 269 -120 l 2
 280 -120 289 -111 289 -100 c 2
 289 700 l 2
 289 711 280 720 269 720 c 2
 100 720 l 2
836 -200 m 2
 667 -200 l 2
 612 -200 567 -155 567 -100 c 2
 567 700 l 2
 567 755 612 800 667 800 c 2
 836 800 l 2
 891 800 936 755 936 700 c 2
 936 -100 l 2
 936 -155 892 -200 836 -200 c 2
667 720 m 2
 656 720 647 711 647 700 c 2
 647 -100 l 2
 647 -111 656 -120 667 -120 c 2
 836 -120 l 2
 847 -120 856 -111 856 -100 c 2
 856 700 l 2
 856 711 847 720 836 720 c 2
 667 720 l 2
EndSplineSet
Validated: 1
Ligature2: "Liga-1" p a u s e
EndChar

StartChar: pause_stroke
Encoding: 57380 57380 96
Width: 490
GlyphClass: 3
Flags: W
LayerCount: 2
Fore
SplineSet
0 -200 m 1
 80 -200 l 1
 80 800 l 1
 0 800 l 1
 0 -200 l 1
410 -200 m 1
 490 -200 l 1
 490 800 l 1
 410 800 l 1
 410 -200 l 1
EndSplineSet
Validated: 9
Ligature2: "Liga-1" p a u s e underscore a l t
EndChar

StartChar: fast_forward
Encoding: 57381 57381 97
Width: 998
GlyphClass: 3
Flags: W
LayerCount: 2
Fore
SplineSet
962 366 m 2
 583 586 l 2
 559 600 530 600 506 586 c 0
 482 572 468 547 468 520 c 2
 468 382 l 1
 115 586 l 2
 91 600 62 600 38 586 c 0
 14 572 0 547 0 520 c 2
 0 80 l 2
 0 52 14 27 38 14 c 0
 50 7 63 4 76 4 c 0
 89 4 102 7 114 14 c 2
 467 219 l 1
 467 80 l 2
 467 52 481 27 505 14 c 0
 517 7 530 4 543 4 c 0
 556 4 569 7 581 14 c 2
 960 234 l 2
 984 248 998 273 998 300 c 0
 998 327 986 352 962 366 c 2
80 86 m 1
 80 514 l 1
 449 300 l 1
 80 86 l 1
548 86 m 1
 548 514 l 1
 917 300 l 1
 548 86 l 1
EndSplineSet
Validated: 41
Ligature2: "Liga-1" f a s t underscore f o r w a r d
EndChar

StartChar: display_add
Encoding: 57382 57382 98
Width: 1000
GlyphClass: 3
Flags: MW
HStem: -88 79<692 775 664.5 797.5> 391 81<665 745 641.5 775>
VStem: 439 81<185.5 246 136 269> 920 80<136 224 115 246>
LayerCount: 2
Fore
SplineSet
942 363 m 1
 942 600 l 2
 942 649 902 688 854 688 c 2
 88 688 l 2
 40 689 0 649 0 600 c 2
 0 162 l 2
 0 113 40 74 88 74 c 2
 465 74 l 1
 471 61 478 48 487 36 c 1
 285 36 l 1
 285 -44 l 1
 569 -44 l 1
 613 -72 664 -88 720 -88 c 0
 875 -88 1000 38 1000 192 c 0
 1000 256 978 315 942 363 c 1
88 154 m 2
 83 154 80 158 80 162 c 2
 80 600 l 2
 80 605 84 608 88 608 c 2
 853 608 l 2
 858 608 861 604 861 600 c 2
 861 433 l 1
 819 458 771 472 719 472 c 0
 564 472 439 346 439 192 c 0
 439 179 440 166 442 154 c 1
 88 154 l 2
720 -9 m 0
 609 -9 520 81 520 191 c 0
 520 301 610 391 720 391 c 0
 830 391 920 301 920 191 c 0
 920 81 830 -9 720 -9 c 0
760 328 m 1
 680 328 l 1
 680 232 l 1
 584 232 l 1
 584 152 l 1
 680 152 l 1
 680 56 l 1
 760 56 l 1
 760 152 l 1
 855 152 l 1
 855 232 l 1
 760 232 l 1
 760 328 l 1
EndSplineSet
Validated: 41
Ligature2: "Liga-1" d i s p l a y underscore a d d
EndChar

StartChar: display_delete
Encoding: 57383 57383 99
Width: 1000
GlyphClass: 3
Flags: MW
HStem: -88 79<692 775 664.5 797.5> 391 81<665 745 641.5 775>
VStem: 439 81<185.5 246 136 269> 920 80<136 224 115 246>
LayerCount: 2
Fore
SplineSet
942 363 m 1
 942 600 l 2
 942 649 902 688 854 688 c 2
 88 688 l 2
 40 689 0 649 0 600 c 2
 0 162 l 2
 0 113 40 74 88 74 c 2
 465 74 l 1
 471 61 478 48 487 36 c 1
 285 36 l 1
 285 -44 l 1
 569 -44 l 1
 613 -72 664 -88 720 -88 c 0
 875 -88 1000 38 1000 192 c 0
 1000 256 978 315 942 363 c 1
88 154 m 2
 83 154 80 158 80 162 c 2
 80 600 l 2
 80 605 84 608 88 608 c 2
 853 608 l 2
 858 608 861 604 861 600 c 2
 861 433 l 1
 819 458 771 472 719 472 c 0
 564 472 439 346 439 192 c 0
 439 179 440 166 442 154 c 1
 88 154 l 2
720 -9 m 0
 609 -9 520 81 520 191 c 0
 520 301 610 391 720 391 c 0
 830 391 920 301 920 191 c 0
 920 81 830 -9 720 -9 c 0
584 152 m 1
 856 152 l 1
 856 232 l 1
 584 232 l 1
 584 152 l 1
EndSplineSet
Validated: 41
Ligature2: "Liga-1" d i s p l a y underscore d e l e t e
EndChar

StartChar: display_content
Encoding: 57384 57384 100
Width: 999
GlyphClass: 3
Flags: MW
HStem: 38 80<63.5 911 88 911 911 912> 248 85<385 411 385 434.5 791 804> 394 85<195 208 588 614> 608 80<88 911 88 911>
VStem: 0 80<126 600> 919 80<126 600 126 602.5>
LayerCount: 2
Fore
SplineSet
912 38 m 2
 88 38 l 2
 39 38 0 78 0 126 c 2
 0 600 l 2
 0 649 40 688 88 688 c 2
 911 688 l 2
 960 688 999 648 999 600 c 2
 999 126 l 2
 1000 77 960 38 912 38 c 2
88 609 m 1
 84 609 80 605 80 600 c 2
 80 126 l 2
 80 121 84 118 88 118 c 2
 911 118 l 2
 916 118 919 122 919 126 c 2
 919 600 l 2
 919 605 915 608 911 608 c 2
 88 608 l 1
 88 609 l 1
301 -89 m 1
 698 -89 l 1
 698 -9 l 1
 301 -9 l 1
 301 -89 l 1
804 248 m 1
 731 248 695 301 668 339 c 0
 641 378 627 394 601 394 c 0
 575 394 561 378 534 339 c 0
 507 301 471 248 398 248 c 0
 325 248 289 301 262 339 c 0
 235 378 221 394 195 394 c 1
 195 479 l 1
 268 479 304 426 331 388 c 0
 358 349 372 333 398 333 c 0
 424 333 438 349 465 388 c 0
 492 426 528 479 601 479 c 0
 674 479 710 426 737 388 c 0
 764 349 778 333 804 333 c 1
 804 248 l 1
EndSplineSet
Validated: 41
Ligature2: "Liga-1" d i s p l a y underscore c o n t e n t
EndChar

StartChar: display_connect
Encoding: 57385 57385 101
Width: 999
GlyphClass: 3
Flags: MW
HStem: 38 80<63.5 911 88 911 911 912> 608 80<88 911 88 911>
VStem: 0 80<126 600> 919 80<126 600 126 602.5>
LayerCount: 2
Fore
SplineSet
912 38 m 2
 88 38 l 2
 39 38 0 78 0 126 c 2
 0 600 l 2
 0 649 40 688 88 688 c 2
 911 688 l 2
 960 688 999 648 999 600 c 2
 999 126 l 2
 1000 77 960 38 912 38 c 2
88 609 m 1
 84 609 80 605 80 600 c 2
 80 126 l 2
 80 121 84 118 88 118 c 2
 911 118 l 2
 916 118 919 122 919 126 c 2
 919 600 l 2
 919 605 915 608 911 608 c 2
 88 608 l 1
 88 609 l 1
301 -89 m 1
 698 -89 l 1
 698 -9 l 1
 301 -9 l 1
 301 -89 l 1
749 313 m 1
 588 461 l 1
 411 357 l 1
 251 413 l 1
 412 265 l 1
 589 369 l 1
 749 313 l 1
EndSplineSet
Validated: 41
Ligature2: "Liga-1" d i s p l a y underscore c o n n e c t
EndChar

StartChar: cast
Encoding: 57386 57386 102
Width: 999
GlyphClass: 3
Flags: MW
HStem: 4 80<0 25.5> 38 80<480 912 480 912> 137 80<0 62.5> 270 80<0 99> 608 80<88 911 911 912 88 911>
VStem: 0 80<270 600 350 600 391 600 391 624.5> 93 80<-89 -63.5> 226 80<-89 -26.5> 359 80<-89 10> 920 79<126 600 126 602.5>
LayerCount: 2
Fore
SplineSet
912 38 m 2x7fc0
 480 38 l 1
 480 118 l 1
 912 118 l 2
 917 118 920 122 920 126 c 2
 920 600 l 2
 920 605 916 608 912 608 c 2
 88 608 l 2
 84 609 80 605 80 600 c 2
 80 391 l 1
 0 391 l 1
 0 600 l 2
 0 649 40 688 88 688 c 2
 911 688 l 2
 960 688 999 648 999 600 c 2
 999 126 l 2
 1000 77 960 38 912 38 c 2x7fc0
480 -89 m 1
 699 -89 l 1
 699 -9 l 1
 480 -9 l 1
 480 -89 l 1
306 -89 m 1
 226 -89 l 1
 226 36 125 137 0 137 c 1
 0 217 l 1
 169 217 306 80 306 -89 c 1
439 -89 m 1
 359 -89 l 1
 359 109 198 270 0 270 c 1
 0 350 l 1
 242 350 439 153 439 -89 c 1
173 -89 m 1
 93 -89 l 1
 93 -38 51 4 0 4 c 1
 0 84 l 1xbfc0
 95 84 173 7 173 -89 c 1
EndSplineSet
Validated: 41
Ligature2: "Liga-1" c a s t
EndChar

StartChar: remote_control
Encoding: 57387 57387 103
Width: 538
GlyphClass: 3
Flags: MW
HStem: -200 80<72.5 438 100 438> -74 80<257.954 280.046> 36 80<144.954 167.046 257.954 280.046 370.954 393.046> 147 80<144.954 167.046 257.954 280.046 370.954 393.046> 258 80<144.954 167.046 257.954 280.046 370.954 393.046> 388 79<252.5 285.5 252.5 307.5> 587 81<252.5 285.5> 720 80<94.5 438 100 438>
VStem: 0 80<-100 700> 116 80<64.9541 87.0459 175.954 198.046 286.954 309.046> 129 80<510.5 543.5 510.5 566.5> 229 80<-45.0459 -22.9541 64.9541 87.0459 175.954 198.046 286.954 309.046> 329 80<510.5 543.5> 342 80<64.9541 87.0459 175.954 198.046 286.954 309.046> 458 80<-100 700>
LayerCount: 2
Fore
SplineSet
438 -200 m 2xff92
 100 -200 l 2
 45 -200 0 -155 0 -100 c 2
 0 700 l 2
 0 755 45 800 100 800 c 2
 438 800 l 2
 493 800 538 755 538 700 c 2
 538 -100 l 2
 538 -155 493 -200 438 -200 c 2xff92
100 720 m 2
 89 720 80 711 80 700 c 2
 80 -100 l 2
 80 -111 89 -120 100 -120 c 2
 438 -120 l 2
 449 -120 458 -111 458 -100 c 2
 458 700 l 2
 458 711 449 720 438 720 c 2
 100 720 l 2
229 298 m 0
 229 275.908203125 246.908203125 258 269 258 c 0
 291.091796875 258 309 275.908203125 309 298 c 0
 309 320.091796875 291.091796875 338 269 338 c 0
 246.908203125 338 229 320.091796875 229 298 c 0
116 298 m 0xffd2
 116 275.908203125 133.908203125 258 156 258 c 0
 178.091796875 258 196 275.908203125 196 298 c 0
 196 320.091796875 178.091796875 338 156 338 c 0
 133.908203125 338 116 320.091796875 116 298 c 0xffd2
342 298 m 0xff96
 342 275.908203125 359.908203125 258 382 258 c 0
 404.091796875 258 422 275.908203125 422 298 c 0
 422 320.091796875 404.091796875 338 382 338 c 0
 359.908203125 338 342 320.091796875 342 298 c 0xff96
229 187 m 0
 229 164.908203125 246.908203125 147 269 147 c 0
 291.091796875 147 309 164.908203125 309 187 c 0
 309 209.091796875 291.091796875 227 269 227 c 0
 246.908203125 227 229 209.091796875 229 187 c 0
116 187 m 0xffd2
 116 164.908203125 133.908203125 147 156 147 c 0
 178.091796875 147 196 164.908203125 196 187 c 0
 196 209.091796875 178.091796875 227 156 227 c 0
 133.908203125 227 116 209.091796875 116 187 c 0xffd2
342 187 m 0xff96
 342 164.908203125 359.908203125 147 382 147 c 0
 404.091796875 147 422 164.908203125 422 187 c 0
 422 209.091796875 404.091796875 227 382 227 c 0
 359.908203125 227 342 209.091796875 342 187 c 0xff96
229 76 m 0
 229 53.908203125 246.908203125 36 269 36 c 0
 291.091796875 36 309 53.908203125 309 76 c 0
 309 98.091796875 291.091796875 116 269 116 c 0
 246.908203125 116 229 98.091796875 229 76 c 0
116 76 m 0xffd2
 116 53.908203125 133.908203125 36 156 36 c 0
 178.091796875 36 196 53.908203125 196 76 c 0
 196 98.091796875 178.091796875 116 156 116 c 0
 133.908203125 116 116 98.091796875 116 76 c 0xffd2
342 76 m 0xff96
 342 53.908203125 359.908203125 36 382 36 c 0
 404.091796875 36 422 53.908203125 422 76 c 0
 422 98.091796875 404.091796875 116 382 116 c 0
 359.908203125 116 342 98.091796875 342 76 c 0xff96
229 -34 m 0
 229 -56.091796875 246.908203125 -74 269 -74 c 0
 291.091796875 -74 309 -56.091796875 309 -34 c 0
 309 -11.908203125 291.091796875 6 269 6 c 0
 246.908203125 6 229 -11.908203125 229 -34 c 0
269 388 m 0
 192 388 129 451 129 528 c 0
 129 605 192 668 269 668 c 0
 346 668 409 605 409 528 c 0xffba
 409 450 346 388 269 388 c 0
269 587 m 0
 236 587 209 560 209 527 c 0
 209 494 236 467 269 467 c 0
 302 467 329 494 329 527 c 0
 329 560 302 587 269 587 c 0
EndSplineSet
Validated: 9
Ligature2: "Liga-1" r e m o t e underscore c o n t r o l
EndChar

StartChar: fullscreen
Encoding: 57388 57388 104
Width: 1000
GlyphClass: 3
Flags: MW
HStem: -200 80<468 900 468 900> 3 80<275.5 697 303 697> 517 80<297.5 697 303 697> 720 80<94.5 532 100 532>
VStem: 0 80<268 700> 203 80<103 497> 717 80<103 497> 920 80<-100 332>
LayerCount: 2
Fore
SplineSet
900 -200 m 2
 468 -200 l 1
 468 -120 l 1
 900 -120 l 2
 911 -120 920 -111 920 -100 c 2
 920 332 l 1
 1000 332 l 1
 1000 -100 l 2
 1000 -155 955 -200 900 -200 c 2
80 268 m 1
 0 268 l 1
 0 700 l 2
 0 755 45 800 100 800 c 2
 532 800 l 1
 532 720 l 1
 100 720 l 2
 89 720 80 711 80 700 c 2
 80 268 l 1
697 3 m 2
 303 3 l 2
 248 3 203 48 203 103 c 2
 203 497 l 2
 203 552 248 597 303 597 c 2
 697 597 l 2
 752 597 797 552 797 497 c 2
 797 103 l 2
 797 48 752 3 697 3 c 2
303 517 m 2
 292 517 283 508 283 497 c 2
 283 103 l 2
 283 92 292 83 303 83 c 2
 697 83 l 2
 708 83 717 92 717 103 c 2
 717 497 l 2
 717 508 708 517 697 517 c 2
 303 517 l 2
EndSplineSet
Validated: 1
Ligature2: "Liga-1" f u l l s c r e e n
EndChar

StartChar: swap_area
Encoding: 57389 57389 105
Width: 1000
GlyphClass: 3
Flags: W
LayerCount: 2
Fore
SplineSet
971 371 m 2
 767 574 l 1
 710 517 l 1
 888 340 l 1
 112 340 l 1
 290 518 l 1
 233 575 l 1
 29 371 l 2
 10 352 0 327 0 300 c 0
 0 273 10 248 29 229 c 2
 232 26 l 1
 289 83 l 1
 112 260 l 1
 889 260 l 1
 711 82 l 1
 768 25 l 1
 971 228 l 2
 990 247 1000 272 1000 299 c 0
 1000 327 990 352 971 371 c 2
EndSplineSet
Validated: 9
LCarets2: 8 0 0 0 0 0 0 0 0
Ligature2: "Liga-1" s w a p underscore a r e a
EndChar

StartChar: directory_tree
Encoding: 57390 57390 106
Width: 1000
GlyphClass: 3
Flags: MW
HStem: -139 80<72.5 900 100 900> 486 79<478 479 479 900> 638 79<100 345 345 346 100 345>
VStem: 0 80<-39 617> 920 80<-39 465>
LayerCount: 2
Fore
SplineSet
900 -139 m 2
 100 -139 l 2
 45 -139 0 -94 0 -39 c 2
 0 617 l 2
 0 672 45 717 100 717 c 2
 345 717 l 2
 390 717 429 687 441 644 c 2
 459 580 l 2
 461 571 469 565 478 565 c 2
 900 565 l 2
 955 565 1000 520 1000 465 c 2
 1000 -40 l 2
 1000 -94 955 -139 900 -139 c 2
100 637 m 1
 89 637 80 628 80 617 c 2
 80 -39 l 2
 80 -50 89 -59 100 -59 c 2
 900 -59 l 2
 911 -59 920 -50 920 -39 c 2
 920 466 l 2
 920 477 911 486 900 486 c 2
 479 486 l 2
 434 486 395 516 383 559 c 2
 365 623 l 2
 363 632 355 638 346 638 c 2
 100 638 l 1
 100 637 l 1
223 79 m 1
 223 142 l 1
 505 142 l 1
 505 222 l 1
 223 222 l 1
 223 285 l 1
 396 285 l 1
 396 365 l 1
 223 365 l 1
 223 434 l 1
 143 434 l 1
 143 -1 l 1
 614 -1 l 1
 614 79 l 1
 223 79 l 1
EndSplineSet
Validated: 9
Ligature2: "Liga-1" d i r e c t o r y underscore t r e e
EndChar

StartChar: user_manual
Encoding: 57391 57391 107
Width: 1003
GlyphClass: 3
Flags: MW
HStem: -41 82 280 78<119 138> 454 80<309 315>
VStem: 0 78<40 41 41 42 42 548> 921 82<42 549 42 42>
LayerCount: 2
Fore
SplineSet
309 454 m 1
 315 534 l 1
 249 539 184 533 120 517 c 1
 139 439 l 1
 194 454 251 458 309 454 c 1
119 358 m 1
 138 280 l 1
 217 299 302 301 382 284 c 1
 398 362 l 1
 307 382 210 381 119 358 c 1
915 668 m 0
 794 705 667 705 546 668 c 0
 529 663 514 653 501 641 c 1
 488 653 472 663 456 668 c 0
 335 705 208 705 87 668 c 0
 38 653 0 601 0 548 c 2
 0 41 l 2
 0 13 11 -10 31 -25 c 0
 52 -41 81 -45 110 -36 c 0
 216 -4 327 -4 433 -36 c 0
 443 -39 454 -41 463 -41 c 0
 477 -41 490 -38 501 -32 c 1
 521 -42 545 -44 570 -36 c 0
 676 -4 787 -4 893 -36 c 0
 903 -39 914 -41 923 -41 c 0
 941 -41 958 -36 972 -26 c 0
 992 -11 1003 12 1003 40 c 2
 1003 549 l 2
 1002 601 963 654 915 668 c 0
85 41 m 0
 82 40 80 40 78 40 c 1
 78 42 l 1
 78 549 l 2
 78 566 93 588 108 592 c 0
 161 608 215 616 269 616 c 0
 323 616 378 608 430 592 c 0
 441 589 453 576 458 562 c 0
 457 558 457 553 457 549 c 2
 457 42 l 1
 457 41 l 1
 456 41 455 41 453 42 c 0
 334 78 206 78 85 41 c 0
922 42 m 1
 922 40 l 1
 920 40 918 40 915 41 c 0
 794 78 667 78 546 41 c 0
 545 41 543 40 542 40 c 1
 542 41 l 1
 542 549 l 2
 542 553 542 558 541 562 c 0
 546 575 557 588 569 592 c 0
 622 608 676 616 730 616 c 0
 784 616 839 608 891 592 c 0
 906 587 921 566 921 549 c 2
 921 42 l 1
 922 42 l 1
EndSplineSet
Validated: 41
Ligature2: "Liga-1" u s e r underscore m a n u a l
EndChar

StartChar: chevron_up
Encoding: 57392 57392 108
Width: 1000
GlyphClass: 3
Flags: W
LayerCount: 2
Fore
SplineSet
500 552 m 0
 526 552 551 542 571 523 c 2
 1000 93 l 1
 943 36 l 1
 514 466 l 2
 506 474 494 474 486 466 c 2
 57 37 l 1
 0 93 l 1
 429 522 l 2
 449 542 474 552 500 552 c 0
EndSplineSet
Validated: 1
Ligature2: "Liga-1" c h e v r o n underscore u p
EndChar

StartChar: chevron_down
Encoding: 57393 57393 109
Width: 1000
GlyphClass: 3
Flags: W
LayerCount: 2
Fore
SplineSet
500 37 m 0
 474 37 449 47 429 66 c 2
 0 495 l 1
 57 552 l 1
 486 123 l 2
 494 115 506 115 514 123 c 2
 943 552 l 1
 1000 495 l 1
 571 66 l 2
 551 46 526 37 500 37 c 0
EndSplineSet
Validated: 1
Ligature2: "Liga-1" c h e v r o n underscore d o w n
EndChar

StartChar: chevron_right
Encoding: 57394 57394 110
Width: 515
GlyphClass: 3
Flags: W
LayerCount: 2
Fore
SplineSet
57 -200 m 1
 0 -143 l 1
 429 286 l 2
 437 294 437 306 429 314 c 2
 0 743 l 1
 57 800 l 1
 486 371 l 2
 525 332 525 269 486 230 c 2
 57 -200 l 1
EndSplineSet
Validated: 33
Ligature2: "Liga-1" c h e v r o n underscore r i g h t
EndChar

StartChar: chevron_left
Encoding: 57395 57395 111
Width: 515
GlyphClass: 3
Flags: MW
VStem: 0 80<298.5 301.5 298.5 313.5>
LayerCount: 2
Fore
SplineSet
458 -200 m 1
 29 229 l 2
 10 248 0 273 0 300 c 0
 0 327 10 352 29 371 c 2
 458 800 l 1
 515 743 l 1
 86 314 l 2
 81 309 80 303 80 300 c 0
 80 297 81 291 86 286 c 2
 515 -143 l 1
 458 -200 l 1
EndSplineSet
Validated: 1
Ligature2: "Liga-1" c h e v r o n underscore l e f t
EndChar

StartChar: trash
Encoding: 57396 57396 112
Width: 831
GlyphClass: 3
Flags: MW
HStem: -200 80<171 659> 720 80<335 495>
LayerCount: 2
Fore
SplineSet
375 36 m 1
 455 36 l 1
 455 407 l 1
 375 407 l 1
 375 36 l 1
515 85 m 1
 595 85 l 1
 595 358 l 1
 515 358 l 1
 515 85 l 1
235 85 m 1
 315 85 l 1
 315 358 l 1
 235 358 l 1
 235 85 l 1
830 643 m 1
 595 643 l 1
 595 700 l 2
 595 755 550 800 495 800 c 2
 335 800 l 2
 280 800 235 755 235 700 c 2
 235 643 l 1
 0 643 l 1
 0 563 l 1
 71 563 l 1
 71 -100 l 2
 71 -155 116 -200 171 -200 c 2
 660 -200 l 2
 715 -200 760 -155 760 -100 c 2
 760 563 l 1
 831 563 l 1
 831 643 l 1
 830 643 l 1
315 700 m 2
 315 711 324 720 335 720 c 2
 495 720 l 2
 506 720 515 711 515 700 c 2
 515 643 l 1
 315 643 l 1
 315 700 l 2
679 -100 m 1
 679 -111 670 -120 659 -120 c 2
 171 -120 l 2
 160 -120 151 -111 151 -100 c 2
 151 563 l 1
 680 563 l 1
 680 -100 l 1
 679 -100 l 1
EndSplineSet
Validated: 9
Ligature2: "Liga-1" t r a s h
EndChar

StartChar: shopping_bag
Encoding: 57397 57397 113
Width: 727
GlyphClass: 3
Flags: MW
HStem: -200 80<100 626> 516 80<100 186 266 471 550 626> 720 80<286 450>
VStem: 0 80<-127.5 496 -100 496> 647 80<-100 496 -100 496>
LayerCount: 2
Fore
SplineSet
626 596 m 2
 550 596 l 1
 550 700 l 2
 550 755 505 800 450 800 c 2
 286 800 l 2
 231 800 186 755 186 700 c 2
 186 596 l 1
 100 596 l 2
 45 596 0 551 0 496 c 2
 0 -100 l 2
 0 -155 45 -200 100 -200 c 2
 627 -200 l 2
 682 -200 727 -155 727 -100 c 2
 727 496 l 2
 726 551 682 596 626 596 c 2
266 700 m 2
 266 711 275 720 286 720 c 2
 451 720 l 2
 462 720 471 711 471 700 c 2
 471 596 l 1
 266 596 l 1
 266 700 l 2
646 -100 m 1
 646 -111 637 -120 626 -120 c 2
 100 -120 l 2
 89 -120 80 -111 80 -100 c 2
 80 496 l 2
 80 507 89 516 100 516 c 2
 627 516 l 2
 638 516 647 507 647 496 c 2
 647 -100 l 1
 646 -100 l 1
EndSplineSet
Validated: 9
Ligature2: "Liga-1" s h o p p i n g underscore b a g
EndChar

StartChar: search
Encoding: 57398 57398 114
Width: 1000
GlyphClass: 3
Flags: MW
HStem: 36 79<299 427.5> 720 80<299 465>
VStem: 0 80<334.5 501.5 334.5 523> 684 81<371.5 501>
LayerCount: 2
Fore
SplineSet
1000 -143 m 1
 680 177 l 1
 733 243 765 326 765 417 c 0
 765 628 593 800 382 800 c 0
 171 800 0 628 0 418 c 0
 0 208 172 36 382 36 c 0
 473 36 557 68 622 121 c 1
 942 -199 l 1
 1000 -143 l 1
382 115 m 0
 216 115 80 251 80 418 c 0
 80 585 216 720 382 720 c 0
 548 720 684 584 684 418 c 0
 684 252 549 115 382 115 c 0
EndSplineSet
Validated: 9
Ligature2: "Liga-1" s e a r c h
EndChar

StartChar: room
Encoding: 57399 57399 115
Width: 894
GlyphClass: 3
Flags: W
LayerCount: 2
Fore
SplineSet
844 587 m 2
 497 787 l 2
 466 805 428 805 397 787 c 2
 50 587 l 2
 19 569 0 536 0 500 c 2
 0 100 l 2
 0 64 19 31 50 13 c 2
 397 -187 l 2
 412 -196 430 -200 447 -200 c 0
 464 -200 482 -196 497 -187 c 2
 844 13 l 2
 875 31 894 64 894 100 c 2
 894 500 l 2
 894 536 874 569 844 587 c 2
804 517 m 2
 810 513 814 507 814 500 c 2
 814 134 l 1
 487 323 l 1
 487 700 l 1
 804 517 l 2
90 517 m 2
 407 700 l 1
 407 323 l 1
 80 135 l 1
 80 500 l 2
 80 507 84 514 90 517 c 2
457 -118 m 2
 451 -122 443 -122 437 -118 c 2
 120 65 l 1
 447 254 l 1
 774 65 l 1
 457 -118 l 2
EndSplineSet
Validated: 41
Ligature2: "Liga-1" r o o m
EndChar

StartChar: notification
Encoding: 57400 57400 116
Width: 1000
GlyphClass: 3
Flags: MW
HStem: -200 80<384 616 384 638> 33 80<488.954 511.046> 720 80<384 616>
VStem: 0 80<184 416 184 438> 460 80<61.9541 84.0459 187 527> 920 80<184 416>
CounterMasks: 1 1c
LayerCount: 2
Fore
SplineSet
500 -200 m 0
 224 -200 0 24 0 300 c 0
 0 576 224 800 500 800 c 0
 776 800 1000 576 1000 300 c 0
 1000 24 776 -200 500 -200 c 0
500 720 m 0
 268 720 80 532 80 300 c 0
 80 68 268 -120 500 -120 c 0
 732 -120 920 68 920 300 c 0
 920 532 732 720 500 720 c 0
460 187 m 1
 540 187 l 1
 540 527 l 1
 460 527 l 1
 460 187 l 1
460 73 m 0
 460 50.908203125 477.908203125 33 500 33 c 0
 522.091796875 33 540 50.908203125 540 73 c 0
 540 95.091796875 522.091796875 113 500 113 c 0
 477.908203125 113 460 95.091796875 460 73 c 0
EndSplineSet
Validated: 9
Ligature2: "Liga-1" n o t i f i c a t i o n
EndChar

StartChar: notification_alt
Encoding: 57401 57401 117
Width: 981
GlyphClass: 3
Flags: MW
HStem: -200 81<488.299 492.299 488.299 504.299> -50 80<171.299 179.299> 33 80<479.253 501.345> 720 80<488.299 492.299>
VStem: 450.299 80<61.9541 84.0459 187 527>
LayerCount: 2
Fore
SplineSet
450.298828125 187 m 1
 530.298828125 187 l 1
 530.298828125 527 l 1
 450.298828125 527 l 1
 450.298828125 187 l 1
450.298828125 73 m 0
 450.298828125 50.908203125 468.20703125 33 490.298828125 33 c 0
 512.390625 33 530.298828125 50.908203125 530.298828125 73 c 0
 530.298828125 95.091796875 512.390625 113 490.298828125 113 c 0
 468.20703125 113 450.298828125 95.091796875 450.298828125 73 c 0
490.298828125 -200 m 0
 462.298828125 -200 435.298828125 -188 416.298828125 -168 c 2
 400.298828125 -152 l 2
 394.298828125 -145 384.298828125 -143 375.298828125 -146 c 2
 354.298828125 -154 l 2
 328.298828125 -164 298.298828125 -163 273.298828125 -150 c 0
 248.298828125 -138 228.298828125 -116 220.298828125 -89 c 2
 213.298828125 -67 l 2
 210.298828125 -58 202.298828125 -52 193.298828125 -51 c 2
 171.298828125 -50 l 2
 143.298828125 -48 117.298828125 -34 100.298828125 -12 c 0
 83.298828125 10 75.298828125 38 79.298828125 66 c 2
 82.298828125 89 l 2
 83.298828125 98 79.298828125 107 71.298828125 112 c 2
 51.298828125 124 l 2
 27.298828125 138 10.298828125 162 3.298828125 190 c 0
 -3.701171875 218 2.298828125 246 18.298828125 270 c 2
 30.298828125 287 l 2
 35.298828125 295 35.298828125 305 30.298828125 312 c 2
 17.298828125 331 l 2
 2.298828125 354 -3.701171875 383 2.298828125 411 c 0
 8.298828125 438 26.298828125 462 50.298828125 477 c 2
 70.298828125 489 l 2
 78.298828125 494 82.298828125 503 81.298828125 512 c 2
 78.298828125 535 l 2
 74.298828125 563 82.298828125 591 99.298828125 613 c 0
 116.298828125 635 143.298828125 649 170.298828125 651 c 2
 193.298828125 653 l 2
 202.298828125 654 210.298828125 660 213.298828125 669 c 2
 220.298828125 691 l 2
 229.298828125 718 248.298828125 740 273.298828125 752 c 0
 298.298828125 764 328.298828125 765 354.298828125 756 c 2
 375.298828125 748 l 2
 384.298828125 745 393.298828125 747 400.298828125 754 c 2
 416.298828125 770 l 2
 435.298828125 788 462.298828125 800 490.298828125 800 c 0
 518.298828125 800 545.298828125 788 564.298828125 768 c 2
 580.298828125 752 l 2
 586.298828125 745 596.298828125 743 605.298828125 746 c 2
 626.298828125 754 l 2
 652.298828125 764 682.298828125 763 707.298828125 750 c 0
 732.298828125 738 752.298828125 716 760.298828125 689 c 2
 767.298828125 667 l 2
 770.298828125 658 778.298828125 652 787.298828125 651 c 2
 810.298828125 649 l 2
 838.298828125 647 864.298828125 633 881.298828125 611 c 0
 898.298828125 589 906.298828125 561 902.298828125 533 c 2
 899.298828125 511 l 2
 898.298828125 502 902.298828125 493 910.298828125 488 c 2
 930.298828125 476 l 2
 954.298828125 462 971.298828125 438 978.298828125 410 c 0
 984.298828125 383 979.298828125 354 963.298828125 330 c 2
 950.298828125 313 l 2
 945.298828125 305 945.298828125 295 950.298828125 288 c 2
 963.298828125 269 l 2
 978.298828125 246 984.298828125 217 978.298828125 189 c 0
 972.298828125 162 954.298828125 138 930.298828125 124 c 2
 910.298828125 112 l 2
 902.298828125 107 898.298828125 98 899.298828125 89 c 2
 902.298828125 66 l 2
 906.298828125 38 898.298828125 10 881.298828125 -12 c 0
 864.298828125 -34 837.298828125 -48 810.298828125 -50 c 2
 787.298828125 -52 l 2
 778.298828125 -53 770.298828125 -59 767.298828125 -68 c 2
 760.298828125 -89 l 2
 751.298828125 -116 732.298828125 -138 707.298828125 -150 c 0
 682.298828125 -162 652.298828125 -163 626.298828125 -154 c 2
 605.298828125 -146 l 2
 596.298828125 -143 587.298828125 -145 580.298828125 -152 c 2
 564.298828125 -168 l 2
 545.298828125 -188 518.298828125 -200 490.298828125 -200 c 0
383.298828125 -64 m 0
 411.298828125 -64 438.298828125 -75 457.298828125 -96 c 2
 473.298828125 -112 l 2
 479.298828125 -118 486.298828125 -119 490.298828125 -119 c 0
 494.298828125 -119 501.298828125 -118 507.298828125 -112 c 2
 523.298828125 -96 l 2
 552.298828125 -66 595.298828125 -56 634.298828125 -71 c 2
 655.298828125 -79 l 2
 663.298828125 -82 670.298828125 -80 673.298828125 -78 c 0
 676.298828125 -76 682.298828125 -73 685.298828125 -64 c 2
 692.298828125 -42 l 2
 705.298828125 -3 740.298828125 25 781.298828125 29 c 2
 804.298828125 31 l 2
 812.298828125 32 818.298828125 37 820.298828125 39 c 0
 822.298828125 41 826.298828125 48 825.298828125 56 c 2
 820.298828125 78 l 2
 814.298828125 119 834.298828125 159 869.298828125 180 c 2
 889.298828125 192 l 2
 896.298828125 196 899.298828125 203 900.298828125 207 c 0
 901.298828125 211 901.298828125 218 897.298828125 225 c 2
 884.298828125 244 l 2
 861.298828125 279 861.298828125 323 884.298828125 358 c 2
 897.298828125 377 l 2
 902.298828125 384 901.298828125 391 900.298828125 395 c 0
 899.298828125 399 897.298828125 405 889.298828125 410 c 2
 869.298828125 422 l 2
 833.298828125 443 814.298828125 483 820.298828125 524 c 2
 823.298828125 546 l 2
 824.298828125 554 821.298828125 560 818.298828125 563 c 0
 816.298828125 566 811.298828125 571 802.298828125 571 c 2
 780.298828125 572 l 2
 739.298828125 576 704.298828125 603 691.298828125 643 c 2
 684.298828125 665 l 2
 681.298828125 673 675.298828125 677 672.298828125 679 c 0
 669.298828125 681 662.298828125 683 654.298828125 680 c 2
 633.298828125 672 l 2
 594.298828125 657 551.298828125 667 522.298828125 697 c 2
 506.298828125 713 l 2
 501.298828125 719 494.298828125 720 490.298828125 720 c 0
 486.298828125 720 479.298828125 719 473.298828125 713 c 2
 457.298828125 697 l 2
 428.298828125 667 385.298828125 657 346.298828125 672 c 2
 325.298828125 680 l 2
 317.298828125 683 310.298828125 681 307.298828125 679 c 0
 304.298828125 677 298.298828125 674 295.298828125 665 c 2
 288.298828125 643 l 2
 275.298828125 604 240.298828125 576 199.298828125 572 c 2
 177.298828125 570 l 2
 169.298828125 569 163.298828125 564 161.298828125 562 c 0
 159.298828125 559 155.298828125 553 156.298828125 545 c 2
 159.298828125 522 l 2
 165.298828125 481 145.298828125 441 110.298828125 420 c 2
 90.298828125 408 l 2
 83.298828125 404 80.298828125 397 79.298828125 393 c 0
 80.298828125 390 79.298828125 383 84.298828125 376 c 2
 97.298828125 357 l 2
 120.298828125 322 120.298828125 278 97.298828125 243 c 2
 84.298828125 224 l 2
 79.298828125 217 80.298828125 210 81.298828125 207 c 0
 82.298828125 203 84.298828125 197 92.298828125 192 c 2
 112.298828125 180 l 2
 148.298828125 159 167.298828125 119 161.298828125 78 c 2
 158.298828125 55 l 2
 157.298828125 47 160.298828125 41 163.298828125 38 c 0
 165.298828125 35 170.298828125 30 179.298828125 30 c 2
 202.298828125 28 l 2
 243.298828125 24 278.298828125 -3 291.298828125 -43 c 2
 298.298828125 -65 l 2
 301.298828125 -73 307.298828125 -77 310.298828125 -79 c 0
 313.298828125 -81 320.298828125 -83 328.298828125 -80 c 2
 349.298828125 -72 l 2
 359.298828125 -67 371.298828125 -64 383.298828125 -64 c 0
EndSplineSet
Validated: 41
Ligature2: "Liga-1" n o t i f i c a t i o n underscore a l t
EndChar

StartChar: bell
Encoding: 57402 57402 118
Width: 1000
GlyphClass: 3
Flags: MW
HStem: -200 80<481 519 481 541.5> 550 80<494 506 494 577.5> 720 80<490.5 509.5>
VStem: 139 80<15 269 15 269> 385 80<628 685 628 685 611 685> 535 80<628 685 628 628> 781 80<15 269>
LayerCount: 2
Fore
SplineSet
861 15 m 1
 861 269 l 2
 861 428 758 563 615 611 c 1
 615 685 l 2
 615 748 563 800 500 800 c 0
 437 800 385 748 385 685 c 2
 385 611 l 1
 242 563 139 428 139 269 c 2
 139 15 l 1
 0 15 l 1
 0 -65 l 1
 139 -65 l 1
 330 -65 l 1
 348 -142 418 -200 500 -200 c 0
 583 -200 652 -142 670 -65 c 1
 861 -65 l 1
 1000 -65 l 1
 1000 15 l 1
 861 15 l 1
465 685 m 2
 465 704 481 720 500 720 c 0
 519 720 535 704 535 685 c 2
 535 628 l 1
 524 629 512 630 500 630 c 0
 488 630 476 629 465 628 c 1
 465 685 l 2
500 -120 m 0
 462 -120 429 -97 414 -65 c 1
 586 -65 l 1
 571 -97 538 -120 500 -120 c 0
219 15 m 1
 219 269 l 2
 219 424 345 550 500 550 c 0
 655 550 781 424 781 269 c 2
 781 15 l 1
 219 15 l 1
EndSplineSet
Validated: 9
Ligature2: "Liga-1" b e l l
EndChar

StartChar: home
Encoding: 57403 57403 119
Width: 1000
GlyphClass: 3
Flags: MW
HStem: -168 80<226.471 349.971 253.971 349.971 640.971 745.971> 127 80<462.971 522.971 467.971 522.971> 230 80<77.9707 135.971 98.9707 135.971 864.971 900.971>
VStem: 154.971 80<-69 211> 368.971 80<-69 108> 541.971 80<-69 108> 765.971 79<-69 211>
LayerCount: 2
Fore
SplineSet
745.970703125 -168 m 2
 640.970703125 -168 l 2
 585.970703125 -168 541.970703125 -124 541.970703125 -69 c 2
 541.970703125 108 l 2
 541.970703125 118 532.970703125 127 522.970703125 127 c 2
 467.970703125 127 l 2
 457.970703125 127 448.970703125 118 448.970703125 108 c 2
 448.970703125 -69 l 2
 448.970703125 -124 404.970703125 -168 349.970703125 -168 c 2
 253.970703125 -168 l 2
 198.970703125 -168 154.970703125 -124 154.970703125 -69 c 2
 154.970703125 211 l 2
 154.970703125 221 145.970703125 230 135.970703125 230 c 2
 98.970703125 230 l 2
 56.970703125 230 20.970703125 255 5.970703125 295 c 0
 -8.029296875 334 2.970703125 377 34.970703125 405 c 2
 435.970703125 745 l 2
 472.970703125 776 526.970703125 776 563.970703125 745 c 2
 964.970703125 405 l 2
 996.970703125 378 1007.97070312 335 993.970703125 295 c 0
 979.970703125 256 942.970703125 230 900.970703125 230 c 2
 863.970703125 230 l 2
 853.970703125 230 844.970703125 221 844.970703125 211 c 2
 844.970703125 -69 l 2
 844.970703125 -123 800.970703125 -168 745.970703125 -168 c 2
467.970703125 207 m 2
 522.970703125 207 l 2
 577.970703125 207 621.970703125 163 621.970703125 108 c 2
 621.970703125 -69 l 2
 621.970703125 -79 630.970703125 -88 640.970703125 -88 c 2
 746.970703125 -88 l 2
 756.970703125 -88 765.970703125 -79 765.970703125 -69 c 2
 765.970703125 211 l 2
 765.970703125 266 809.970703125 310 864.970703125 310 c 2
 901.970703125 310 l 2
 913.970703125 310 917.970703125 319 919.970703125 322 c 0
 920.970703125 326 923.970703125 335 913.970703125 343 c 2
 512.970703125 683 l 2
 505.970703125 689 495.970703125 689 487.970703125 683 c 2
 86.970703125 343 l 2
 77.970703125 335 79.970703125 326 80.970703125 322 c 0
 82.970703125 319 86.970703125 310 98.970703125 310 c 2
 135.970703125 310 l 2
 190.970703125 310 234.970703125 266 234.970703125 211 c 2
 234.970703125 -69 l 2
 234.970703125 -79 243.970703125 -88 253.970703125 -88 c 2
 349.970703125 -88 l 2
 359.970703125 -88 368.970703125 -79 368.970703125 -69 c 2
 368.970703125 108 l 2
 368.970703125 162 412.970703125 207 467.970703125 207 c 2
EndSplineSet
Validated: 33
Ligature2: "Liga-1" h o m e
EndChar

StartChar: repeat
Encoding: 57404 57404 120
Width: 1000
GlyphClass: 3
Flags: MW
HStem: 23 81<94.5 565> 496 80<435 900 435 905.5>
VStem: 0 80<95.5 476 124 475> 920 80<118.5 476 125 476 125 476>
LayerCount: 2
Fore
SplineSet
100 104 m 1
 89 104 80 113 80 124 c 2
 80 476 l 2
 80 487 89 496 100 496 c 2
 215 496 l 1
 119 400 l 1
 176 343 l 1
 368 535 l 1
 176 728 l 1
 119 671 l 1
 215 575 l 1
 100 575 l 2
 45 575 0 530 0 475 c 2
 0 123 l 2
 0 68 45 23 100 23 c 2
 565 23 l 1
 565 103 l 1
 100 103 l 1
 100 104 l 1
900 576 m 2
 435 576 l 1
 435 496 l 1
 900 496 l 2
 911 496 920 487 920 476 c 2
 920 124 l 2
 920 113 911 104 900 104 c 2
 785 104 l 1
 881 200 l 1
 824 257 l 1
 632 64 l 1
 824 -128 l 1
 881 -71 l 1
 785 25 l 1
 900 25 l 2
 955 25 1000 70 1000 125 c 2
 1000 476 l 2
 1000 531 955 576 900 576 c 2
EndSplineSet
Validated: 9
Ligature2: "Liga-1" r e p e a t
EndChar

StartChar: repeat_once
Encoding: 57405 57405 121
Width: 1000
GlyphClass: 3
Flags: MW
HStem: 23 81<94.5 565> 496 80<435 900 435 905.5>
VStem: 0 80<95.5 476 124 475> 920 80<118.5 476 125 476 125 476>
LayerCount: 2
Fore
SplineSet
100 104 m 1
 89 104 80 113 80 124 c 2
 80 476 l 2
 80 487 89 496 100 496 c 2
 215 496 l 1
 119 400 l 1
 176 343 l 1
 368 535 l 1
 176 728 l 1
 119 671 l 1
 215 575 l 1
 100 575 l 2
 45 575 0 530 0 475 c 2
 0 123 l 2
 0 68 45 23 100 23 c 2
 565 23 l 1
 565 103 l 1
 100 103 l 1
 100 104 l 1
900 576 m 2
 435 576 l 1
 435 496 l 1
 900 496 l 2
 911 496 920 487 920 476 c 2
 920 124 l 2
 920 113 911 104 900 104 c 2
 785 104 l 1
 881 200 l 1
 824 257 l 1
 632 64 l 1
 824 -128 l 1
 881 -71 l 1
 785 25 l 1
 900 25 l 2
 955 25 1000 70 1000 125 c 2
 1000 476 l 2
 1000 531 955 576 900 576 c 2
540 244 m 1
 540 436 l 1
 410 436 l 1
 410 356 l 1
 460 356 l 1
 460 244 l 1
 410 244 l 1
 410 164 l 1
 460 164 l 1
 540 164 l 1
 590 164 l 1
 590 244 l 1
 540 244 l 1
EndSplineSet
Validated: 9
Ligature2: "Liga-1" r e p e a t underscore o n c e
EndChar

StartChar: skip_next
Encoding: 57406 57406 122
Width: 531
GlyphClass: 3
Flags: W
LayerCount: 2
Fore
SplineSet
452 598 m 1
 452 397 l 1
 115 593 l 2
 91 607 62 607 38 593 c 0
 14 579 0 554 0 527 c 2
 0 88 l 2
 0 60 14 35 38 22 c 0
 50 15 63 12 76 12 c 0
 89 12 102 15 114 22 c 2
 451 217 l 1
 451 6 l 1
 531 6 l 1
 531 598 l 1
 452 598 l 1
80 93 m 1
 80 521 l 1
 449 307 l 1
 80 93 l 1
EndSplineSet
Validated: 41
Ligature2: "Liga-1" s k i p underscore n e x t
EndChar

StartChar: skip_previous
Encoding: 57407 57407 123
Width: 539
GlyphClass: 3
Flags: W
LayerCount: 2
Fore
SplineSet
502 583 m 0
 478 597 449 597 425 583 c 2
 80 383 l 1
 80 593 l 1
 0 593 l 1
 0 0 l 1
 80 0 l 1
 80 210 l 1
 425 10 l 2
 437 3 450 0 463 0 c 0
 476 0 489 3 501 10 c 0
 525 24 539 49 539 76 c 2
 539 517 l 2
 540 544 526 569 502 583 c 0
460 83 m 1
 91 297 l 1
 460 511 l 1
 460 83 l 1
EndSplineSet
Validated: 41
Ligature2: "Liga-1" s k i p underscore p r e v i o u s
EndChar

StartChar: volume_mute
Encoding: 57408 57408 124
Width: 1000
GlyphClass: 3
Flags: MW
HStem: 70 81<263 385>
VStem: 163 79<142.5 430 171 430 171 430> 718 80<253 253 253 701>
LayerCount: 2
Fore
SplineSet
1000 -144 m 1
 798 59 l 1
 718 139 l 1
 405 452 l 1
 327 530 l 1
 56 800 l 1
 0 744 l 1
 223 521 l 1
 188 505 163 470 163 430 c 2
 163 170 l 2
 163 115 208 70 263 70 c 2
 386 70 l 2
 391 70 397 68 400 64 c 2
 626 -170 l 2
 645 -190 671 -201 698 -201 c 0
 711 -201 723 -199 736 -194 c 0
 774 -179 799 -142 799 -101 c 2
 799 -54 l 1
 944 -200 l 1
 1000 -144 l 1
718 -101 m 1
 718 -113 709 -118 705 -120 c 0
 701 -122 692 -124 683 -115 c 2
 457 120 l 2
 438 139 412 151 385 151 c 2
 262 151 l 2
 251 151 242 160 242 171 c 2
 242 430 l 2
 242 441 251 450 262 450 c 2
 293 450 l 1
 717 26 l 1
 717 -101 l 1
 718 -101 l 1
683 715 m 2
 691 724 701 721 705 720 c 0
 709 718 718 714 718 701 c 2
 718 253 l 1
 798 173 l 1
 798 701 l 2
 798 742 773 778 735 794 c 0
 697 809 654 800 626 770 c 2
 416 553 l 1
 473 496 l 1
 683 715 l 2
EndSplineSet
Validated: 41
Ligature2: "Liga-1" v o l u m e underscore m u t e
Ligature2: "Liga-1" v o l u m e underscore d i s a b l e d
Ligature2: "Liga-1" m u t e
EndChar

StartChar: volume_low
Encoding: 57409 57409 125
Width: 636
GlyphClass: 3
Flags: MW
HStem: 70 80<72.5 223 100 223> 449 81<100 223 100 223>
VStem: 0 80<170 430> 556 80<-101 700>
LayerCount: 2
Fore
SplineSet
535 -201 m 0
 508 -201 483 -190 463 -170 c 2
 237 64 l 2
 234 68 228 70 223 70 c 2
 100 70 l 2
 45 70 0 115 0 170 c 2
 0 430 l 2
 0 485 45 530 100 530 c 2
 223 530 l 2
 228 530 234 532 237 536 c 2
 464 770 l 2
 492 799 535 809 573 793 c 0
 611 778 636 741 636 700 c 2
 636 -101 l 2
 636 -142 611 -178 573 -194 c 0
 561 -198 548 -201 535 -201 c 0
100 450 m 1
 89 450 80 441 80 430 c 2
 80 170 l 2
 80 159 89 150 100 150 c 2
 223 150 l 2
 250 150 276 139 295 119 c 2
 521 -115 l 2
 529 -124 539 -121 543 -120 c 0
 547 -118 556 -114 556 -101 c 2
 556 701 l 2
 556 713 547 718 543 720 c 0
 539 722 530 724 521 715 c 2
 295 480 l 2
 276 461 250 449 223 449 c 2
 100 449 l 1
 100 450 l 1
EndSplineSet
Validated: 33
Ligature2: "Liga-1" v o l u m e underscore l o w
EndChar

StartChar: volume_mid
Encoding: 57410 57410 126
Width: 784
GlyphClass: 3
Flags: MW
HStem: 70 80<72.5 223 100 223> 449 81<100 222 100 223>
VStem: 0 80<170 430> 556 80<-101 700> 703 81<287.5 312.5>
LayerCount: 2
Fore
SplineSet
535 -201 m 0
 508 -201 483 -190 463 -170 c 2
 237 64 l 2
 233 68 228 70 223 70 c 2
 100 70 l 2
 45 70 0 115 0 170 c 2
 0 430 l 2
 0 485 45 530 100 530 c 2
 223 530 l 2
 228 530 234 532 237 536 c 2
 463 770 l 2
 492 800 535 809 573 793 c 0
 611 778 636 741 636 700 c 2
 636 -101 l 2
 636 -142 611 -178 573 -194 c 0
 560 -198 547 -201 535 -201 c 0
100 450 m 1
 89 450 80 441 80 430 c 2
 80 170 l 2
 80 159 89 150 100 150 c 2
 223 150 l 2
 250 150 276 139 295 119 c 2
 521 -115 l 2
 529 -124 539 -121 543 -120 c 0
 547 -118 556 -114 556 -101 c 2
 556 701 l 2
 556 713 547 718 543 720 c 0
 539 722 530 724 521 715 c 2
 294 480 l 2
 275 461 249 449 222 449 c 2
 100 449 l 1
 100 450 l 1
733 177 m 1
 676 234 l 1
 694 252 703 275 703 300 c 0
 703 325 693 348 676 366 c 1
 733 423 l 1
 766 390 784 347 784 300 c 0
 784 254 766 210 733 177 c 1
EndSplineSet
Validated: 33
Ligature2: "Liga-1" v o l u m e underscore m i d
EndChar

StartChar: volume_high
Encoding: 57411 57411 127
Width: 944
GlyphClass: 3
Flags: MW
HStem: 70 80<72.5 223 100 223> 449 81<100 222 100 223>
VStem: 0 80<170 430> 556 80<-101 700> 703 81<287.5 312.5> 864 80<256 346>
LayerCount: 2
Fore
SplineSet
535 -201 m 0
 508 -201 483 -190 463 -170 c 2
 237 64 l 2
 233 68 228 70 223 70 c 2
 100 70 l 2
 45 70 0 115 0 170 c 2
 0 430 l 2
 0 485 45 530 100 530 c 2
 223 530 l 2
 228 530 234 532 237 536 c 2
 463 770 l 2
 492 800 535 809 573 793 c 0
 611 778 636 741 636 700 c 2
 636 -101 l 2
 636 -142 611 -178 573 -194 c 0
 560 -198 547 -201 535 -201 c 0
100 450 m 1
 89 450 80 441 80 430 c 2
 80 170 l 2
 80 159 89 150 100 150 c 2
 223 150 l 2
 250 150 276 139 295 119 c 2
 521 -115 l 2
 529 -124 539 -121 543 -120 c 0
 547 -118 556 -114 556 -101 c 2
 556 701 l 2
 556 713 547 718 543 720 c 0
 539 722 530 724 521 715 c 2
 294 480 l 2
 275 461 249 449 222 449 c 2
 100 449 l 1
 100 450 l 1
733 177 m 1
 676 234 l 1
 694 252 703 275 703 300 c 0
 703 325 693 348 676 366 c 1
 733 423 l 1
 766 390 784 347 784 300 c 0
 784 254 766 210 733 177 c 1
822 5 m 1
 765 62 l 1
 829 126 864 211 864 301 c 0
 864 391 829 476 765 540 c 1
 822 597 l 1
 901 518 944 413 944 302 c 0
 944 191 901 84 822 5 c 1
EndSplineSet
Validated: 33
Ligature2: "Liga-1" v o l u m e underscore h i g h
EndChar

StartChar: label
Encoding: 57412 57412 128
Width: 987
GlyphClass: 3
Flags: MW
HStem: 514 79 713 80<570.5 887 573 886>
VStem: 0 79<218.5 221.5 218.5 233.5> 707 81<549 559> 906 81<379 693>
LayerCount: 2
Fore
SplineSet
414 -193 m 0
 388 -193 363 -183 343 -164 c 2
 29 149 l 2
 10 168 0 193 0 220 c 0
 0 247 10 272 29 291 c 2
 502 764 l 2
 521 783 546 793 573 793 c 2
 887 793 l 2
 942 793 987 748 987 693 c 2
 987 379 l 2
 987 352 977 327 958 308 c 2
 485 -164 l 2
 465 -183 440 -193 414 -193 c 0
573 713 m 2
 568 713 563 711 559 707 c 2
 85 234 l 2
 80 229 79 223 79 220 c 0
 79 217 80 211 85 206 c 2
 400 -107 l 2
 408 -115 420 -115 428 -107 c 2
 900 365 l 2
 904 369 906 374 906 379 c 2
 906 693 l 2
 906 704 897 713 886 713 c 2
 573 713 l 2
747 514 m 0
 737 514 726 518 719 526 c 0
 712 533 707 544 707 554 c 0
 707 564 711 575 719 582 c 0
 728 591 742 596 755 593 c 0
 758 592 760 592 763 591 c 0
 765 590 768 589 770 587 c 0
 772 586 774 584 776 582 c 0
 783 574 788 564 788 554 c 0
 788 543 784 533 776 526 c 0
 768 518 758 514 747 514 c 0
240.700195312 162.407226562 m 1
 477.544921875 399.319335938 l 1
 420.96875 455.87890625 l 1
 184.124023438 218.966796875 l 1
 240.700195312 162.407226562 l 1
341.982421875 62.21484375 m 1
 511.662109375 231.943359375 l 1
 455.0859375 288.502929688 l 1
 285.40625 118.775390625 l 1
 341.982421875 62.21484375 l 1
EndSplineSet
Validated: 41
Ligature2: "Liga-1" l a b e l
EndChar

StartChar: footage
Encoding: 57413 57413 129
Width: 1000
GlyphClass: 3
Flags: MW
HStem: -200 80<72.5 201 100 201 799 900> -87 79<110 190 110 190 810 890> -33 80<315.5 679 321 679> 51 80<110 190 110 190 810 890> 93 80<293.5 679 321 679> 190 80<110 190 110 190 810 890> 329 80<110 190 110 190 810 890> 427 80<315.5 679 321 679> 468 80<110 190 110 190 810 890> 553 80<293.5 679 321 679> 607 80<110 190 110 190 810 890> 720 80<94.5 201 100 201 799 900>
VStem: 0 80<-100 700> 110 80<-87 -8 -87 -8 51 131 190 270 329 409 468 548 607 687> 221 80<-100 -53 -127.5 -25.5 193 407 653 700> 699 80<-100 -53 -105.5 -47.5 193 407 653 700> 810 80<-87 -8 -87 -8 51 131 190 270 329 409 468 548 607 687> 920 80<-100 700>
LayerCount: 2
Fore
SplineSet
679 93 m 2x8f1fc0
 321 93 l 2
 266 93 221 138 221 193 c 2
 221 407 l 2
 221 462 266 507 321 507 c 2
 679 507 l 2
 734 507 779 462 779 407 c 2
 779 193 l 2
 779 138 734 93 679 93 c 2x8f1fc0
321 427 m 2
 310 427 301 418 301 407 c 2
 301 193 l 2
 301 182 310 173 321 173 c 2
 679 173 l 2
 690 173 699 182 699 193 c 2
 699 407 l 2
 699 418 690 427 679 427 c 2
 321 427 l 2
900 -200 m 2
 799 -200 l 2
 744 -200 699 -155 699 -100 c 2
 699 -53 l 2
 699 -42 690 -33 679 -33 c 2
 321 -33 l 2
 310 -33 301 -42 301 -53 c 2
 301 -100 l 2
 301 -155 256 -200 201 -200 c 2
 100 -200 l 2
 45 -200 0 -155 0 -100 c 2
 0 700 l 2
 0 755 45 800 100 800 c 2
 201 800 l 2
 256 800 301 755 301 700 c 2
 301 653 l 2
 301 642 310 633 321 633 c 2
 679 633 l 2xa65fc0
 690 633 699 642 699 653 c 2
 699 700 l 2
 699 755 744 800 799 800 c 2
 900 800 l 2
 955 800 1000 755 1000 700 c 2
 1000 -100 l 2
 1000 -155 955 -200 900 -200 c 2
321 47 m 2
 679 47 l 2
 734 47 779 2 779 -53 c 2
 779 -100 l 2
 779 -111 788 -120 799 -120 c 2
 900 -120 l 2
 911 -120 920 -111 920 -100 c 2
 920 700 l 2
 920 711 911 720 900 720 c 2
 799 720 l 2
 788 720 779 711 779 700 c 2
 779 653 l 2
 779 598 734 553 679 553 c 2
 321 553 l 2
 266 553 221 598 221 653 c 2
 221 700 l 2
 221 711 212 720 201 720 c 2
 100 720 l 2
 89 720 80 711 80 700 c 2
 80 -100 l 2
 80 -111 89 -120 100 -120 c 2
 201 -120 l 2
 212 -120 221 -111 221 -100 c 2
 221 -53 l 2
 221 2 266 47 321 47 c 2
190 -87 m 1xc61fc0
 110 -87 l 1
 110 -8 l 1
 190 -8 l 1
 190 -87 l 1xc61fc0
190 51 m 1x961fc0
 110 51 l 1
 110 131 l 1
 190 131 l 1
 190 51 l 1x961fc0
190 190 m 1
 110 190 l 1
 110 270 l 1
 190 270 l 1
 190 190 l 1
190 329 m 1
 110 329 l 1
 110 409 l 1
 190 409 l 1
 190 329 l 1
190 468 m 1x869fc0
 110 468 l 1
 110 548 l 1
 190 548 l 1
 190 468 l 1x869fc0
190 607 m 1x863fc0
 110 607 l 1
 110 687 l 1
 190 687 l 1
 190 607 l 1x863fc0
890 -87 m 1xc61fc0
 810 -87 l 1
 810 -8 l 1
 890 -8 l 1
 890 -87 l 1xc61fc0
890 51 m 1x961fc0
 810 51 l 1
 810 131 l 1
 890 131 l 1
 890 51 l 1x961fc0
890 190 m 1
 810 190 l 1
 810 270 l 1
 890 270 l 1
 890 190 l 1
890 329 m 1
 810 329 l 1
 810 409 l 1
 890 409 l 1
 890 329 l 1
890 468 m 1x869fc0
 810 468 l 1
 810 548 l 1
 890 548 l 1
 890 468 l 1x869fc0
890 607 m 1x863fc0
 810 607 l 1
 810 687 l 1
 890 687 l 1
 890 607 l 1x863fc0
EndSplineSet
Validated: 1
Ligature2: "Liga-1" m o v i e
Ligature2: "Liga-1" f i l m
Ligature2: "Liga-1" f o o t a g e
EndChar

StartChar: footage_alt
Encoding: 57414 57414 130
Width: 1000
GlyphClass: 3
Flags: MW
HStem: -200 80<100 221 301 699 779 900> -33 80<321 679> 93 80<321 679> 427 80<321 679> 553 80<321 679> 720 80<100 221 221 221 301 699 779 900>
VStem: 0 80<-127.5 700 -100 700> 221 80<-120 -53 193 407 653 720> 699 80<-120 -53 -120 -53 193 407 653 720> 920 80<-105.5 700 -100 700>
LayerCount: 2
Fore
SplineSet
679 507 m 2
 321 507 l 2
 266 507 221 462 221 407 c 2
 221 193 l 2
 221 138 266 93 321 93 c 2
 679 93 l 2
 734 93 779 138 779 193 c 2
 779 407 l 2
 779 462 734 507 679 507 c 2
699 193 m 2
 699 182 690 173 679 173 c 2
 321 173 l 2
 310 173 301 182 301 193 c 2
 301 407 l 2
 301 418 310 427 321 427 c 2
 679 427 l 2
 690 427 699 418 699 407 c 2
 699 193 l 2
900 800 m 2
 739 800 l 1
 699 800 l 1
 301 800 l 1
 261 800 l 1
 100 800 l 2
 45 800 0 755 0 700 c 2
 0 -100 l 2
 0 -155 45 -200 100 -200 c 2
 261 -200 l 1
 301 -200 l 1
 699 -200 l 1
 739 -200 l 1
 900 -200 l 2
 955 -200 1000 -155 1000 -100 c 2
 1000 700 l 2
 1000 755 955 800 900 800 c 2
301 720 m 1
 699 720 l 1
 699 653 l 2
 699 642 690 633 679 633 c 2
 321 633 l 2
 310 633 301 642 301 653 c 2
 301 720 l 1
301 -120 m 1
 301 -53 l 2
 301 -42 310 -33 321 -33 c 2
 679 -33 l 2
 690 -33 699 -42 699 -53 c 2
 699 -120 l 1
 301 -120 l 1
920 -100 m 2
 920 -111 911 -120 900 -120 c 2
 779 -120 l 1
 779 -53 l 2
 779 2 734 47 679 47 c 2
 321 47 l 2
 266 47 221 2 221 -53 c 2
 221 -120 l 1
 100 -120 l 2
 89 -120 80 -111 80 -100 c 2
 80 700 l 2
 80 711 89 720 100 720 c 2
 221 720 l 1
 221 653 l 2
 221 598 266 553 321 553 c 2
 679 553 l 2
 734 553 779 598 779 653 c 2
 779 720 l 1
 900 720 l 2
 911 720 920 711 920 700 c 2
 920 -100 l 2
110 468 m 1
 190 468 l 1
 190 548 l 1
 110 548 l 1
 110 468 l 1
110 607 m 1
 190 607 l 1
 190 687 l 1
 110 687 l 1
 110 607 l 1
110 329 m 1
 190 329 l 1
 190 409 l 1
 110 409 l 1
 110 329 l 1
110 51 m 1
 190 51 l 1
 190 131 l 1
 110 131 l 1
 110 51 l 1
110 190 m 1
 190 190 l 1
 190 270 l 1
 110 270 l 1
 110 190 l 1
110 -87 m 1
 190 -87 l 1
 190 -8 l 1
 110 -8 l 1
 110 -87 l 1
810 468 m 1
 890 468 l 1
 890 548 l 1
 810 548 l 1
 810 468 l 1
810 607 m 1
 890 607 l 1
 890 687 l 1
 810 687 l 1
 810 607 l 1
810 329 m 1
 890 329 l 1
 890 409 l 1
 810 409 l 1
 810 329 l 1
810 51 m 1
 890 51 l 1
 890 131 l 1
 810 131 l 1
 810 51 l 1
810 -87 m 1
 890 -87 l 1
 890 -8 l 1
 810 -8 l 1
 810 -87 l 1
810 190 m 1
 890 190 l 1
 890 270 l 1
 810 270 l 1
 810 190 l 1
EndSplineSet
Validated: 9
Ligature2: "Liga-1" m o v i e underscore a l t
Ligature2: "Liga-1" f i l m underscore a l t
Ligature2: "Liga-1" f o o t a g e underscore a l t
EndChar

StartChar: settings_gear_alt
Encoding: 57415 57415 131
Width: 998
GlyphClass: 3
Flags: W
LayerCount: 2
Fore
SplineSet
381.25 -200 m 0
 372.25 -200 364.25 -198 355.25 -195 c 2
 257.25 -156 l 2
 240.25 -149 227.25 -136 220.25 -120 c 0
 213.25 -103 213.25 -85 220.25 -68 c 2
 240.25 -19 l 1
 220.25 -3 202.25 15 185.25 35 c 1
 136.25 14 l 2
 101.25 -1 61.25 16 47.25 50 c 2
 6.25 147 l 2
 -8.75 184 9.25 223 49.25 240 c 2
 92.25 258 l 1
 89.25 283 89.25 309 91.25 335 c 1
 42.25 355 l 2
 25.25 362 12.25 375 5.25 391 c 0
 -1.75 407 -1.75 426 5.25 443 c 2
 44.25 541 l 2
 51.25 558 64.25 571 80.25 578 c 0
 97.25 585 115.25 585 132.25 578 c 2
 181.25 558 l 1
 197.25 578 215.25 596 235.25 613 c 1
 214.25 662 l 2
 199.25 697 216.25 737 250.25 751 c 2
 347.25 792 l 2
 364.25 800 382.25 800 399.25 793 c 0
 416.25 786 429.25 773 436.25 757 c 2
 457.25 708 l 1
 482.25 711 508.25 711 534.25 709 c 1
 554.25 758 l 2
 561.25 775 574.25 788 590.25 795 c 0
 607.25 802 625.25 802 642.25 795 c 2
 740.25 755 l 2
 757.25 748 770.25 735 777.25 719 c 0
 784.25 702 784.25 684 777.25 667 c 2
 757.25 618 l 1
 777.25 602 795.25 584 812.25 564 c 1
 861.25 585 l 2
 878.25 592 896.25 592 913.25 585 c 0
 930.25 578 943.25 565 950.25 549 c 2
 991.25 452 l 2
 999.25 434 998.25 414 990.25 397 c 0
 982.25 381 968.25 368 949.25 360 c 2
 906.25 342 l 1
 909.25 317 909.25 291 907.25 265 c 1
 956.25 245 l 2
 973.25 238 986.25 225 993.25 209 c 0
 1000.25 192 1000.25 174 993.25 157 c 2
 954.25 59 l 2
 947.25 42 934.25 29 918.25 22 c 0
 901.25 15 883.25 15 866.25 22 c 2
 817.25 42 l 1
 801.25 22 783.25 4 763.25 -13 c 1
 784.25 -62 l 2
 791.25 -79 791.25 -97 784.25 -114 c 0
 777.25 -131 764.25 -144 748.25 -151 c 2
 651.25 -192 l 2
 634.25 -199 616.25 -199 599.25 -192 c 0
 582.25 -185 569.25 -172 562.25 -156 c 2
 541.25 -107 l 1
 516.25 -110 490.25 -110 464.25 -108 c 1
 444.25 -157 l 2
 437.25 -174 424.25 -187 408.25 -194 c 0
 399.25 -198 390.25 -200 381.25 -200 c 0
299.25 -86 m 1
 375.25 -117 l 1
 394.25 -71 l 2
 405.25 -43 434.25 -26 465.25 -29 c 0
 490.25 -32 515.25 -31 540.25 -28 c 0
 571.25 -24 600.25 -41 612.25 -69 c 2
 632.25 -115 l 1
 707.25 -83 l 1
 687.25 -37 l 2
 675.25 -9 683.25 23 707.25 43 c 0
 726.25 59 744.25 77 759.25 96 c 0
 778.25 121 810.25 129 839.25 118 c 2
 885.25 99 l 1
 916.25 175 l 1
 869.25 194 l 2
 841.25 205 824.25 234 827.25 265 c 0
 830.25 290 829.25 316 826.25 341 c 0
 822.25 370 838.25 399 865.25 410 c 2
 913.25 430 l 1
 881.25 505 l 1
 835.25 485 l 2
 807.25 473 775.25 481 755.25 505 c 0
 739.25 524 721.25 542 702.25 557 c 0
 677.25 576 669.25 608 680.25 637 c 2
 699.25 683 l 1
 623.25 714 l 1
 605.25 670 l 2
 594.25 642 565.25 625 534.25 628 c 0
 509.25 631 484.25 630 459.25 627 c 0
 428.25 623 399.25 640 387.25 668 c 2
 367.25 714 l 1
 292.25 682 l 1
 312.25 636 l 2
 324.25 608 316.25 576 292.25 556 c 0
 273.25 540 255.25 522 240.25 503 c 0
 221.25 478 189.25 470 160.25 481 c 2
 113.25 500 l 1
 82.25 424 l 1
 128.25 405 l 2
 156.25 394 173.25 365 170.25 334 c 0
 167.25 309 168.25 283 171.25 258 c 0
 175.25 229 159.25 200 132.25 189 c 2
 84.25 169 l 1
 116.25 94 l 1
 162.25 114 l 2
 190.25 126 222.25 118 242.25 94 c 0
 258.25 75 276.25 57 295.25 42 c 0
 320.25 23 328.25 -9 317.25 -38 c 2
 299.25 -86 l 1
499.25 85 m 0
 472.25 85 445.25 90 419.25 101 c 0
 366.25 122 324.25 163 302.25 216 c 0
 279.25 269 278.25 327 300.25 380 c 0
 322.25 433 362.25 475 415.25 497 c 0
 468.25 519 526.25 520 579.25 498 c 0
 632.25 477 674.25 436 696.25 383 c 0
 742.25 274 691.25 148 582.25 101 c 0
 556.25 91 527.25 85 499.25 85 c 0
499.25 435 m 0
 481.25 435 463.25 431 446.25 424 c 0
 413.25 410 387.25 384 374.25 350 c 0
 361.25 316 361.25 280 375.25 247 c 0
 389.25 214 415.25 188 449.25 175 c 0
 482.25 162 519.25 162 552.25 176 c 0
 585.25 190 611.25 216 624.25 250 c 0
 637.25 283 637.25 320 623.25 353 c 0
 609.25 386 583.25 412 549.25 425 c 0
 533.25 432 516.25 435 499.25 435 c 0
EndSplineSet
Validated: 33
Ligature2: "Liga-1" s e t t i n g s underscore g e a r underscore a l t
EndChar

StartChar: server
Encoding: 57416 57416 132
Width: 855
GlyphClass: 3
Flags: MW
HStem: -200 80<72.5 755 100 754> -83 80<149 171> 33 80<94.5 755 100 755> 143 81<72.5 755 100 754> 260 80<149 171> 377 80<94.5 755 100 755> 487 80<72.5 755 100 754> 603 80<149 171 271 293> 720 80<94.5 755 100 755>
VStem: 0 80<-100 13 243 244 244 357 587 700> 120 80<-54 -32 289 311 632 654> 242 80<632 654> 775 80<-100 13 -100 18.5 244 357 587 700>
LayerCount: 2
Fore
SplineSet
754 487 m 2
 100 487 l 2
 45 487 0 532 0 587 c 2
 0 700 l 2
 0 755 45 800 100 800 c 2
 755 800 l 2
 810 800 855 755 855 700 c 2
 855 587 l 2
 854 532 809 487 754 487 c 2
100 720 m 2
 89 720 80 711 80 700 c 2
 80 587 l 2
 80 576 89 567 100 567 c 2
 755 567 l 2
 766 567 775 576 775 587 c 2
 775 700 l 2
 775 711 766 720 755 720 c 2
 100 720 l 2
160 603 m 0
 138 603 120 621 120 643 c 0
 120 665 138 683 160 683 c 0
 182 683 200 665 200 643 c 0
 200 621 182 603 160 603 c 0
754 143 m 2
 100 143 l 2
 45 143 0 188 0 243 c 2
 0 357 l 2
 0 412 45 457 100 457 c 2
 755 457 l 2
 810 457 855 412 855 357 c 2
 855 244 l 2
 854 188 809 143 754 143 c 2
100 377 m 2
 89 377 80 368 80 357 c 2
 80 244 l 2
 80 233 89 224 100 224 c 2
 755 224 l 2
 766 224 775 233 775 244 c 2
 775 357 l 2
 775 368 766 377 755 377 c 2
 100 377 l 2
160 260 m 0
 138 260 120 278 120 300 c 0
 120 322 138 340 160 340 c 0
 182 340 200 322 200 300 c 0
 200 278 182 260 160 260 c 0
754 -200 m 2
 100 -200 l 2
 45 -200 0 -155 0 -100 c 2
 0 13 l 2
 0 68 45 113 100 113 c 2
 755 113 l 2
 810 113 855 68 855 13 c 2
 855 -100 l 2
 854 -155 809 -200 754 -200 c 2
100 33 m 2
 89 33 80 24 80 13 c 2
 80 -100 l 2
 80 -111 89 -120 100 -120 c 2
 755 -120 l 2
 766 -120 775 -111 775 -100 c 2
 775 13 l 2
 775 24 766 33 755 33 c 2
 100 33 l 2
160 -83 m 0
 138 -83 120 -65 120 -43 c 0
 120 -21 138 -3 160 -3 c 0
 182 -3 200 -21 200 -43 c 0
 200 -66 182 -83 160 -83 c 0
282 603 m 0
 260 603 242 621 242 643 c 0
 242 665 260 683 282 683 c 0
 304 683 322 665 322 643 c 0
 322 621 304 603 282 603 c 0
EndSplineSet
Validated: 1
Ligature2: "Liga-1" s e r v e r
EndChar

StartChar: file
Encoding: 57417 57417 133
Width: 731
GlyphClass: 3
Flags: MW
HStem: -200 80<100 630>
VStem: 0 80<-127.5 700 -100 700>
LayerCount: 2
Fore
SplineSet
701 493 m 2
 699 495 l 1
 562 632 l 1
 424 771 l 2
 405 790 380 800 353 800 c 2
 100 800 l 2
 45 800 0 755 0 700 c 2
 0 -100 l 2
 0 -155 45 -200 100 -200 c 2
 631 -200 l 2
 686 -200 731 -155 731 -100 c 2
 731 423 l 2
 730 449 720 475 701 493 c 2
594 488 m 1
 438 488 l 2
 427 488 418 497 418 508 c 2
 418 663 l 1
 506 575 l 1
 594 488 l 1
630 -120 m 2
 100 -120 l 2
 89 -120 80 -111 80 -100 c 2
 80 700 l 2
 80 711 89 720 100 720 c 2
 338 720 l 1
 338 508 l 2
 338 453 383 408 438 408 c 2
 650 408 l 1
 650 -100 l 2
 650 -111 641 -120 630 -120 c 2
EndSplineSet
Validated: 9
Ligature2: "Liga-1" f i l e
EndChar

StartChar: file_content
Encoding: 57418 57418 134
Width: 731
GlyphClass: 3
Flags: MW
HStem: -200 80<100 630>
VStem: 0 80<-127.5 700 -100 700>
LayerCount: 2
Fore
SplineSet
701 493 m 2
 699 495 l 1
 562 632 l 1
 424 771 l 2
 405 790 380 800 353 800 c 2
 100 800 l 2
 45 800 0 755 0 700 c 2
 0 -100 l 2
 0 -155 45 -200 100 -200 c 2
 631 -200 l 2
 686 -200 731 -155 731 -100 c 2
 731 423 l 2
 730 449 720 475 701 493 c 2
594 488 m 1
 438 488 l 2
 427 488 418 497 418 508 c 2
 418 663 l 1
 506 575 l 1
 594 488 l 1
630 -120 m 2
 100 -120 l 2
 89 -120 80 -111 80 -100 c 2
 80 700 l 2
 80 711 89 720 100 720 c 2
 338 720 l 1
 338 508 l 2
 338 453 383 408 438 408 c 2
 650 408 l 1
 650 -100 l 2
 650 -111 641 -120 630 -120 c 2
160 248 m 1
 451 248 l 1
 451 328 l 1
 160 328 l 1
 160 248 l 1
160 88 m 1
 571 88 l 1
 571 168 l 1
 160 168 l 1
 160 88 l 1
EndSplineSet
Validated: 9
Ligature2: "Liga-1" f i l e underscore c o n t e n t
EndChar

StartChar: file_upload
Encoding: 57419 57419 135
Width: 731
GlyphClass: 3
Flags: MW
HStem: -200 80<100 630>
VStem: 0 80<-127.5 700 -100 700>
LayerCount: 2
Fore
SplineSet
701 493 m 2
 699 495 l 1
 562 632 l 1
 424 771 l 2
 405 790 380 800 353 800 c 2
 100 800 l 2
 45 800 0 755 0 700 c 2
 0 -100 l 2
 0 -155 45 -200 100 -200 c 2
 631 -200 l 2
 686 -200 731 -155 731 -100 c 2
 731 423 l 2
 730 449 720 475 701 493 c 2
594 488 m 1
 438 488 l 2
 427 488 418 497 418 508 c 2
 418 663 l 1
 506 575 l 1
 594 488 l 1
630 -120 m 2
 100 -120 l 2
 89 -120 80 -111 80 -100 c 2
 80 700 l 2
 80 711 89 720 100 720 c 2
 338 720 l 1
 338 508 l 2
 338 453 383 408 438 408 c 2
 650 408 l 1
 650 -100 l 2
 650 -111 641 -120 630 -120 c 2
544 193 m 1
 370 367 l 1
 196 193 l 1
 253 137 l 1
 330 214 l 1
 330 -36 l 1
 410 -36 l 1
 410 214 l 1
 487 137 l 1
 544 193 l 1
EndSplineSet
Validated: 9
Ligature2: "Liga-1" f i l e underscore u p l o a d
EndChar

StartChar: file_download
Encoding: 57420 57420 136
Width: 731
GlyphClass: 3
Flags: MW
HStem: -200 80<100 630>
VStem: 0 80<-127.5 700 -100 700>
LayerCount: 2
Fore
SplineSet
701 493 m 2
 699 495 l 1
 562 632 l 1
 424 771 l 2
 405 790 380 800 353 800 c 2
 100 800 l 2
 45 800 0 755 0 700 c 2
 0 -100 l 2
 0 -155 45 -200 100 -200 c 2
 631 -200 l 2
 686 -200 731 -155 731 -100 c 2
 731 423 l 2
 730 449 720 475 701 493 c 2
594 488 m 1
 438 488 l 2
 427 488 418 497 418 508 c 2
 418 663 l 1
 506 575 l 1
 594 488 l 1
630 -120 m 2
 100 -120 l 2
 89 -120 80 -111 80 -100 c 2
 80 700 l 2
 80 711 89 720 100 720 c 2
 338 720 l 1
 338 508 l 2
 338 453 383 408 438 408 c 2
 650 408 l 1
 650 -100 l 2
 650 -111 641 -120 630 -120 c 2
487 175 m 1
 410 98 l 1
 410 348 l 1
 330 348 l 1
 330 98 l 1
 253 175 l 1
 196 118 l 1
 370 -56 l 1
 544 118 l 1
 487 175 l 1
EndSplineSet
Validated: 9
Ligature2: "Liga-1" f i l e underscore d o w n l o a d
EndChar

StartChar: compress
Encoding: 57421 57421 137
Width: 591
GlyphClass: 3
Flags: MW
HStem: -31 80<100 102 102 102 182 311> 720 80<100 312>
VStem: 0 80<41.5 700 69 700> 153 79<308 461 461 462 308 475.5> 331 81<63.5 86 69 86> 510 81<308 461>
LayerCount: 2
Fore
SplineSet
229 227 m 0
 212 227 197 232 184 241 c 0
 164 256 153 279 153 308 c 2
 153 461 l 2
 153 490 164 513 184 528 c 0
 205 543 233 546 263 536 c 0
 334 514 410 514 481 536 c 0
 511 546 539 543 560 528 c 0
 580 513 591 490 591 461 c 2
 591 307 l 2
 591 278 580 255 560 240 c 0
 539 225 511 222 481 232 c 0
 410 254 334 254 263 232 c 0
 251 229 240 227 229 227 c 0
232 462 m 1
 232 308 l 1
 233 308 235 309 237 309 c 2
 238 309 l 1
 325 336 417 336 504 309 c 1
 505 309 l 2
 507 308 509 308 510 308 c 1
 510 461 l 1
 509 461 507 460 505 460 c 2
 504 460 l 1
 417 433 325 433 238 460 c 1
 237 460 l 2
 235 461 234 462 232 462 c 1
247 683 m 1
 247 603 l 1
 496 603 l 1
 496 683 l 1
 412 683 l 1
 412 700 l 2
 412 755 367 800 312 800 c 2
 100 800 l 2
 45 800 0 755 0 700 c 2
 0 69 l 2
 0 14 45 -31 100 -31 c 2
 102 -31 l 1
 102 -120 l 1
 0 -120 l 1
 0 -200 l 1
 102 -200 l 1
 182 -200 l 1
 497 -200 l 1
 497 -120 l 1
 182 -120 l 1
 182 -31 l 1
 312 -31 l 2
 367 -31 412 14 412 69 c 2
 412 86 l 1
 496 86 l 1
 496 166 l 1
 247 166 l 1
 247 86 l 1
 331 86 l 1
 331 69 l 2
 331 58 322 49 311 49 c 2
 100 49 l 2
 89 49 80 58 80 69 c 2
 80 700 l 2
 80 711 89 720 100 720 c 2
 312 720 l 2
 323 720 332 711 332 700 c 2
 332 683 l 1
 247 683 l 1
EndSplineSet
Validated: 41
Ligature2: "Liga-1" c o m p r e s s
EndChar

StartChar: rename
Encoding: 57422 57422 138
Width: 1000
GlyphClass: 3
Flags: MW
HStem: 49 80<72.5 458 100 458 620 900> 471 80<94.5 460 100 460 620 900>
VStem: 0 80<149 451> 920 80<143.5 451 149 451>
LayerCount: 2
Fore
SplineSet
458 49 m 1
 100 49 l 2
 45 49 0 94 0 149 c 2
 0 451 l 2
 0 506 45 551 100 551 c 2
 460 551 l 1
 460 471 l 1
 100 471 l 2
 89 471 80 462 80 451 c 2
 80 149 l 2
 80 138 89 129 100 129 c 2
 458 129 l 1
 458 49 l 1
159.819335938 390.814453125 m 1
 159.819335938 208.814453125 l 1
 457.819335938 208.814453125 l 1
 457.819335938 390.814453125 l 1
 159.819335938 390.814453125 l 1
900 551 m 2
 620 551 l 1
 620 631 l 1
 702 631 l 1
 702 711 l 1
 458 711 l 1
 458 631 l 1
 540 631 l 1
 540 -31 l 1
 458 -31 l 1
 458 -111 l 1
 703 -111 l 1
 703 -31 l 1
 620 -31 l 1
 620 49 l 1
 900 49 l 2
 955 49 1000 94 1000 149 c 2
 1000 451 l 2
 1000 506 955 551 900 551 c 2
920 149 m 2
 920 138 911 129 900 129 c 2
 620 129 l 1
 620 471 l 1
 900 471 l 2
 911 471 920 462 920 451 c 2
 920 149 l 2
EndSplineSet
Validated: 9
Ligature2: "Liga-1" r e n a m e
EndChar

StartChar: copy
Encoding: 57423 57423 139
Width: 845
GlyphClass: 3
Flags: MW
HStem: -200 80<300 745>
VStem: 0 80<-2.5 705 25 705> 200 79<-127.5 580 -100 -75 5 5 5 580>
LayerCount: 2
Fore
SplineSet
818 411 m 2
 816 413 l 1
 815 414 l 1
 579 651 l 1
 578 652 l 2
 577 653 577 653 576 653 c 0
 558 670 534 680 508 680 c 2
 475 680 l 1
 379 776 l 2
 360 795 335 805 308 805 c 2
 100 805 l 2
 45 805 0 760 0 705 c 2
 0 25 l 2
 0 -30 45 -75 100 -75 c 2
 200 -75 l 1
 200 -100 l 2
 200 -155 245 -200 300 -200 c 2
 745 -200 l 2
 800 -200 845 -155 845 -100 c 2
 845 343 l 2
 845 369 835 393 818 411 c 2
573 543 m 1
 641 475 l 1
 709 407 l 1
 593 407 l 2
 582 407 573 416 573 427 c 2
 573 543 l 1
100 5 m 2
 89 5 80 14 80 25 c 2
 80 705 l 2
 80 716 89 725 100 725 c 2
 294 725 l 1
 294 680 l 1
 242 677 200 634 200 580 c 2
 200 5 l 1
 100 5 l 2
765 -100 m 2
 765 -111 756 -120 745 -120 c 2
 299 -120 l 2
 288 -120 279 -111 279 -100 c 2
 279 580 l 2
 279 591 288 600 299 600 c 2
 493 600 l 1
 493 428 l 2
 493 373 538 328 593 328 c 2
 765 328 l 1
 765 -100 l 2
EndSplineSet
Validated: 9
Ligature2: "Liga-1" c o p y
EndChar

StartChar: dashboard
Encoding: 57424 57424 140
Width: 1000
GlyphClass: 3
Flags: MW
HStem: -200 80<384 616 384 638> 188 80<491 509 491 531> 332 80<491 508.5 469 509> 574 80<424.5 518> 720 80<384 616>
VStem: 0 80<184 416 184 438> 146 80<274 375.5 274 397.5> 388 80<291 309 291 331> 532 80<291 308 269 309> 774 80<274 318> 920 80<184 416>
LayerCount: 2
Fore
SplineSet
500 -200 m 0
 224 -200 0 24 0 300 c 0
 0 576 224 800 500 800 c 0
 776 800 1000 576 1000 300 c 0
 1000 24 776 -200 500 -200 c 0
500 720 m 0
 268 720 80 532 80 300 c 0
 80 68 268 -120 500 -120 c 0
 732 -120 920 68 920 300 c 0
 920 532 732 720 500 720 c 0
800 111 m 1
 732 154 l 1
 760 198 774 248 774 300 c 0
 774 336 767 372 753 405 c 1
 827 436 l 1
 845 393 854 347 854 300 c 0
 854 233 835 168 800 111 c 1
200 111 m 1
 164 167 146 233 146 300 c 0
 146 495 305 654 500 654 c 0
 547 654 593 645 636 627 c 1
 605 553 l 1
 572 567 536 574 500 574 c 0
 349 574 226 451 226 300 c 0
 226 248 241 198 268 154 c 1
 200 111 l 1
778 521 m 1
 721 578 l 1
 546 402 l 1
 532 408 517 412 500 412 c 0
 438 412 388 362 388 300 c 0
 388 238 438 188 500 188 c 0
 562 188 612 238 612 300 c 0
 612 316 608 332 602 346 c 1
 778 521 l 1
500 268 m 0
 482 268 468 282 468 300 c 0
 468 318 482 332 500 332 c 0
 518 332 532 318 532 300 c 0
 532 282 518 268 500 268 c 0
EndSplineSet
Validated: 9
Ligature2: "Liga-1" d a s h b o a r d
EndChar

StartChar: package
Encoding: 57425 57425 141
Width: 1001
GlyphClass: 3
Flags: W
LayerCount: 2
Fore
SplineSet
1001 525 m 2
 1001 527 l 2
 1001 528 1000 530 1000 531 c 0
 1000 532 1000 532 999 533 c 0
 999 534 998 536 997 537 c 2
 997 538 l 2
 996 540 995 541 994 543 c 2
 993 544 l 1
 990 547 l 1
 989 548 l 1
 986 551 l 1
 985 552 l 1
 984 552 l 2
 981 554 978 556 975 557 c 2
 974 557 l 1
 514 719 l 2
 505 722 496 722 487 719 c 2
 27 557 l 1
 26 557 l 2
 24 556 23 556 21 555 c 0
 20 554 18 553 17 552 c 2
 16 552 l 1
 15 551 l 1
 12 548 l 1
 11 547 l 1
 8 544 l 1
 7 543 l 2
 6 541 5 540 4 538 c 2
 4 537 l 2
 3 536 3 534 2 533 c 0
 2 532 2 532 1 531 c 0
 1 530 0 528 0 527 c 2
 0 525 l 1
 0 519 l 1
 0 81 l 2
 0 64 11 49 27 43 c 2
 487 -119 l 1
 488 -119 l 2
 489 -119 491 -120 492 -120 c 2
 494 -120 l 2
 496 -120 498 -121 500 -121 c 0
 502 -121 504 -121 506 -120 c 2
 508 -120 l 2
 509 -120 511 -119 512 -119 c 2
 513 -119 l 1
 973 43 l 2
 989 49 1000 64 1000 81 c 2
 1000 519 l 2
 1001 521 1001 523 1001 525 c 2
231 410 m 1
 231 302 l 1
 311 274 l 1
 311 382 l 1
 461 329 l 1
 461 -24 l 1
 272 42 l 1
 81 109 l 1
 81 463 l 1
 231 410 l 1
541 -24 m 1
 541 329 l 1
 744 400 l 1
 921 463 l 1
 921 110 l 1
 730 43 l 1
 541 -24 l 1
501 400 m 1
 481 407 l 1
 392 438 l 1
 731 557 l 1
 840 519 l 1
 501 400 l 1
501 638 m 1
 610 600 l 1
 271 481 l 1
 162 519 l 1
 501 638 l 1
EndSplineSet
Validated: 9
LCarets2: 6 0 0 0 0 0 0
Ligature2: "Liga-1" p a c k a g e
EndChar

StartChar: db
Encoding: 57426 57426 142
Width: 814
GlyphClass: 3
Flags: MW
HStem: -201 81<373 441> 179 81<383.5 430.5> 548 81<383.5 430.5> 720 80<373 441 373 492>
LayerCount: 2
Fore
SplineSet
407 800 m 0
 339 800 0 794 0 674 c 2
 0 -75 l 2
 0 -195 339 -201 407 -201 c 0
 475 -201 814 -195 814 -75 c 2
 814 674 l 2
 814 794 475 800 407 800 c 0
734 312 m 1
 712 293 598 260 407 260 c 0
 216 260 102 293 80 312 c 1
 80 592 l 1
 185 551 360 548 407 548 c 0
 454 548 629 551 734 592 c 1
 734 312 l 1
407 720 m 0
 577 720 686 694 724 674 c 1
 686 655 577 629 407 629 c 0
 237 629 128 655 90 675 c 1
 128 694 237 720 407 720 c 0
407 -120 m 0
 216 -120 102 -87 80 -68 c 1
 80 223 l 1
 185 182 360 179 407 179 c 0
 454 179 629 182 734 223 c 1
 734 -68 l 1
 712 -87 598 -120 407 -120 c 0
EndSplineSet
Validated: 9
Ligature2: "Liga-1" d b
EndChar

StartChar: db_segmented
Encoding: 57427 57427 143
Width: 814
GlyphClass: 3
Flags: MW
HStem: -201 82<367 441> 191 81<216 216> 206 82<136 136> 549 80<367 367 447 447> 720 80<373 441 373 492>
LayerCount: 2
Fore
SplineSet
407 800 m 0x98
 339 800 0 794 0 674 c 2
 0 -75 l 2
 0 -195 339 -201 407 -201 c 0
 475 -201 814 -195 814 -75 c 2
 814 674 l 2
 814 794 475 800 407 800 c 0x98
407 720 m 0
 577 720 686 694 724 674 c 1
 686 655 577 629 407 629 c 0
 237 629 128 655 90 675 c 1
 128 694 237 720 407 720 c 0
367 549 m 1
 367 260 l 1
 308 261 258 266 216 272 c 1xd8
 216 561 l 1
 272 553 328 550 367 549 c 1
367 180 m 1
 367 -119 l 1
 308 -118 258 -113 216 -107 c 1
 216 191 l 1
 272 184 328 181 367 180 c 1
447 180 m 1
 486 181 541 184 597 191 c 1
 597 -107 l 1
 555 -113 505 -118 447 -119 c 1
 447 180 l 1
447 260 m 1
 447 549 l 1
 486 550 541 553 597 560 c 1
 597 272 l 1
 556 266 506 261 447 260 c 1
80 592 m 1
 97 585 116 580 136 575 c 1
 136 288 l 1xb8
 107 296 88 304 80 311 c 1
 80 592 l 1
80 223 m 1
 97 216 116 211 136 206 c 1
 136 -91 l 1
 107 -83 88 -75 80 -68 c 1
 80 223 l 1
734 -68 m 1
 726 -75 707 -83 677 -91 c 1
 677 206 l 1
 697 211 716 217 734 223 c 1
 734 -68 l 1
734 312 m 1
 726 305 707 297 677 289 c 1
 677 575 l 1
 697 580 716 586 734 592 c 1
 734 312 l 1
EndSplineSet
Validated: 9
Ligature2: "Liga-1" d b underscore s e g m e n t e d
EndChar

StartChar: share
Encoding: 57428 57428 144
Width: 990
GlyphClass: 3
Flags: MW
HStem: -200 80<452.122 537.122 452.122 550.122> 104 81<476.122 513.122 476.122 514.622> 118 79 319 267<476.122 513.122> 720 80<476.122 513.122>
VStem: 43.6221 80<242.5 328.5 242.5 348.5> 347.622 80<245 270.5 233.5 285> 561.622 80<244 270.5> 865.622 81<242 328>
LayerCount: 2
Fore
SplineSet
984.622070312 89 m 0x9f80
 976.622070312 118 960.622070312 144 937.622070312 163 c 1
 943.622070312 192 946.622070312 222 946.622070312 251 c 0
 946.622070312 445 821.622070312 617 639.622070312 679 c 1
 626.622070312 748 566.622070312 800 494.622070312 800 c 0
 422.622070312 800 362.622070312 748 349.622070312 679 c 1
 167.622070312 617 43.6220703125 446 43.6220703125 251 c 0
 43.6220703125 221 46.6220703125 192 52.6220703125 163 c 1
 -1.3779296875 118 -16.3779296875 40 19.6220703125 -23 c 0
 39.6220703125 -57 70.6220703125 -81 108.622070312 -92 c 0
 121.622070312 -95 134.622070312 -97 146.622070312 -97 c 0
 163.622070312 -97 180.622070312 -94 196.622070312 -88 c 1
 279.622070312 -160 383.622070312 -200 494.622070312 -200 c 0
 605.622070312 -200 709.622070312 -160 792.622070312 -88 c 1
 808.622070312 -94 825.622070312 -97 842.622070312 -97 c 0
 855.622070312 -97 868.622070312 -95 880.622070312 -92 c 0
 918.622070312 -82 950.622070312 -57 969.622070312 -23 c 0
 989.622070312 11 994.622070312 51 984.622070312 89 c 0x9f80
865.622070312 251 m 0
 865.622070312 233 864.622070312 214 861.622070312 196 c 1
 842.622070312 199 822.622070312 197 803.622070312 192 c 0
 778.622070312 185 756.622070312 173 738.622070312 155 c 1
 636.622070312 214 l 1
 639.622070312 226 641.622070312 238 641.622070312 250 c 0
 641.622070312 317 596.622070312 374 534.622070312 392 c 1
 534.622070312 511 l 1
 578.622070312 523 613.622070312 555 630.622070312 597 c 1
 771.622070312 542 865.622070312 405 865.622070312 251 c 0
494.622070312 319 m 0
 531.622070312 319 561.622070312 289 561.622070312 252 c 0
 561.622070312 215 531.622070312 185 494.622070312 185 c 0xdf80
 457.622070312 185 427.622070312 215 427.622070312 252 c 0
 427.622070312 289 457.622070312 319 494.622070312 319 c 0
494.622070312 720 m 0
 531.622070312 720 561.622070312 690 561.622070312 653 c 0
 561.622070312 616 531.622070312 586 494.622070312 586 c 0
 457.622070312 586 427.622070312 616 427.622070312 653 c 0
 427.622070312 690 457.622070312 720 494.622070312 720 c 0
358.622070312 597 m 1
 375.622070312 556 411.622070312 524 454.622070312 511 c 1
 454.622070312 393 l 1
 392.622070312 376 347.622070312 319 347.622070312 251 c 0
 347.622070312 239 349.622070312 226 352.622070312 215 c 1
 250.622070312 156 l 1
 232.622070312 173 210.622070312 186 185.622070312 193 c 0
 166.622070312 198 146.622070312 199 127.622070312 197 c 1xbf80
 124.622070312 215 123.622070312 233 123.622070312 252 c 0
 123.622070312 405 218.622070312 542 358.622070312 597 c 1
129.622070312 -14 m 0
 112.622070312 -9 97.6220703125 2 88.6220703125 17 c 0
 69.6220703125 49 80.6220703125 90 113.622070312 109 c 0
 123.622070312 115 135.622070312 118 147.622070312 118 c 0
 153.622070312 118 159.622070312 117 165.622070312 116 c 0
 182.622070312 111 197.622070312 100 206.622070312 85 c 0
 215.622070312 69 217.622070312 51 213.622070312 34 c 0
 208.622070312 17 197.622070312 2 182.622070312 -7 c 0
 164.622070312 -17 146.622070312 -19 129.622070312 -14 c 0
263.622070312 -39 m 1
 275.622070312 -24 284.622070312 -6 289.622070312 13 c 0
 296.622070312 38 296.622070312 63 289.622070312 87 c 1
 391.622070312 146 l 1
 418.622070312 120 454.622070312 104 494.622070312 104 c 0xdf80
 534.622070312 104 570.622070312 120 597.622070312 146 c 1
 699.622070312 87 l 1
 693.622070312 63 693.622070312 37 699.622070312 13 c 0
 704.622070312 -6 713.622070312 -24 725.622070312 -39 c 1
 660.622070312 -92 579.622070312 -120 494.622070312 -120 c 0
 409.622070312 -120 328.622070312 -92 263.622070312 -39 c 1
900.622070312 17 m 0
 891.622070312 1 877.622070312 -10 859.622070312 -14 c 0
 842.622070312 -19 824.622070312 -16 808.622070312 -7 c 0
 792.622070312 2 781.622070312 16 777.622070312 34 c 0
 772.622070312 51 775.622070312 69 784.622070312 85 c 0
 793.622070312 101 807.622070312 112 825.622070312 116 c 0
 831.622070312 118 837.622070312 118 843.622070312 118 c 0xbf80
 855.622070312 118 866.622070312 115 877.622070312 109 c 0
 893.622070312 100 904.622070312 86 908.622070312 68 c 0
 911.622070312 51 909.622070312 33 900.622070312 17 c 0
EndSplineSet
Validated: 41
Ligature2: "Liga-1" s h a r e
EndChar

StartChar: add
Encoding: 57429 57429 145
Width: 1000
GlyphClass: 3
Flags: MW
HStem: -200 80<384 616 384 638> 720 80<384 616>
VStem: 0 80<184 416 184 438> 920 80<184 416>
LayerCount: 2
Fore
SplineSet
500 -200 m 0
 224 -200 0 24 0 300 c 0
 0 576 224 800 500 800 c 0
 776 800 1000 576 1000 300 c 0
 1000 24 776 -200 500 -200 c 0
500 720 m 0
 268 720 80 532 80 300 c 0
 80 68 268 -120 500 -120 c 0
 732 -120 920 68 920 300 c 0
 920 532 732 720 500 720 c 0
813 340 m 1
 540 340 l 1
 540 613 l 1
 460 613 l 1
 460 340 l 1
 187 340 l 1
 187 260 l 1
 460 260 l 1
 460 -13 l 1
 540 -13 l 1
 540 260 l 1
 813 260 l 1
 813 340 l 1
EndSplineSet
Validated: 9
Ligature2: "Liga-1" a d d
EndChar

StartChar: delete
Encoding: 57430 57430 146
Width: 1000
GlyphClass: 3
Flags: MW
HStem: -200 80<384 616 384 638> 720 80<384 616>
VStem: 0 80<184 416 184 438> 920 80<184 416>
LayerCount: 2
Fore
SplineSet
500 -200 m 0
 224 -200 0 24 0 300 c 0
 0 576 224 800 500 800 c 0
 776 800 1000 576 1000 300 c 0
 1000 24 776 -200 500 -200 c 0
500 720 m 0
 268 720 80 532 80 300 c 0
 80 68 268 -120 500 -120 c 0
 732 -120 920 68 920 300 c 0
 920 532 732 720 500 720 c 0
187 260 m 1
 812 260 l 1
 812 340 l 1
 187 340 l 1
 187 260 l 1
EndSplineSet
Validated: 9
Ligature2: "Liga-1" d e l e t e
EndChar

StartChar: new
Encoding: 57431 57431 147
Width: 981
GlyphClass: 3
Flags: MW
HStem: -200 81<488.299 492.299 488.299 504.299> -50 80<171.299 179.299> 720 80<488.299 492.299>
LayerCount: 2
Fore
SplineSet
490.298828125 -200 m 0
 462.298828125 -200 435.298828125 -188 416.298828125 -168 c 2
 400.298828125 -152 l 2
 394.298828125 -145 384.298828125 -143 375.298828125 -146 c 2
 354.298828125 -154 l 2
 328.298828125 -164 298.298828125 -163 273.298828125 -150 c 0
 248.298828125 -138 228.298828125 -116 220.298828125 -89 c 2
 213.298828125 -67 l 2
 210.298828125 -58 202.298828125 -52 193.298828125 -51 c 2
 171.298828125 -50 l 2
 143.298828125 -48 117.298828125 -34 100.298828125 -12 c 0
 83.298828125 10 75.298828125 38 79.298828125 66 c 2
 82.298828125 89 l 2
 83.298828125 98 79.298828125 107 71.298828125 112 c 2
 51.298828125 124 l 2
 27.298828125 138 10.298828125 162 3.298828125 190 c 0
 -3.701171875 218 2.298828125 246 18.298828125 270 c 2
 30.298828125 287 l 2
 35.298828125 295 35.298828125 305 30.298828125 312 c 2
 17.298828125 331 l 2
 2.298828125 354 -3.701171875 383 2.298828125 411 c 0
 8.298828125 438 26.298828125 462 50.298828125 477 c 2
 70.298828125 489 l 2
 78.298828125 494 82.298828125 503 81.298828125 512 c 2
 78.298828125 535 l 2
 74.298828125 563 82.298828125 591 99.298828125 613 c 0
 116.298828125 635 143.298828125 649 170.298828125 651 c 2
 193.298828125 653 l 2
 202.298828125 654 210.298828125 660 213.298828125 669 c 2
 220.298828125 691 l 2
 229.298828125 718 248.298828125 740 273.298828125 752 c 0
 298.298828125 764 328.298828125 765 354.298828125 756 c 2
 375.298828125 748 l 2
 384.298828125 745 393.298828125 747 400.298828125 754 c 2
 416.298828125 770 l 2
 435.298828125 788 462.298828125 800 490.298828125 800 c 0
 518.298828125 800 545.298828125 788 564.298828125 768 c 2
 580.298828125 752 l 2
 586.298828125 745 596.298828125 743 605.298828125 746 c 2
 626.298828125 754 l 2
 652.298828125 764 682.298828125 763 707.298828125 750 c 0
 732.298828125 738 752.298828125 716 760.298828125 689 c 2
 767.298828125 667 l 2
 770.298828125 658 778.298828125 652 787.298828125 651 c 2
 810.298828125 649 l 2
 838.298828125 647 864.298828125 633 881.298828125 611 c 0
 898.298828125 589 906.298828125 561 902.298828125 533 c 2
 899.298828125 511 l 2
 898.298828125 502 902.298828125 493 910.298828125 488 c 2
 930.298828125 476 l 2
 954.298828125 462 971.298828125 438 978.298828125 410 c 0
 984.298828125 383 979.298828125 354 963.298828125 330 c 2
 950.298828125 313 l 2
 945.298828125 305 945.298828125 295 950.298828125 288 c 2
 963.298828125 269 l 2
 978.298828125 246 984.298828125 217 978.298828125 189 c 0
 972.298828125 162 954.298828125 138 930.298828125 124 c 2
 910.298828125 112 l 2
 902.298828125 107 898.298828125 98 899.298828125 89 c 2
 902.298828125 66 l 2
 906.298828125 38 898.298828125 10 881.298828125 -12 c 0
 864.298828125 -34 837.298828125 -48 810.298828125 -50 c 2
 787.298828125 -52 l 2
 778.298828125 -53 770.298828125 -59 767.298828125 -68 c 2
 760.298828125 -89 l 2
 751.298828125 -116 732.298828125 -138 707.298828125 -150 c 0
 682.298828125 -162 652.298828125 -163 626.298828125 -154 c 2
 605.298828125 -146 l 2
 596.298828125 -143 587.298828125 -145 580.298828125 -152 c 2
 564.298828125 -168 l 2
 545.298828125 -188 518.298828125 -200 490.298828125 -200 c 0
383.298828125 -64 m 0
 411.298828125 -64 438.298828125 -75 457.298828125 -96 c 2
 473.298828125 -112 l 2
 479.298828125 -118 486.298828125 -119 490.298828125 -119 c 0
 494.298828125 -119 501.298828125 -118 507.298828125 -112 c 2
 523.298828125 -96 l 2
 552.298828125 -66 595.298828125 -56 634.298828125 -71 c 2
 655.298828125 -79 l 2
 663.298828125 -82 670.298828125 -80 673.298828125 -78 c 0
 676.298828125 -76 682.298828125 -73 685.298828125 -64 c 2
 692.298828125 -42 l 2
 705.298828125 -3 740.298828125 25 781.298828125 29 c 2
 804.298828125 31 l 2
 812.298828125 32 818.298828125 37 820.298828125 39 c 0
 822.298828125 41 826.298828125 48 825.298828125 56 c 2
 820.298828125 78 l 2
 814.298828125 119 834.298828125 159 869.298828125 180 c 2
 889.298828125 192 l 2
 896.298828125 196 899.298828125 203 900.298828125 207 c 0
 901.298828125 211 901.298828125 218 897.298828125 225 c 2
 884.298828125 244 l 2
 861.298828125 279 861.298828125 323 884.298828125 358 c 2
 897.298828125 377 l 2
 902.298828125 384 901.298828125 391 900.298828125 395 c 0
 899.298828125 399 897.298828125 405 889.298828125 410 c 2
 869.298828125 422 l 2
 833.298828125 443 814.298828125 483 820.298828125 524 c 2
 823.298828125 546 l 2
 824.298828125 554 821.298828125 560 818.298828125 563 c 0
 816.298828125 566 811.298828125 571 802.298828125 571 c 2
 780.298828125 572 l 2
 739.298828125 576 704.298828125 603 691.298828125 643 c 2
 684.298828125 665 l 2
 681.298828125 673 675.298828125 677 672.298828125 679 c 0
 669.298828125 681 662.298828125 683 654.298828125 680 c 2
 633.298828125 672 l 2
 594.298828125 657 551.298828125 667 522.298828125 697 c 2
 506.298828125 713 l 2
 501.298828125 719 494.298828125 720 490.298828125 720 c 0
 486.298828125 720 479.298828125 719 473.298828125 713 c 2
 457.298828125 697 l 2
 428.298828125 667 385.298828125 657 346.298828125 672 c 2
 325.298828125 680 l 2
 317.298828125 683 310.298828125 681 307.298828125 679 c 0
 304.298828125 677 298.298828125 674 295.298828125 665 c 2
 288.298828125 643 l 2
 275.298828125 604 240.298828125 576 199.298828125 572 c 2
 177.298828125 570 l 2
 169.298828125 569 163.298828125 564 161.298828125 562 c 0
 159.298828125 559 155.298828125 553 156.298828125 545 c 2
 159.298828125 522 l 2
 165.298828125 481 145.298828125 441 110.298828125 420 c 2
 90.298828125 408 l 2
 83.298828125 404 80.298828125 397 79.298828125 393 c 0
 80.298828125 390 79.298828125 383 84.298828125 376 c 2
 97.298828125 357 l 2
 120.298828125 322 120.298828125 278 97.298828125 243 c 2
 84.298828125 224 l 2
 79.298828125 217 80.298828125 210 81.298828125 207 c 0
 82.298828125 203 84.298828125 197 92.298828125 192 c 2
 112.298828125 180 l 2
 148.298828125 159 167.298828125 119 161.298828125 78 c 2
 158.298828125 55 l 2
 157.298828125 47 160.298828125 41 163.298828125 38 c 0
 165.298828125 35 170.298828125 30 179.298828125 30 c 2
 202.298828125 28 l 2
 243.298828125 24 278.298828125 -3 291.298828125 -43 c 2
 298.298828125 -65 l 2
 301.298828125 -73 307.298828125 -77 310.298828125 -79 c 0
 313.298828125 -81 320.298828125 -83 328.298828125 -80 c 2
 349.298828125 -72 l 2
 359.298828125 -67 371.298828125 -64 383.298828125 -64 c 0
EndSplineSet
Validated: 33
Ligature2: "Liga-1" n e w
EndChar

StartChar: account_guest
Encoding: 57432 57432 148
Width: 999
GlyphClass: 3
Flags: MW
HStem: -200 80<684.5 775 664.5 796.5> -138 79<433 469 469 476 433 480.5> 155 80<334 449 449 449> 280 81<670.5 744.5 670.5 775> 302 80<450.5 487.5 450.5 509.5> 516 80<450.5 487.5> 720 80<362 576.5>
VStem: 0 80<278 438 278 460> 192 80<58 93 58 58> 322 80<430.5 467.5 430.5 489.5> 439 81<54.5 93> 536 80<430.5 467.5> 858 80<324 331 324 324> 920 79<25 80 3 135>
LayerCount: 2
Fore
SplineSet
469 302 m 0x2ff0
 550 302 616 368 616 449 c 0
 616 530 550 596 469 596 c 0
 388 596 322 530 322 449 c 0
 322 368 388 302 469 302 c 0x2ff0
469 516 m 0
 506 516 536 486 536 449 c 0
 536 412 506 382 469 382 c 0
 432 382 402 412 402 449 c 0
 402 486 432 516 469 516 c 0
760 180 m 1
 680 180 l 1
 680 64 l 1
 787 -43 l 1
 843 13 l 1
 760 97 l 1
 760 180 l 1
933 262 m 1
 936 285 938 308 938 331 c 0
 939 589 728 800 469 800 c 0
 211 800 0 589 0 331 c 0
 0 72 211 -138 469 -138 c 0x67f8
 492 -138 515 -136 538 -133 c 1
 587 -174 650 -200 719 -200 c 0
 874 -200 999 -74 999 80 c 0xa7f4
 1000 149 975 213 933 262 c 1
80 331 m 0
 80 545 255 720 469 720 c 0
 684 720 858 545 858 331 c 2
 858 324 l 1
 817 347 770 361 719 361 c 0x37f8
 622 361 536 311 485 235 c 1
 334 235 l 2
 256 235 192 171 192 93 c 2
 192 58 l 1
 123 128 80 225 80 331 c 0
272 -5 m 1
 272 93 l 2
 272 127 300 155 334 155 c 2
 449 155 l 1
 442 131 439 106 439 80 c 0
 439 29 452 -18 476 -59 c 1
 469 -59 l 2x67f0
 397 -59 330 -39 272 -5 c 1
720 -120 m 0xb7f4
 609 -120 520 -30 520 80 c 0
 520 190 610 280 720 280 c 0
 830 280 920 190 920 80 c 0
 920 -30 830 -120 720 -120 c 0xb7f4
EndSplineSet
Validated: 41
Ligature2: "Liga-1" a c c o u n t underscore g u e s t
EndChar

StartChar: experimental
Encoding: 57433 57433 149
Width: 936
GlyphClass: 3
Flags: MW
HStem: -200 79<99.499 836.499 836.499 837.499>
VStem: 317.499 80<417 418 418 800> 539.499 80<407 800 418 444 524 568 524 524 648 692 648 648 772 800 772 772>
LayerCount: 2
Fore
SplineSet
920.499023438 -45 m 2
 622.499023438 407 l 2
 620.499023438 410 619.499023438 414 619.499023438 418 c 2
 619.499023438 800 l 1
 539.499023438 800 l 1
 539.499023438 772 l 1
 468.499023438 772 l 1
 468.499023438 692 l 1
 539.499023438 692 l 1
 539.499023438 648 l 1
 468.499023438 648 l 1
 468.499023438 568 l 1
 539.499023438 568 l 1
 539.499023438 524 l 1
 468.499023438 524 l 1
 468.499023438 444 l 1
 539.499023438 444 l 1
 539.499023438 417 l 2
 539.499023438 397 545.499023438 378 556.499023438 362 c 2
 854.499023438 -90 l 2
 860.499023438 -99 857.499023438 -107 855.499023438 -110 c 0
 853.499023438 -113 848.499023438 -121 837.499023438 -121 c 2
 99.4990234375 -121 l 2
 88.4990234375 -121 83.4990234375 -114 81.4990234375 -110 c 0
 79.4990234375 -107 76.4990234375 -99 82.4990234375 -90 c 2
 380.499023438 362 l 2
 391.499023438 378 397.499023438 397 397.499023438 417 c 2
 397.499023438 800 l 1
 317.499023438 800 l 1
 317.499023438 418 l 2
 317.499023438 414 316.499023438 410 314.499023438 407 c 2
 16.4990234375 -45 l 2
 -3.5009765625 -76 -5.5009765625 -115 11.4990234375 -147 c 0
 28.4990234375 -179 62.4990234375 -200 99.4990234375 -200 c 2
 836.499023438 -200 l 2
 873.499023438 -200 907.499023438 -180 924.499023438 -147 c 0
 941.499023438 -114 940.499023438 -76 920.499023438 -45 c 2
EndSplineSet
Validated: 41
Ligature2: "Liga-1" e x p e r i m e n t a l
EndChar

StartChar: fav
Encoding: 57434 57434 150
Width: 1000
GlyphClass: 3
Flags: MW
HStem: 669 80<231.5 325 675 768.5>
VStem: 0 80<387 517.5 328 540> 920 80<387 517.5>
LayerCount: 2
Fore
SplineSet
500 -149 m 0
 494 -149 487 -147 481 -144 c 0
 476 -141 360 -80 243 23 c 0
 84 163 0 314 0 460 c 0
 0 620 130 749 289 749 c 0
 370 749 446 716 500 658 c 1
 554 716 630 749 711 749 c 0
 870 749 1000 620 1000 460 c 0
 1000 314 916 163 756 22 c 0
 639 -81 523 -142 519 -145 c 0
 513 -148 506 -149 500 -149 c 0
289 669 m 0
 174 669 80 575 80 460 c 0
 80 196 416 -15 500 -64 c 1
 584 -16 920 196 920 460 c 0
 920 575 826 669 711 669 c 0
 639 669 573 632 534 571 c 0
 527 559 514 552 500 552 c 0
 486 552 473 559 466 571 c 0
 428 633 361 669 289 669 c 0
EndSplineSet
Validated: 1
Ligature2: "Liga-1" f a v
EndChar

StartChar: info
Encoding: 57435 57435 151
Width: 1000
GlyphClass: 3
Flags: MW
HStem: -200 80<384 616 384 638> 467 80<488.954 511.046> 720 80<384 616>
VStem: 0 80<184 416 184 438> 460 80<53 393 53 393 495.954 518.046> 920 80<184 416>
CounterMasks: 1 1c
LayerCount: 2
Fore
SplineSet
500 -200 m 0
 224 -200 0 24 0 300 c 0
 0 576 224 800 500 800 c 0
 776 800 1000 576 1000 300 c 0
 1000 24 776 -200 500 -200 c 0
500 720 m 0
 268 720 80 532 80 300 c 0
 80 68 268 -120 500 -120 c 0
 732 -120 920 68 920 300 c 0
 920 532 732 720 500 720 c 0
460 53 m 1
 540 53 l 1
 540 393 l 1
 460 393 l 1
 460 53 l 1
460 507 m 0
 460 484.908203125 477.908203125 467 500 467 c 0
 522.091796875 467 540 484.908203125 540 507 c 0
 540 529.091796875 522.091796875 547 500 547 c 0
 477.908203125 547 460 529.091796875 460 507 c 0
EndSplineSet
Validated: 9
Ligature2: "Liga-1" i n f o
EndChar

StartChar: qr
Encoding: 57436 57436 152
Width: 1000
GlyphClass: 3
Flags: MW
HStem: -200 80<50.5 295 80 295 80 295 705 920> -51 80<229 355 229 435> 155 80<229 355 229 229> 365 80<229 355 229 435 645 771> 571 80<229 355 229 229 645 645 645 771> 720 80<80 294 80 80 705 920>
VStem: 0 80<-120 106 -120 106 -120 106 517 720> 149 80<29 29 29 155 445 571> 355 80<29 155 155 155 445 571 571 571> 565 80<445 445 445 571> 771 80<445 571 571 571> 920 80<-120 106 517 720 720 720>
LayerCount: 2
Fore
SplineSet
80 517 m 1
 0 517 l 1
 0 730 l 2
 0 769 32 800 70 800 c 2
 294 800 l 1
 294 720 l 1
 80 720 l 1
 80 517 l 1
1000 517 m 1
 920 517 l 1
 920 720 l 1
 705 720 l 1
 705 800 l 1
 930 800 l 2
 969 800 1000 768 1000 730 c 2
 1000 517 l 1
295 -200 m 1
 70 -200 l 2
 31 -200 0 -168 0 -130 c 2
 0 106 l 1
 80 106 l 1
 80 -120 l 1
 295 -120 l 1
 295 -200 l 1
930 -200 m 2
 705 -200 l 1
 705 -120 l 1
 920 -120 l 1
 920 106 l 1
 1000 106 l 1
 1000 -130 l 2
 1000 -168 968 -200 930 -200 c 2
435 365 m 1
 149 365 l 1
 149 651 l 1
 435 651 l 1
 435 365 l 1
229 445 m 1
 355 445 l 1
 355 571 l 1
 229 571 l 1
 229 445 l 1
851 365 m 1
 565 365 l 1
 565 651 l 1
 851 651 l 1
 851 365 l 1
645 445 m 1
 771 445 l 1
 771 571 l 1
 645 571 l 1
 645 445 l 1
435 -51 m 1
 149 -51 l 1
 149 235 l 1
 435 235 l 1
 435 -51 l 1
229 29 m 1
 355 29 l 1
 355 155 l 1
 229 155 l 1
 229 29 l 1
EndSplineSet
Validated: 1
Ligature2: "Liga-1" q r
EndChar

StartChar: ios
Encoding: 57437 57437 153
Width: 591
GlyphClass: 3
Flags: MW
HStem: -200 80<100 491 491 492> 720 80<100 164 164 164 427 491 491 492>
VStem: 0 80<-127.5 700 -100 700> 511 80<-100 700 -100 700>
LayerCount: 2
Fore
SplineSet
492 800 m 2
 100 800 l 2
 45 800 0 755 0 700 c 2
 0 -100 l 2
 0 -155 45 -200 100 -200 c 2
 491 -200 l 2
 546 -200 591 -155 591 -100 c 2
 591 700 l 2
 592 755 547 800 492 800 c 2
512 -100 m 1
 512 -111 503 -120 492 -120 c 2
 100 -120 l 2
 89 -120 80 -111 80 -100 c 2
 80 700 l 2
 80 711 89 720 100 720 c 2
 164 720 l 1
 164 693 l 2
 164 680 175 669 188 669 c 2
 403 669 l 2
 416 669 427 680 427 693 c 2
 427 720 l 1
 491 720 l 2
 502 720 511 711 511 700 c 2
 511 -100 l 1
 512 -100 l 1
EndSplineSet
Validated: 41
Ligature2: "Liga-1" i o s
EndChar

StartChar: smartphone
Encoding: 57438 57438 154
Width: 591
GlyphClass: 3
Flags: MW
HStem: -200 80<72.5 491 100 491 491 492> -66 80<289.954 312.046> 720 80<94.5 491 100 491>
VStem: 0 80<-100 700> 261 80<-37.0459 -14.9541> 511 80<-100 700 -100 705.5>
LayerCount: 2
Fore
SplineSet
492 -200 m 2
 100 -200 l 2
 45 -200 0 -155 0 -100 c 2
 0 700 l 2
 0 755 45 800 100 800 c 2
 491 800 l 2
 546 800 591 755 591 700 c 2
 591 -100 l 2
 592 -155 547 -200 492 -200 c 2
100 720 m 2
 89 720 80 711 80 700 c 2
 80 -100 l 2
 80 -111 89 -120 100 -120 c 2
 491 -120 l 2
 502 -120 511 -111 511 -100 c 2
 511 700 l 2
 511 711 502 720 491 720 c 2
 100 720 l 2
261 -26 m 0
 261 -48.091796875 278.908203125 -66 301 -66 c 0
 323.091796875 -66 341 -48.091796875 341 -26 c 0
 341 -3.908203125 323.091796875 14 301 14 c 0
 278.908203125 14 261 -3.908203125 261 -26 c 0
EndSplineSet
Validated: 41
Ligature2: "Liga-1" s m a r t p h o n e
EndChar

StartChar: face_good
Encoding: 57439 57439 155
Width: 1000
GlyphClass: 3
Flags: MW
HStem: -200 80<384 616 384 638> 246 223 720 80<384 616>
VStem: 0 80<184 416 184 438> 329 76<298 419> 595 76<298 419> 920 80<184 416>
LayerCount: 2
Fore
SplineSet
500 -200 m 0
 224 -200 0 24 0 300 c 0
 0 576 224 800 500 800 c 0
 776 800 1000 576 1000 300 c 0
 1000 24 776 -200 500 -200 c 0
500 720 m 0
 268 720 80 532 80 300 c 0
 80 68 268 -120 500 -120 c 0
 732 -120 920 68 920 300 c 0
 920 532 732 720 500 720 c 0
367 246 m 0
 363 246 359 247 355 248 c 0
 334 255 322 277 329 298 c 0
 342 338 342 380 329 419 c 0
 322 440 334 463 355 469 c 0
 376 476 399 464 405 443 c 0
 423 387 423 328 405 272 c 0
 400 257 384 246 367 246 c 0
633 246 m 0
 629 246 625 247 621 248 c 0
 600 255 588 277 595 298 c 0
 608 338 608 380 595 419 c 0
 588 440 600 463 621 469 c 0
 642 476 665 464 671 443 c 0
 689 387 689 328 671 272 c 0
 665 257 650 246 633 246 c 0
495 16 m 0
 440 16 385 31 337 61 c 0
 318 73 312 97 324 116 c 0
 336 135 360 141 379 129 c 0
 451 85 540 85 612 129 c 0
 631 141 655 135 667 116 c 0
 679 97 673 73 654 61 c 0
 605 31 550 16 495 16 c 0
EndSplineSet
Validated: 33
Ligature2: "Liga-1" f a c e underscore g o o d
EndChar

StartChar: face_bad
Encoding: 57440 57440 156
Width: 1000
GlyphClass: 3
Flags: MW
HStem: -200 80<384 616 384 638> 246 223 720 80<384 616>
VStem: 0 80<184 416 184 438> 329 76<298 419> 595 76<298 419> 920 80<184 416>
LayerCount: 2
Fore
SplineSet
500 -200 m 0
 224 -200 0 24 0 300 c 0
 0 576 224 800 500 800 c 0
 776 800 1000 576 1000 300 c 0
 1000 24 776 -200 500 -200 c 0
500 720 m 0
 268 720 80 532 80 300 c 0
 80 68 268 -120 500 -120 c 0
 732 -120 920 68 920 300 c 0
 920 532 732 720 500 720 c 0
367 246 m 0
 363 246 359 247 355 248 c 0
 334 255 322 277 329 298 c 0
 342 338 342 380 329 419 c 0
 322 440 334 463 355 469 c 0
 376 476 399 464 405 443 c 0
 423 387 423 328 405 272 c 0
 400 257 384 246 367 246 c 0
633 246 m 0
 629 246 625 247 621 248 c 0
 600 255 588 277 595 298 c 0
 608 338 608 380 595 419 c 0
 588 440 600 463 621 469 c 0
 642 476 665 464 671 443 c 0
 689 387 689 328 671 272 c 0
 665 257 650 246 633 246 c 0
633 55 m 0
 626 55 619 57 612 61 c 0
 540 105 451 105 379 61 c 0
 360 49 336 55 324 74 c 0
 312 93 318 117 337 129 c 0
 435 189 556 189 654 129 c 0
 673 117 679 93 667 74 c 0
 659 62 646 55 633 55 c 0
EndSplineSet
Validated: 33
Ligature2: "Liga-1" f a c e underscore b a d
EndChar

StartChar: wasm
Encoding: 57441 57441 157
Width: 1000
GlyphClass: 3
Flags: MW
HStem: -200 81<72.5 900 100 900> 10 54<696 779 696 793 685 779> 610 79<483 517.5 483 533> 721 79<94.5 285 100 285 285 302 302 348 100 360>
VStem: 0 80<-100 -99 -99 700 700 701> 920 80<-99 700>
LayerCount: 2
Fore
SplineSet
900 -200 m 2
 100 -200 l 2
 45 -200 0 -155 0 -100 c 2
 0 700 l 2
 0 755 45 800 100 800 c 2
 285 800 l 2
 411 800 411 800 423 788 c 2
 435 776 l 1
 435 759 l 2
 435 722 466 689 500 689 c 0
 535 689 565 722 565 759 c 2
 565 777 l 1
 577 789 l 2
 590 801 589 802 715 801 c 0
 777 801 850 800 900 800 c 0
 955 800 1000 755 1000 700 c 2
 1000 -100 l 2
 1000 -155 955 -200 900 -200 c 2
302 721 m 1
 100 721 l 2
 89 721 80 712 80 701 c 2
 80 -99 l 2
 80 -110 89 -119 100 -119 c 2
 900 -119 l 2
 911 -119 920 -110 920 -99 c 2
 920 700 l 2
 920 711 911 720 900 720 c 0
 762 721 680 721 640 720 c 1
 623 658 566 610 500 610 c 0
 434 610 377 658 360 721 c 1
 302 721 l 1
254 264 m 1
 315 264 l 1
 357 42 l 1
 358 42 l 1
 408 264 l 1
 465 264 l 1
 509 40 l 1
 510 40 l 1
 557 264 l 1
 617 264 l 1
 540 -62 l 1
 479 -62 l 1
 434 160 l 1
 433 160 l 1
 385 -62 l 1
 323 -62 l 1
 254 264 l 1
686 264 m 1
 782 264 l 1
 877 -62 l 1
 814 -62 l 1
 793 10 l 1
 685 10 l 1
 669 -62 l 1
 608 -62 l 1
 686 264 l 1
723 184 m 1
 696 64 l 1
 779 64 l 1
 748 184 l 1
 723 184 l 1
EndSplineSet
Validated: 33
Ligature2: "Liga-1" w a s m
Ligature2: "Liga-1" w e b a s s e m b l y
EndChar

StartChar: js
Encoding: 57442 57442 158
Width: 1000
GlyphClass: 3
Flags: MW
HStem: -200 80<72.5 900 100 900> -87 77<389 418 389 445.5> 267 75<722.5 747.5> 720 80<94.5 900 100 900>
VStem: 0 80<-100 700> 450 86<44 338> 608 86<217 240.5 217 260.5> 797 87<19.5 47> 920 80<-100 700>
LayerCount: 2
Fore
SplineSet
653 41 m 1
 672 11 696 -11 738 -11 c 0
 774 -11 797 7 797 32 c 0
 797 62 773 72 734 89 c 2
 712 98 l 2
 650 125 608 158 608 228 c 0
 608 293 657 342 735 342 c 0
 790 342 829 323 858 273 c 1
 791 230 l 1
 776 257 760 267 735 267 c 0
 710 267 694 251 694 230 c 0
 694 204 710 194 747 178 c 2
 769 169 l 2
 842 138 884 105 884 33 c 0
 884 -45 823 -87 741 -87 c 0
 661 -87 609 -49 583 1 c 1
 653 41 l 1
348 34 m 1
 362 10 374 -10 404 -10 c 0
 432 -10 450 1 450 44 c 2
 450 338 l 1
 536 338 l 1
 536 43 l 2
 536 -47 484 -87 407 -87 c 0
 338 -87 298 -51 277 -8 c 1
 348 34 l 1
900 -200 m 2
 100 -200 l 2
 45 -200 0 -155 0 -100 c 2
 0 700 l 2
 0 755 45 800 100 800 c 2
 900 800 l 2
 955 800 1000 755 1000 700 c 2
 1000 -100 l 2
 1000 -155 955 -200 900 -200 c 2
100 720 m 2
 89 720 80 711 80 700 c 2
 80 -100 l 2
 80 -111 89 -120 100 -120 c 2
 900 -120 l 2
 911 -120 920 -111 920 -100 c 2
 920 700 l 2
 920 711 911 720 900 720 c 2
 100 720 l 2
EndSplineSet
Validated: 1
Ligature2: "Liga-1" j s
Ligature2: "Liga-1" j a v a s c r i p t
EndChar

StartChar: ng
Encoding: 57443 57443 159
Width: 937
GlyphClass: 3
Flags: W
LayerCount: 2
Fore
SplineSet
468.59375 -200 m 0
 451.59375 -200 435.59375 -196 420.59375 -187 c 2
 108.59375 -15 l 2
 80.59375 1 61.59375 29 57.59375 61 c 2
 0.59375 557 l 2
 -4.40625 603 22.59375 647 66.59375 663 c 2
 434.59375 794 l 2
 456.59375 802 480.59375 802 501.59375 794 c 2
 870.59375 662 l 2
 914.59375 646 941.59375 603 936.59375 556 c 2
 879.59375 60 l 2
 875.59375 28 856.59375 0 828.59375 -16 c 2
 516.59375 -188 l 2
 501.59375 -196 485.59375 -200 468.59375 -200 c 0
468.59375 720 m 0
 466.59375 720 463.59375 720 461.59375 719 c 2
 92.59375 587 l 2
 83.59375 584 78.59375 575 79.59375 566 c 2
 136.59375 70 l 2
 137.59375 64 141.59375 58 146.59375 55 c 2
 458.59375 -118 l 2
 464.59375 -121 471.59375 -121 477.59375 -118 c 2
 789.59375 55 l 2
 795.59375 58 798.59375 64 799.59375 70 c 2
 856.59375 566 l 2
 857.59375 575 852.59375 584 843.59375 587 c 2
 475.59375 719 l 2
 473.59375 720 470.59375 720 468.59375 720 c 0
468.59375 661 m 1
 197.59375 52 l 1
 298.59375 52 l 1
 353.59375 188 l 1
 583.59375 188 l 1
 638.59375 52 l 1
 738.59375 52 l 1
 468.59375 661 l 1
547.59375 272 m 1
 389.59375 272 l 1
 468.59375 463 l 1
 547.59375 272 l 1
EndSplineSet
Validated: 41
Ligature2: "Liga-1" n g
EndChar

StartChar: console
Encoding: 57444 57444 160
Width: 1000
GlyphClass: 3
Flags: MW
HStem: -102 81<100 900> 621 80<100 900>
VStem: 0 80<-29.5 461 -1 461 541 601> 920 80<-7 601 -2 461 541 601 541 541>
LayerCount: 2
Fore
SplineSet
900 701 m 2
 100 701 l 2
 45 701 0 656 0 601 c 2
 0 -2 l 2
 0 -57 45 -102 100 -102 c 2
 900 -102 l 2
 955 -102 1000 -57 1000 -2 c 2
 1000 601 l 2
 1000 657 955 701 900 701 c 2
100 621 m 2
 900 621 l 2
 911 621 920 612 920 601 c 2
 920 541 l 1
 80 541 l 1
 80 601 l 2
 80 612 89 621 100 621 c 2
900 -21 m 2
 100 -21 l 2
 89 -21 80 -12 80 -1 c 2
 80 461 l 1
 920 461 l 1
 920 -2 l 2
 920 -12 911 -21 900 -21 c 2
156 301 m 1
 330 301 l 1
 330 381 l 1
 156 381 l 1
 156 301 l 1
156 141 m 1
 541 141 l 1
 541 221 l 1
 156 221 l 1
 156 141 l 1
EndSplineSet
Validated: 9
Ligature2: "Liga-1" c o n s o l e
EndChar

StartChar: edit
Encoding: 57445 57445 161
Width: 999
GlyphClass: 3
Flags: MW
HStem: 721 78<797.651 800.651>
VStem: 921.151 78<597.5 600.5>
LayerCount: 2
Fore
SplineSet
970.151367188 669 m 2
 869.151367188 770 l 2
 850.151367188 789 825.151367188 799 798.151367188 799 c 0
 771.151367188 799 746.151367188 789 727.151367188 770 c 2
 34.1513671875 77 l 2
 28.1513671875 71 23.1513671875 62 23.1513671875 53 c 2
 0.1513671875 -156 l 2
 -0.8486328125 -168 3.1513671875 -180 11.1513671875 -189 c 0
 19.1513671875 -196 29.1513671875 -200 40.1513671875 -200 c 2
 44.1513671875 -200 l 1
 253.151367188 -178 l 2
 262.151367188 -177 271.151367188 -173 277.151367188 -167 c 2
 970.151367188 527 l 2
 989.151367188 546 999.151367188 571 999.151367188 598 c 0
 999.151367188 625 989.151367188 650 970.151367188 669 c 2
231.151367188 -99 m 1
 85.1513671875 -115 l 1
 101.151367188 31 l 1
 681.151367188 611 l 1
 811.151367188 481 l 1
 231.151367188 -99 l 1
914.151367188 584 m 2
 868.151367188 538 l 1
 738.151367188 668 l 1
 785.151367188 715 l 2
 790.151367188 720 796.151367188 721 799.151367188 721 c 0
 802.151367188 721 808.151367188 720 813.151367188 715 c 2
 915.151367188 613 l 2
 920.151367188 608 921.151367188 602 921.151367188 599 c 0
 921.151367188 596 919.151367188 589 914.151367188 584 c 2
246.059570312 -11.0517578125 m 1
 736.080078125 478.967773438 l 1
 679.51171875 535.536132812 l 1
 189.4921875 45.515625 l 1
 246.059570312 -11.0517578125 l 1
EndSplineSet
Validated: 41
Ligature2: "Liga-1" e d i t
EndChar

StartChar: convert
Encoding: 57446 57446 162
Width: 1000
GlyphClass: 3
Flags: MW
HStem: 160 80<188.5 212 188.5 237.5 588.5 612 988.5 1000> 360 80<0 12 388 411.5 788 812>
LayerCount: 2
Fore
SplineSet
1000 160 m 1
 925 160 891 228 864 282 c 0
 841 329 824 360 800 360 c 0
 776 360 759 329 736 282 c 0
 709 228 675 160 600 160 c 0
 525 160 491 228 464 282 c 0
 441 329 423 360 400 360 c 0
 376 360 359 329 336 282 c 0
 309 228 275 160 200 160 c 0
 125 160 91 228 64 282 c 0
 41 329 24 360 0 360 c 1
 0 440 l 1
 75 440 109 372 136 318 c 0
 160 271 177 240 200 240 c 0
 224 240 241 271 264 318 c 0
 291 372 325 440 400 440 c 0
 475 440 509 372 536 318 c 0
 560 271 577 240 600 240 c 0
 624 240 641 271 664 318 c 0
 691 372 725 440 800 440 c 0
 875 440 909 372 936 318 c 0
 960 271 977 240 1000 240 c 1
 1000 160 l 1
EndSplineSet
Validated: 1
Ligature2: "Liga-1" c o n v e r t
EndChar

StartChar: focus
Encoding: 57447 57447 163
Width: 1000
GlyphClass: 3
Flags: MW
HStem: -198 79<455 462> 36 80<449 550.5 449 572.5> 484 80<449.5 550.5> 720 80<462 538>
VStem: 12 78<189 207> 236 80<249.5 351 249.5 372.5> 684 80<249 350.5> 910 78<189 207>
LayerCount: 2
Fore
SplineSet
500 36 m 0
 355 36 236 154 236 300 c 0
 236 445 354 564 500 564 c 0
 645 564 764 446 764 300 c 0
 764 155 645 36 500 36 c 0
500 484 m 0
 399 484 316 402 316 300 c 0
 316 199 398 116 500 116 c 0
 601 116 684 198 684 300 c 0
 684 401 601 484 500 484 c 0
285 661 m 1
 244 730 l 1
 321 776 410 800 500 800 c 0
 590 800 679 776 756 730 c 1
 715 661 l 1
 650 700 576 720 500 720 c 0
 424 720 350 700 285 661 c 1
12 189 m 1
 -8 277 -4 368 24 454 c 0
 52 540 102 617 170 676 c 1
 223 616 l 1
 166 566 124 502 100 430 c 0
 77 358 73 281 90 207 c 1
 12 189 l 1
455 -198 m 1
 365 -190 279 -158 206 -104 c 0
 133 -51 76 20 40 103 c 1
 114 134 l 1
 144 65 192 4 253 -40 c 0
 314 -84 387 -112 462 -119 c 1
 455 -198 l 1
545 -198 m 1
 538 -118 l 1
 613 -111 685 -84 747 -39 c 0
 808 6 857 66 886 135 c 1
 960 104 l 1
 925 21 867 -50 794 -104 c 0
 721 -158 635 -190 545 -198 c 1
988 189 m 1
 910 207 l 1
 927 281 923 358 900 430 c 0
 877 502 834 567 777 616 c 1
 830 676 l 1
 898 617 948 540 976 454 c 0
 1003 369 1008 277 988 189 c 1
EndSplineSet
Validated: 33
Ligature2: "Liga-1" f o c u s
EndChar

StartChar: warning
Encoding: 57448 57448 164
Width: 1000
GlyphClass: 3
Flags: MW
HStem: -117 80<82.5 899 101 899> 18 80<488.954 511.046> 661 81<498.5 501.5>
VStem: 460 80<46.9541 69.0459 171 511>
LayerCount: 2
Fore
SplineSet
899 -117 m 2
 101 -117 l 2
 64 -117 32 -98 14 -66 c 0
 -4 -34 -3 4 16 35 c 2
 415 694 l 2
 433 724 465 742 501 742 c 0
 536 742 568 724 587 694 c 2
 986 35 l 2
 1005 4 1006 -34 988 -66 c 0
 970 -98 936 -117 899 -117 c 2
500 661 m 0
 497 661 488 660 483 651 c 2
 84 -7 l 2
 79 -16 82 -24 84 -27 c 0
 86 -30 91 -37 101 -37 c 2
 899 -37 l 2
 910 -37 915 -30 916 -27 c 0
 918 -24 921 -16 916 -7 c 2
 517 652 l 2
 512 661 503 661 500 661 c 0
460 171 m 1
 540 171 l 1
 540 511 l 1
 460 511 l 1
 460 171 l 1
460 58 m 0
 460 35.908203125 477.908203125 18 500 18 c 0
 522.091796875 18 540 35.908203125 540 58 c 0
 540 80.091796875 522.091796875 98 500 98 c 0
 477.908203125 98 460 80.091796875 460 58 c 0
EndSplineSet
Validated: 41
Ligature2: "Liga-1" w a r n i n g
EndChar

StartChar: email
Encoding: 57449 57449 165
Width: 1000
GlyphClass: 3
Flags: MW
HStem: -200 80<384 540 384 547.5> 72 80<459.5 540.5 459.5 541> 124 80<798 850.5 797.5 872.5> 448 80<459 540.5> 720 80<384 616>
VStem: 0 80<184 416 184 438> 272 80<259 340.5 259 363> 648 80<273.5 341> 920 80<273.5 416>
LayerCount: 2
Fore
SplineSet
500 800 m 0xbf80
 224 800 0 576 0 300 c 0
 0 24 224 -200 500 -200 c 0
 595 -200 688 -173 768 -122 c 1
 725 -55 l 1
 658 -97 580 -120 500 -120 c 0
 268 -120 80 68 80 300 c 0
 80 532 268 720 500 720 c 0
 732 720 920 532 920 300 c 0
 920 247 877 204 824 204 c 0xbf80
 771 204 728 247 728 300 c 0
 728 425 626 528 500 528 c 0
 375 528 272 426 272 300 c 0
 272 175 374 72 500 72 c 0xdf80
 582 72 654 116 694 181 c 1
 726 146 772 124 824 124 c 0
 921 124 1000 203 1000 300 c 0
 1000 576 776 800 500 800 c 0xbf80
500 152 m 0xdf80
 419 152 352 218 352 300 c 0
 352 381 418 448 500 448 c 0
 581 448 648 382 648 300 c 0
 648 219 581 152 500 152 c 0xdf80
EndSplineSet
Validated: 9
Ligature2: "Liga-1" e m a i l
EndChar

StartChar: stream
Encoding: 57450 57450 166
Width: 1000
GlyphClass: 3
Flags: MW
HStem: 204 192<473.49 526.51 473.49 526.51>
VStem: 0 80<244 356 244 367> 171 80<266.5 333 266.5 344> 404 192<273.49 326.51 273.49 326.51>
LayerCount: 2
Fore
SplineSet
854 -54 m 1
 797 3 l 1
 961 167 961 433 797 597 c 1
 854 654 l 1
 1049 459 1049 141 854 -54 c 1
146 -54 m 1
 52 41 0 166 0 300 c 0
 0 434 52 559 146 654 c 1
 203 597 l 1
 124 518 80 412 80 300 c 0
 80 188 124 82 203 3 c 1
 146 -54 l 1
733 67 m 1
 676 124 l 1
 773 221 773 379 676 476 c 1
 733 533 l 1
 861 404 861 196 733 67 c 1
267 67 m 1
 205 129 171 212 171 300 c 0
 171 388 205 471 267 533 c 1
 324 476 l 1
 277 429 251 366 251 300 c 0
 251 233 277 171 324 124 c 1
 267 67 l 1
404 300 m 0
 404 246.98046875 446.98046875 204 500 204 c 0
 553.01953125 204 596 246.98046875 596 300 c 0
 596 353.01953125 553.01953125 396 500 396 c 0
 446.98046875 396 404 353.01953125 404 300 c 0
404 300 m 0
 404 246.98046875 446.98046875 204 500 204 c 0
 553.01953125 204 596 246.98046875 596 300 c 0
 596 353.01953125 553.01953125 396 500 396 c 0
 446.98046875 396 404 353.01953125 404 300 c 0
EndSplineSet
Validated: 37
Ligature2: "Liga-1" s t r e a m
EndChar

StartChar: disc
Encoding: 57451 57451 167
Width: 1000
GlyphClass: 3
Flags: MW
HStem: -200 80<384 616 384 638> 155 80<482 518 482 540> 365 80<482 518> 720 80<384 616>
VStem: 0 80<184 416 184 438> 355 80<282 318 282 340> 565 80<282 318> 920 80<184 416>
LayerCount: 2
Fore
SplineSet
500 -200 m 0
 224 -200 0 24 0 300 c 0
 0 576 224 800 500 800 c 0
 776 800 1000 576 1000 300 c 0
 1000 24 776 -200 500 -200 c 0
500 720 m 0
 268 720 80 532 80 300 c 0
 80 68 268 -120 500 -120 c 0
 732 -120 920 68 920 300 c 0
 920 532 732 720 500 720 c 0
500 155 m 0
 420 155 355 220 355 300 c 0
 355 380 420 445 500 445 c 0
 580 445 645 380 645 300 c 0
 645 220 580 155 500 155 c 0
500 365 m 0
 464 365 435 336 435 300 c 0
 435 264 464 235 500 235 c 0
 536 235 565 264 565 300 c 0
 565 336 536 365 500 365 c 0
EndSplineSet
Validated: 1
Ligature2: "Liga-1" d i s c
EndChar

StartChar: ts
Encoding: 57452 57452 168
Width: 1000
GlyphClass: 3
Flags: MW
HStem: -200 80<72.5 900 100 900> -87 73<711 722.5 707 733> 264 72<764 773> 720 80<94.5 900 100 900>
VStem: 0 80<-100 700> 603 97<219.5 224.5> 786 98<24.5 31> 920 80<-100 700>
LayerCount: 2
Fore
SplineSet
900 -200 m 2
 100 -200 l 2
 45 -200 0 -155 0 -100 c 2
 0 700 l 2
 0 755 45 800 100 800 c 2
 900 800 l 2
 955 800 1000 755 1000 700 c 2
 1000 -100 l 2
 1000 -155 955 -200 900 -200 c 2
100 720 m 2
 89 720 80 711 80 700 c 2
 80 -100 l 2
 80 -111 89 -120 100 -120 c 2
 900 -120 l 2
 911 -120 920 -111 920 -100 c 2
 920 700 l 2
 920 711 911 720 900 720 c 2
 100 720 l 2
605 27 m 1
 605 -64 l 1
 620 -72 637 -77 658 -81 c 0
 678 -85 700 -87 722 -87 c 0
 744 -87 765 -85 784 -81 c 0
 804 -77 821 -70 836 -60 c 0
 851 -50 863 -38 871 -22 c 0
 880 -6 884 13 884 36 c 0
 884 53 882 67 877 80 c 0
 872 92 865 104 856 113 c 0
 847 123 836 131 823 139 c 0
 810 147 795 154 779 161 c 0
 767 166 756 171 747 175 c 0
 738 180 729 184 723 189 c 0
 716 194 711 199 708 204 c 0
 702 210 700 216 700 223 c 0
 700 229 702 235 705 240 c 0
 708 245 713 249 719 253 c 0
 725 257 732 259 741 261 c 0
 750 263 759 264 769 264 c 0
 777 264 785 263 793 262 c 0
 801 261 810 259 818 257 c 0
 827 255 835 252 843 248 c 0
 851 244 859 240 865 235 c 1
 865 320 l 1
 851 325 836 329 820 332 c 0
 804 335 785 336 763 336 c 0
 741 336 721 334 702 329 c 0
 683 324 666 317 651 307 c 0
 636 297 625 284 616 269 c 0
 607 254 603 235 603 214 c 0
 603 187 611 164 626 144 c 0
 642 125 665 108 697 95 c 0
 710 90 721 85 732 80 c 0
 743 75 752 70 760 65 c 0
 768 60 774 54 779 48 c 0
 784 42 786 35 786 27 c 0
 786 21 785 16 782 11 c 0
 779 6 775 2 769 -2 c 0
 763 -6 756 -9 747 -11 c 0
 738 -13 728 -14 717 -14 c 0
 697 -14 678 -11 658 -4 c 0
 640 3 622 13 605 27 c 1
452 255 m 1
 571 255 l 1
 571 330 l 1
 239 330 l 1
 239 255 l 1
 358 255 l 1
 358 -80 l 1
 452 -80 l 1
 452 255 l 1
EndSplineSet
Validated: 9
Ligature2: "Liga-1" t s
Ligature2: "Liga-1" t y p e s c r i p t
EndChar

StartChar: new_folder
Encoding: 57453 57453 169
Width: 1000
GlyphClass: 3
Flags: MW
HStem: -200 80<656 770 656 792> 294 80<656 770> 485 81<478 479 479 900> 637 81<100 345 345 346>
VStem: 0 80<-65.5 617 -38 617 617 618> 426 80<30 144 30 166> 920 80<30 144 341 465>
LayerCount: 2
Fore
SplineSet
900 566 m 2
 479 566 l 2
 470 566 462 572 460 581 c 2
 442 645 l 2
 430 688 390 718 346 718 c 2
 100 718 l 2
 45 718 0 673 0 618 c 2
 0 -38 l 2
 0 -93 45 -138 100 -138 c 2
 415 -138 l 1
 415 -58 l 1
 100 -58 l 2
 89 -58 80 -49 80 -38 c 2
 80 617 l 2
 80 628 89 637 100 637 c 2
 345 637 l 2
 354 637 362 631 364 622 c 2
 382 558 l 2
 394 515 434 485 478 485 c 2
 900 485 l 2
 911 485 920 476 920 465 c 2
 920 341 l 1
 1000 341 l 1
 1000 466 l 2
 1000 521 955 566 900 566 c 2
713 374 m 0
 555 374 426 245 426 87 c 0
 426 -71 554 -200 713 -200 c 0
 871 -200 1000 -71 1000 87 c 0
 1000 245 871 374 713 374 c 0
713 -120 m 0
 599 -120 506 -27 506 87 c 0
 506 201 599 294 713 294 c 0
 827 294 920 201 920 87 c 0
 920 -27 827 -120 713 -120 c 0
753 229 m 1
 673 229 l 1
 673 127 l 1
 571 127 l 1
 571 47 l 1
 673 47 l 1
 673 -55 l 1
 753 -55 l 1
 753 47 l 1
 855 47 l 1
 855 127 l 1
 753 127 l 1
 753 229 l 1
EndSplineSet
Validated: 9
Ligature2: "Liga-1" n e w underscore f o l d e r
Ligature2: "Liga-1" c r e a t e underscore f o l d e r
Ligature2: "Liga-1" a d d underscore f o l d e r
EndChar

StartChar: bug
Encoding: 57454 57454 170
Width: 906
GlyphClass: 3
Flags: MW
HStem: -200 80<396.5 509.5 396.5 520.5> 610 80<425 481 425 509.5>
LayerCount: 2
Fore
SplineSet
906 390 m 1
 906 470 l 1
 731 470 l 1
 720 516 698 558 667 593 c 1
 806 732 l 1
 749 789 l 1
 606 646 l 1
 562 674 509 690 453 690 c 0
 397 690 344 673 300 645 c 1
 157 788 l 1
 100 731 l 1
 238 593 l 1
 208 558 185 516 174 470 c 1
 0 470 l 1
 0 390 l 1
 167 390 l 1
 167 285 l 1
 0 285 l 1
 0 205 l 1
 167 205 l 1
 167 100 l 1
 0 100 l 1
 0 20 l 1
 175 20 l 1
 205 -106 318 -200 453 -200 c 0
 588 -200 701 -106 731 20 c 1
 906 20 l 1
 906 100 l 1
 739 100 l 1
 739 205 l 1
 906 205 l 1
 906 285 l 1
 739 285 l 1
 739 390 l 1
 906 390 l 1
659 86 m 2
 659 -28 566 -120 453 -120 c 0
 340 -120 247 -28 247 86 c 2
 247 405 l 2
 247 518 340 610 453 610 c 0
 566 610 659 518 659 404 c 2
 659 86 l 2
413 60 m 1
 493 60 l 1
 493 430 l 1
 413 430 l 1
 413 60 l 1
EndSplineSet
Validated: 9
Ligature2: "Liga-1" b u g
EndChar

StartChar: show
Encoding: 57455 57455 171
Width: 1000
GlyphClass: 3
Flags: MW
HStem: 45 94<446.5 553.5 446.5 572> 262 150<479.29 520.71>
VStem: 226 81<301 345.5> 425 150<316.29 357.71> 695 79<332 346.5 302.5 354.5>
LayerCount: 2
Fore
SplineSet
969 364 m 2
 908 412 l 2
 668 603 332 603 91 412 c 2
 30 364 l 2
 11 348 0 325 0 300 c 0
 0 275 11 252 31 236 c 2
 92 188 l 2
 212 93 356 45 500 45 c 0
 644 45 788 93 908 188 c 2
 969 236 l 2
 989 251 1000 275 1000 300 c 0
 1000 325 989 348 969 364 c 2
141 251 m 2
 80 299 l 1
 80 301 l 1
 141 349 l 2
 172 373 204 394 238 411 c 1
 230 386 226 359 226 332 c 0
 226 270 246 214 281 168 c 1
 232 189 185 216 141 251 c 2
500 139 m 0
 393 139 307 226 307 332 c 0
 307 377 323 420 351 454 c 1
 449 481 552 481 651 454 c 1
 679 420 695 377 695 332 c 0
 693 226 607 139 500 139 c 0
859 251 m 2
 815 216 768 189 719 169 c 1
 753 215 774 272 774 333 c 0
 774 360 770 386 762 412 c 1
 796 395 828 374 859 350 c 2
 920 302 l 1
 920 300 l 1
 859 251 l 2
425 337 m 0
 425 295.579101562 458.579101562 262 500 262 c 0
 541.420898438 262 575 295.579101562 575 337 c 0
 575 378.420898438 541.420898438 412 500 412 c 0
 458.579101562 412 425 378.420898438 425 337 c 0
EndSplineSet
Validated: 41
Ligature2: "Liga-1" s h o w
EndChar

StartChar: hide
Encoding: 57456 57456 172
Width: 1000
GlyphClass: 3
Flags: MW
HStem: 44 95<485 553.5 485 572> 474 76
VStem: 226 79<323 345.5> 694 80<333 346.5 302.5 348>
LayerCount: 2
Fore
SplineSet
969 364 m 2
 908 412 l 2
 861 449 811 479 758 502 c 1
 988 732 l 1
 931 789 l 1
 674 531 l 1
 607 464 l 1
 553 410 l 1
 12 -132 l 1
 69 -189 l 1
 326 68 l 1
 383 52 442 44 500 44 c 0
 644 44 788 92 908 187 c 2
 969 235 l 2
 989 250 1000 274 1000 299 c 0
 1000 324 989 348 969 364 c 2
500 139 m 0
 470 139 441 146 415 159 c 1
 503 247 l 1
 550 249 588 287 590 334 c 1
 674 418 l 1
 687 392 694 363 694 333 c 0
 693 226 607 139 500 139 c 0
920 299 m 1
 859 251 l 2
 815 216 768 189 719 169 c 1
 753 215 774 272 774 333 c 0
 774 360 770 386 762 412 c 1
 796 395 828 374 859 350 c 2
 920 302 l 1
 920 299 l 1
31 236 m 2
 92 188 l 2
 116 169 141 152 167 137 c 1
 226 196 l 1
 197 212 169 230 142 251 c 2
 80 299 l 1
 80 301 l 1
 141 349 l 2
 172 373 204 394 238 411 c 1
 230 386 226 359 226 332 c 0
 226 292 235 254 250 220 c 1
 312 282 l 1
 308 298 305 314 305 332 c 0
 305 377 321 420 349 454 c 1
 400 468 452 474 503 474 c 1
 580 550 l 1
 410 571 234 525 92 412 c 2
 31 364 l 2
 11 348 0 325 0 300 c 0
 0 275 11 252 31 236 c 2
EndSplineSet
Validated: 41
Ligature2: "Liga-1" h i d e
EndChar

StartChar: display_options
Encoding: 57457 57457 173
Width: 1000
GlyphClass: 3
Flags: MW
HStem: 508 150<479.29 520.71>
VStem: 226 81<547.5 591.5> 425 150<562.29 603.71> 695 81<569.5 591.5 569.5 600.5>
LayerCount: 2
Fore
SplineSet
969 610 m 2
 908 658 l 2
 668 849 332 849 91 658 c 2
 31 610 l 2
 11 595 0 571 0 546 c 0
 0 521 11 498 31 482 c 2
 92 434 l 2
 157 382 230 344 308 320 c 1
 327 358 361 385 402 393 c 1
 403 398 404 404 406 409 c 1
 346 442 307 506 307 578 c 0
 307 623 323 666 351 700 c 1
 449 727 552 727 651 700 c 1
 679 666 695 623 695 578 c 0
 695 556 691 535 684 515 c 1
 704 525 726 531 749 531 c 0
 756 531 763 530 771 529 c 1
 774 545 776 561 776 578 c 0
 776 605 772 631 764 657 c 1
 798 640 830 619 861 595 c 2
 922 547 l 1
 922 545 l 1
 861 497 l 1
 862 497 l 1
 888 486 910 469 925 446 c 1
 972 483 l 2
 992 498 1003 522 1003 547 c 0
 1003 572 989 594 969 610 c 2
141 497 m 2
 80 545 l 1
 80 547 l 1
 141 595 l 2
 172 619 204 640 238 657 c 1
 230 632 226 605 226 578 c 0
 226 517 246 460 280 414 c 1
 231 435 184 463 141 497 c 2
425 583 m 0
 425 541.579101562 458.579101562 508 500 508 c 0
 541.420898438 508 575 541.579101562 575 583 c 0
 575 624.420898438 541.420898438 658 500 658 c 0
 458.579101562 658 425 624.420898438 425 583 c 0
601 -200 m 0
 594 -200 587 -199 580 -196 c 2
 519 -171 l 2
 490 -159 475 -126 487 -96 c 2
 495 -76 l 1
 488 -70 481 -63 475 -56 c 1
 455 -65 l 2
 426 -77 392 -64 380 -35 c 2
 354 25 l 2
 348 40 348 57 355 72 c 0
 362 85 373 96 388 102 c 2
 405 109 l 1
 404 118 404 128 405 137 c 1
 385 145 l 2
 371 151 360 162 354 176 c 0
 348 190 348 206 354 220 c 2
 379 281 l 2
 391 310 424 325 454 313 c 2
 474 305 l 1
 480 312 487 319 494 325 c 1
 485 345 l 2
 479 359 479 375 485 389 c 0
 491 403 502 414 516 420 c 2
 576 446 l 2
 605 458 639 445 651 416 c 2
 660 396 l 1
 669 397 679 397 688 396 c 1
 696 416 l 2
 702 430 713 441 727 447 c 0
 741 453 757 453 771 447 c 2
 832 422 l 2
 846 416 857 405 863 391 c 0
 869 377 869 361 863 347 c 2
 855 327 l 1
 862 321 869 314 875 307 c 1
 895 316 l 2
 924 328 958 315 970 286 c 2
 996 226 l 2
 1002 211 1002 194 995 179 c 0
 988 166 977 155 962 149 c 2
 946 142 l 1
 947 133 947 123 946 114 c 1
 966 106 l 2
 995 94 1010 61 998 31 c 2
 971 -30 l 2
 965 -44 954 -55 940 -61 c 0
 926 -67 910 -67 896 -61 c 2
 876 -53 l 1
 870 -60 863 -67 856 -73 c 1
 865 -93 l 2
 871 -107 871 -123 865 -137 c 0
 859 -151 848 -162 834 -168 c 2
 774 -194 l 2
 760 -200 744 -200 730 -194 c 0
 716 -188 705 -177 699 -163 c 2
 690 -143 l 1
 681 -144 671 -144 662 -143 c 1
 654 -163 l 2
 645 -186 624 -200 601 -200 c 0
570 -106 m 1
 589 -114 l 1
 595 -99 l 2
 605 -75 629 -61 655 -64 c 0
 669 -66 684 -65 698 -64 c 0
 724 -61 748 -75 758 -98 c 2
 764 -113 l 1
 783 -105 l 1
 777 -90 l 2
 767 -67 774 -39 794 -23 c 0
 805 -14 815 -4 824 8 c 0
 840 28 867 36 891 26 c 2
 906 20 l 1
 914 39 l 1
 899 45 l 2
 875 55 861 79 864 105 c 0
 866 120 865 134 864 149 c 0
 861 174 875 198 897 208 c 2
 913 215 l 1
 905 234 l 1
 890 228 l 2
 867 218 839 225 823 245 c 0
 814 256 804 266 792 275 c 0
 772 291 764 318 774 342 c 2
 780 357 l 1
 760 365 l 1
 754 350 l 2
 744 326 720 312 694 315 c 0
 680 317 665 316 651 315 c 0
 625 312 601 326 591 349 c 2
 585 364 l 1
 566 356 l 1
 572 341 l 2
 582 318 575 290 555 274 c 0
 544 265 534 255 525 243 c 0
 509 223 482 215 458 225 c 2
 443 230 l 1
 435 211 l 1
 450 205 l 2
 474 195 488 171 485 145 c 0
 483 130 484 116 485 101 c 0
 488 76 474 52 452 42 c 2
 436 35 l 1
 444 16 l 1
 459 22 l 2
 482 32 510 25 526 5 c 0
 535 -6 545 -16 557 -25 c 0
 578 -41 585 -68 575 -92 c 2
 570 -106 l 1
674 -23 m 0
 655 -23 636 -19 618 -12 c 0
 581 3 552 31 537 68 c 0
 521 105 521 145 536 182 c 0
 551 219 579 248 616 263 c 0
 653 279 693 279 730 264 c 0
 767 249 796 221 811 184 c 0
 827 147 827 107 812 70 c 0
 797 33 769 4 732 -11 c 0
 714 -19 694 -23 674 -23 c 0
674 194 m 0
 665 194 656 192 647 189 c 0
 612 174 596 134 611 99 c 0
 618 82 631 69 648 62 c 0
 665 55 684 55 700 62 c 0
 735 77 751 117 736 152 c 0
 729 169 716 182 699 189 c 0
 692 193 683 194 674 194 c 0
601 -200 m 0
 594 -200 587 -199 580 -196 c 2
 519 -171 l 2
 490 -159 475 -126 487 -96 c 2
 495 -76 l 1
 488 -70 481 -63 475 -56 c 1
 455 -65 l 2
 426 -77 392 -64 380 -35 c 2
 354 25 l 2
 348 40 348 57 355 72 c 0
 362 85 373 96 388 102 c 2
 405 109 l 1
 404 118 404 128 405 137 c 1
 385 145 l 2
 371 151 360 162 354 176 c 0
 348 190 348 206 354 220 c 2
 379 281 l 2
 391 310 424 325 454 313 c 2
 474 305 l 1
 480 312 487 319 494 325 c 1
 485 345 l 2
 479 359 479 375 485 389 c 0
 491 403 502 414 516 420 c 2
 576 446 l 2
 605 458 639 445 651 416 c 2
 660 396 l 1
 669 397 679 397 688 396 c 1
 696 416 l 2
 702 430 713 441 727 447 c 0
 741 453 757 453 771 447 c 2
 832 422 l 2
 846 416 857 405 863 391 c 0
 869 377 869 361 863 347 c 2
 855 327 l 1
 862 321 869 314 875 307 c 1
 895 316 l 2
 924 328 958 315 970 286 c 2
 996 226 l 2
 1002 211 1002 194 995 179 c 0
 988 166 977 155 962 149 c 2
 946 142 l 1
 947 133 947 123 946 114 c 1
 966 106 l 2
 995 94 1010 61 998 31 c 2
 971 -30 l 2
 965 -44 954 -55 940 -61 c 0
 926 -67 910 -67 896 -61 c 2
 876 -53 l 1
 870 -60 863 -67 856 -73 c 1
 865 -93 l 2
 871 -107 871 -123 865 -137 c 0
 859 -151 848 -162 834 -168 c 2
 774 -194 l 2
 760 -200 744 -200 730 -194 c 0
 716 -188 705 -177 699 -163 c 2
 690 -143 l 1
 681 -144 671 -144 662 -143 c 1
 654 -163 l 2
 645 -186 624 -200 601 -200 c 0
570 -106 m 1
 589 -114 l 1
 595 -99 l 2
 605 -75 629 -61 655 -64 c 0
 669 -66 684 -65 698 -64 c 0
 724 -61 748 -75 758 -98 c 2
 764 -113 l 1
 783 -105 l 1
 777 -90 l 2
 767 -67 774 -39 794 -23 c 0
 805 -14 815 -4 824 8 c 0
 840 28 867 36 891 26 c 2
 906 20 l 1
 914 39 l 1
 899 45 l 2
 875 55 861 79 864 105 c 0
 866 120 865 134 864 149 c 0
 861 174 875 198 897 208 c 2
 913 215 l 1
 905 234 l 1
 890 228 l 2
 867 218 839 225 823 245 c 0
 814 256 804 266 792 275 c 0
 772 291 764 318 774 342 c 2
 780 357 l 1
 760 365 l 1
 754 350 l 2
 744 326 720 312 694 315 c 0
 680 317 665 316 651 315 c 0
 625 312 601 326 591 349 c 2
 585 364 l 1
 566 356 l 1
 572 341 l 2
 582 318 575 290 555 274 c 0
 544 265 534 255 525 243 c 0
 509 223 482 215 458 225 c 2
 443 230 l 1
 435 211 l 1
 450 205 l 2
 474 195 488 171 485 145 c 0
 483 130 484 116 485 101 c 0
 488 76 474 52 452 42 c 2
 436 35 l 1
 444 16 l 1
 459 22 l 2
 482 32 510 25 526 5 c 0
 535 -6 545 -16 557 -25 c 0
 578 -41 585 -68 575 -92 c 2
 570 -106 l 1
942 160 m 1024
EndSplineSet
Validated: 37
Ligature2: "Liga-1" d i s p l a y underscore o p t i o n s
EndChar

StartChar: more_options
Encoding: 57458 57458 174
Width: 160
GlyphClass: 3
Flags: MW
HStem: -194 160<57.9087 102.091> 220 160<57.9087 102.091> 640 160<57.9087 102.091>
VStem: 0 160<-136.091 -91.9087 277.909 322.091 697.909 742.091>
LayerCount: 2
Fore
SplineSet
0 300 m 0
 0 255.817382812 35.8173828125 220 80 220 c 0
 124.182617188 220 160 255.817382812 160 300 c 0
 160 344.182617188 124.182617188 380 80 380 c 0
 35.8173828125 380 0 344.182617188 0 300 c 0
0 -114 m 0
 0 -158.182617188 35.8173828125 -194 80 -194 c 0
 124.182617188 -194 160 -158.182617188 160 -114 c 0
 160 -69.8173828125 124.182617188 -34 80 -34 c 0
 35.8173828125 -34 0 -69.8173828125 0 -114 c 0
0 720 m 0
 0 675.817382812 35.8173828125 640 80 640 c 0
 124.182617188 640 160 675.817382812 160 720 c 0
 160 764.182617188 124.182617188 800 80 800 c 0
 35.8173828125 800 0 764.182617188 0 720 c 0
EndSplineSet
Validated: 9
Ligature2: "Liga-1" m o r e underscore o p t i o n s
EndChar

StartChar: play_queue
Encoding: 57459 57459 175
Width: 1000
GlyphClass: 3
Flags: MW
HStem: -200 80<100 900> 720 80<244 755 755 756>
VStem: 0 80<-127.5 429 -100 428> 920 80<-105.5 428 -100 428 428 429>
LayerCount: 2
Fore
SplineSet
927 525 m 1
 927 573 l 2
 927 618 897 656 856 669 c 1
 856 700 l 2
 856 755 811 800 756 800 c 2
 244 800 l 2
 189 800 144 755 144 700 c 2
 144 668 l 1
 103 656 73 618 73 572 c 2
 73 524 l 1
 31 512 0 474 0 428 c 2
 0 -100 l 2
 0 -155 45 -200 100 -200 c 2
 900 -200 l 2
 955 -200 1000 -155 1000 -100 c 2
 1000 428 l 2
 1000 474 969 513 927 525 c 1
153 573 m 2
 153 584 162 593 173 593 c 2
 827 593 l 2
 838 593 847 584 847 573 c 2
 847 529 l 1
 153 529 l 1
 153 573 l 2
224 700 m 2
 224 711 233 720 244 720 c 2
 755 720 l 2
 766 720 775 711 775 700 c 2
 775 672 l 1
 224 672 l 1
 224 700 l 2
920 -100 m 2
 920 -111 911 -120 900 -120 c 2
 100 -120 l 2
 89 -120 80 -111 80 -100 c 2
 80 429 l 2
 80 440 89 449 100 449 c 2
 900 449 l 2
 911 449 920 440 920 429 c 2
 920 -100 l 2
598 182 m 2
 441 273 l 2
 428 281 411 271 411 256 c 2
 411 75 l 2
 411 60 428 50 441 58 c 2
 598 149 l 2
 611 155 611 174 598 182 c 2
EndSplineSet
Validated: 41
Ligature2: "Liga-1" p l a y underscore q u e u e
EndChar

StartChar: tv_show
Encoding: 57460 57460 176
Width: 1000
GlyphClass: 3
Flags: MW
HStem: -200 80<181 819> 564 80<181 418 589 819>
VStem: 81 80<-127.5 544 -100 544> 839 80<-105.5 544 -100 544>
LayerCount: 2
Fore
SplineSet
819 644 m 2
 589 644 l 1
 651 715 l 1
 591 768 l 1
 501 666 l 1
 396 798 l 1
 334 748 l 1
 418 644 l 1
 181 644 l 2
 126 644 81 599 81 544 c 2
 81 -100 l 2
 81 -155 126 -200 181 -200 c 2
 819 -200 l 2
 874 -200 919 -155 919 -100 c 2
 919 544 l 2
 919 599 874 644 819 644 c 2
839 -100 m 2
 839 -111 830 -120 819 -120 c 2
 181 -120 l 2
 170 -120 161 -111 161 -100 c 2
 161 544 l 2
 161 555 170 564 181 564 c 2
 819 564 l 2
 830 564 839 555 839 544 c 2
 839 -100 l 2
211 93 m 1
 789 93 l 1
 789 514 l 1
 211 514 l 1
 211 93 l 1
291 434 m 1
 709 434 l 1
 709 173 l 1
 291 173 l 1
 291 434 l 1
211 -54 m 1
 326 -54 l 1
 326 26 l 1
 211 26 l 1
 211 -54 l 1
414 -54 m 1
 789 -54 l 1
 789 26 l 1
 414 26 l 1
 414 -54 l 1
EndSplineSet
Validated: 9
Ligature2: "Liga-1" t v underscore s h o w
EndChar

StartChar: face_wink
Encoding: 57461 57461 177
Width: 1000
Flags: H
LayerCount: 2
Fore
SplineSet
500 800 m 0
 224 800 0 576 0 300 c 0
 0 24 224 -200 500 -200 c 0
 776 -200 1000 24 1000 300 c 0
 1000 576 776 800 500 800 c 0
500 -120 m 0
 268 -120 80 68 80 300 c 0
 80 532 268 720 500 720 c 0
 732 720 920 532 920 300 c 0
 920 68 732 -120 500 -120 c 0
355 248 m 0
 359 247 363 246 367 246 c 0
 384 246 400 257 405 274 c 0
 423 330 423 389 405 445 c 0
 398 466 376 477 355 471 c 0
 334 464 322 442 329 421 c 0
 342 381 342 339 329 300 c 0
 322 278 334 255 355 248 c 0
704 423 m 2
 588 399 l 2
 566 394 553 373 557 352 c 0
 561 333 578 320 596 320 c 0
 599 320 601 320 604 321 c 2
 720 345 l 2
 742 350 755 371 751 392 c 0
 747 413 726 427 704 423 c 2
612 129 m 0
 540 85 451 85 379 129 c 0
 360 141 336 135 324 116 c 0
 312 97 318 73 337 61 c 0
 386 31 441 16 495 16 c 0
 550 16 605 31 653 61 c 0
 672 73 678 97 666 116 c 0
 655 135 630 141 612 129 c 0
EndSplineSet
Validated: 41
Ligature2: "Liga-1" f a c e underscore w i n k
EndChar

StartChar: flag
Encoding: 57462 57462 178
Width: 858
Flags: HW
LayerCount: 2
Fore
SplineSet
830 728 m 0
 811 744 784 751 757 747 c 0
 652 731 547 751 436 772 c 0
 324 793 207 815 89 797 c 0
 40 790 0 742 0 690 c 2
 0 -200 l 1
 80 -200 l 1
 80 257 l 1
 87 257 94 257 101 258 c 0
 206 274 311 254 422 233 c 0
 505 217 591 201 677 201 c 0
 708 201 738 203 769 208 c 0
 818 215 858 263 858 315 c 2
 858 665 l 2
 859 690 849 712 830 728 c 0
779 315 m 1
 779 303 768 289 758 288 c 1
 758 288 l 1
 653 272 548 292 437 313 c 0
 354 329 268 345 182 345 c 0
 151 345 121 343 90 338 c 0
 84 337 82 338 81 339 c 2
 81 339 81 340 81 342 c 2
 81 442 l 1
 81 690 l 2
 81 702 92 716 102 717 c 0
 207 733 312 713 423 692 c 0
 536 671 652 649 770 667 c 0
 776 668 778 667 779 666 c 2
 779 666 779 665 779 663 c 2
 779 315 l 1
EndSplineSet
Validated: 41
LCarets2: 3 0 0 0
Ligature2: "Liga-1" f l a g
EndChar

StartChar: flag_alt
Encoding: 57463 57463 179
Width: 858
Flags: HW
LayerCount: 2
Fore
SplineSet
830 728 m 0
 811 744 784 751 757 747 c 0
 652 731 547 751 436 772 c 0
 324 793 207 815 89 797 c 0
 40 790 0 742 0 690 c 2
 0 -200 l 1
 80 -200 l 1
 80 257 l 1
 87 257 94 257 101 258 c 0
 206 274 311 254 422 233 c 0
 505 217 591 201 677 201 c 0
 708 201 738 203 769 208 c 0
 818 215 858 263 858 315 c 2
 858 665 l 2
 859 690 849 712 830 728 c 0
300 335 m 0
 300 373 300 410 300 448 c 0
 227 458 154 462 80 448 c 1
 80 601 l 1
 153 615 226 611 300 601 c 1
 300 639 300 676 300 714 c 1
 340 708 381 701 422 693 c 0
 467 684 513 676 559 670 c 0
 559 632 559 595 559 557 c 0
 632 547 705 543 779 557 c 1
 779 404 l 1
 706 390 633 394 559 404 c 1
 559 366 559 329 559 291 c 1
 519 297 478 304 437 312 c 0
 392 320 346 329 300 335 c 0
559 557 m 1
 472 569 386 590 299 601 c 1
 299 550 299 499 299 448 c 1
 386 436 472 415 559 404 c 1
 559 455 559 506 559 557 c 1
EndSplineSet
Validated: 37
LCarets2: 7 0 0 0 0 0 0 0
Ligature2: "Liga-1" f l a g underscore a l t
EndChar

StartChar: cloud
Encoding: 57464 57464 180
Width: 1000
Flags: H
LayerCount: 2
Fore
SplineSet
782 -3 m 2
 200 -3 l 2
 90 -3 0 87 0 197 c 0
 0 299 77 383 175 395 c 1
 201 514 309 603 434 603 c 0
 555 603 656 524 688 414 c 1
 717 428 748 435 781 435 c 0
 901 435 999 337 999 217 c 0
 1000 95 902 -3 782 -3 c 2
200 316 m 0
 134 316 80 262 80 196 c 0
 80 130 134 76 200 76 c 2
 782 76 l 2
 858 76 920 138 920 214 c 0
 920 290 858 352 782 352 c 0
 747 352 713 339 687 314 c 0
 676 303 659 300 644 306 c 0
 629 312 620 326 619 342 c 0
 616 442 534 521 434 521 c 0
 338 521 257 446 249 351 c 0
 248 340 243 330 235 324 c 0
 227 317 216 314 205 315 c 0
 204 316 202 316 200 316 c 0
EndSplineSet
Validated: 33
Ligature2: "Liga-1" c l o u d
EndChar

StartChar: cloud_download
Encoding: 57465 57465 181
Width: 1000
Flags: H
LayerCount: 2
Fore
SplineSet
782 546 m 0
 749 546 718 539 689 525 c 1
 657 635 555 714 435 714 c 0
 310 714 202 625 176 506 c 1
 77 495 0 411 0 309 c 0
 0 199 90 109 200 109 c 2
 210 109 l 1
 210 189 l 1
 200 189 l 2
 134 189 80 243 80 309 c 0
 80 375 134 429 200 429 c 0
 202 429 204 429 206 429 c 0
 217 428 227 431 236 438 c 0
 244 445 249 455 250 465 c 0
 258 560 339 635 435 635 c 0
 535 635 617 557 620 456 c 0
 621 440 630 426 645 420 c 0
 660 414 676 417 688 428 c 0
 714 452 747 466 783 466 c 0
 859 466 921 404 921 328 c 0
 921 252 859 190 783 190 c 2
 659 190 l 1
 659 110 l 1
 781 110 l 2
 901 110 999 208 999 328 c 0
 1000 448 902 546 782 546 c 0
475 18 m 1
 475 412 l 1
 395 412 l 1
 395 18 l 1
 316 97 l 1
 259 41 l 1
 435 -135 l 1
 611 41 l 1
 554 97 l 1
 475 18 l 1
EndSplineSet
Validated: 41
Ligature2: "Liga-1" c l o u d underscore d o w n l o a d
EndChar

StartChar: cloud_upload
Encoding: 57466 57466 182
Width: 1000
Flags: H
LayerCount: 2
Fore
SplineSet
782 546 m 0
 749 546 718 539 689 525 c 1
 657 635 555 714 435 714 c 0
 310 714 202 625 176 506 c 1
 77 495 0 411 0 309 c 0
 0 199 90 109 200 109 c 2
 210 109 l 1
 210 189 l 1
 200 189 l 2
 134 189 80 243 80 309 c 0
 80 375 134 429 200 429 c 0
 202 429 204 429 206 429 c 0
 217 428 227 431 236 438 c 0
 244 445 249 455 250 465 c 0
 258 560 339 635 435 635 c 0
 535 635 617 557 620 456 c 0
 621 440 630 426 645 420 c 0
 660 414 676 417 688 428 c 0
 714 452 747 466 783 466 c 0
 859 466 921 404 921 328 c 0
 921 252 859 190 783 190 c 2
 659 190 l 1
 659 110 l 1
 781 110 l 2
 901 110 999 208 999 328 c 0
 1000 448 902 546 782 546 c 0
259 183 m 1
 316 126 l 1
 395 205 l 1
 395 -110 l 1
 475 -110 l 1
 475 205 l 1
 554 126 l 1
 611 183 l 1
 435 359 l 1
 259 183 l 1
EndSplineSet
Validated: 41
Ligature2: "Liga-1" c l o u d underscore u p l o a d
EndChar

StartChar: package_download
Encoding: 57467 57467 183
Width: 1000
Flags: H
LayerCount: 2
Fore
SplineSet
1000 525 m 0
 1000 526 1000 526 1000 527 c 0
 1000 528 999 530 999 531 c 0
 999 532 999 532 998 533 c 0
 998 534 997 536 996 537 c 2
 996 537 996 538 996 538 c 2
 995 540 994 541 993 543 c 2
 993 543 992 544 992 544 c 2
 991 545 990 546 989 547 c 2
 989 547 988 548 988 548 c 2
 987 549 986 550 985 551 c 2
 985 551 984 552 984 552 c 1
 984 552 984 552 983 552 c 0
 980 554 977 556 974 557 c 2
 974 557 974 557 973 557 c 2
 513 719 l 2
 504 722 495 722 486 719 c 2
 26 557 l 1
 26 557 26 557 25 557 c 0
 23 556 22 556 20 555 c 1
 20 555 20 555 20 555 c 1
 19 554 17 553 16 552 c 2
 16 552 16 552 15 552 c 2
 15 552 14 551 14 551 c 2
 13 550 12 549 11 548 c 2
 11 548 10 547 10 547 c 2
 9 546 8 545 7 544 c 2
 7 544 6 543 6 543 c 2
 5 541 4 540 3 538 c 2
 3 538 3 537 3 537 c 2
 2 536 2 534 1 533 c 0
 1 532 1 532 0 531 c 0
 0 530 -1 528 -1 527 c 0
 -1 526 -1 526 -1 525 c 0
 -1 523 -1 521 -1 519 c 2
 -1 81 l 2
 -1 64 10 49 26 43 c 2
 486 -119 l 2
 490 -121 495 -121 499 -121 c 0
 507 -121 515 -118 522 -114 c 0
 533 -107 539 -94 539 -81 c 2
 539 -69 l 1
 539 329 l 1
 743 400 l 1
 920 463 l 1
 920 41 l 1
 1000 41 l 1
 1000 519 l 2
 1000 521 1000 523 1000 525 c 0
500 400 m 1
 480 407 l 1
 391 438 l 1
 730 557 l 1
 839 519 l 1
 500 400 l 1
500 638 m 1
 609 600 l 1
 270 481 l 1
 161 519 l 1
 500 638 l 1
80 463 m 1
 230 410 l 1
 230 302 l 1
 310 274 l 1
 310 382 l 1
 460 329 l 1
 460 -24 l 1
 80 109 l 1
 80 463 l 1
786 -26 m 1
 786 278 l 1
 706 278 l 1
 706 -26 l 1
 654 26 l 1
 598 -31 l 1
 746 -179 l 1
 894 -31 l 1
 837 26 l 1
 786 -26 l 1
EndSplineSet
Ligature2: "Liga-1" p a c k a g e underscore d o w n l o a d
EndChar

StartChar: help
Encoding: 57468 57468 184
Width: 1000
Flags: H
LayerCount: 2
Fore
SplineSet
500 800 m 0
 224 800 0 576 0 300 c 0
 0 24 224 -200 500 -200 c 0
 776 -200 1000 24 1000 300 c 0
 1000 576 776 800 500 800 c 0
767 624 m 1
 670 527 l 1
 622 563 563 584 499 584 c 0
 435 584 376 563 328 527 c 1
 231 624 l 1
 305 684 399 720 500 720 c 0
 601 720 695 684 767 624 c 1
500 96 m 0
 387 96 296 188 296 300 c 0
 296 413 388 504 500 504 c 0
 613 504 704 412 704 300 c 0
 704 187 613 96 500 96 c 0
80 300 m 0
 80 401 116 495 176 567 c 1
 273 470 l 1
 237 422 216 363 216 299 c 0
 216 235 237 176 273 128 c 1
 176 31 l 1
 116 105 80 199 80 300 c 0
233 -24 m 1
 330 73 l 1
 378 37 437 16 501 16 c 0
 565 16 624 37 672 73 c 1
 769 -24 l 1
 695 -84 601 -120 500 -120 c 0
 399 -120 305 -84 233 -24 c 1
824 33 m 1
 727 130 l 1
 763 178 784 237 784 301 c 0
 784 365 763 424 727 472 c 1
 824 569 l 1
 884 496 920 403 920 302 c 0
 920 199 884 105 824 33 c 1
EndSplineSet
Ligature2: "Liga-1" h e l p
EndChar

StartChar: arrow_up
Encoding: 57469 57469 185
Width: 1000
Flags: H
LayerCount: 2
Fore
SplineSet
658 137 m 2
 342 137 l 2
 327 137 314 145 307 158 c 0
 300 171 301 187 308 199 c 2
 466 445 l 2
 473 456 486 463 500 463 c 0
 514 463 526 456 534 445 c 2
 692 199 l 2
 700 187 700 171 693 158 c 0
 686 145 673 137 658 137 c 2
415 217 m 1
 585 217 l 1
 500 349 l 1
 415 217 l 1
EndSplineSet
Ligature2: "Liga-1" a r r o w underscore u p
LCarets2: 7 0 0 0 0 0 0 0
EndChar

StartChar: arrow_down
Encoding: 57470 57470 186
Width: 1000
Flags: H
LayerCount: 2
Fore
SplineSet
500 137 m 0
 486 137 474 144 466 155 c 2
 308 401 l 2
 300 413 300 429 307 442 c 0
 314 455 327 463 342 463 c 2
 658 463 l 2
 673 463 686 455 693 442 c 0
 700 429 699 413 692 401 c 2
 534 156 l 2
 526 144 514 137 500 137 c 0
415 383 m 1
 500 251 l 1
 585 383 l 1
 415 383 l 1
EndSplineSet
Ligature2: "Liga-1" a r r o w underscore d o w n
EndChar

StartChar: arrow_right
Encoding: 57471 57471 187
Width: 1000
Flags: H
LayerCount: 2
Fore
SplineSet
377 102 m 0
 370 102 364 104 358 107 c 0
 345 114 337 127 337 142 c 2
 337 458 l 2
 337 473 345 486 358 493 c 0
 371 500 386 499 399 492 c 2
 645 334 l 2
 656 327 663 314 663 300 c 0
 663 286 656 274 645 266 c 2
 399 108 l 2
 392 104 385 102 377 102 c 0
417 385 m 1
 417 215 l 1
 549 300 l 1
 417 385 l 1
EndSplineSet
Ligature2: "Liga-1" a r r o w underscore r i g h t
EndChar

StartChar: uniE080
Encoding: 57472 57472 188
Width: 1000
Flags: H
LayerCount: 2
Fore
SplineSet
623 102 m 0
 615 102 608 104 601 108 c 2
 356 266 l 2
 345 273 338 286 338 300 c 0
 338 314 345 326 356 334 c 2
 602 492 l 2
 614 500 630 500 643 493 c 0
 656 486 664 473 664 458 c 2
 664 142 l 2
 664 127 656 114 643 107 c 0
 636 104 629 102 623 102 c 0
451 300 m 1
 583 215 l 1
 583 385 l 1
 451 300 l 1
EndSplineSet
Ligature2: "Liga-1" a r r o w underscore l e f t
EndChar
